<?xml version="1.0" encoding="UTF-8"?>
<svg id="_图层_1" data-name="图层 1" xmlns="http://www.w3.org/2000/svg" viewBox="0 0 32 32">
  <defs>
    <style>
      .cls-1 {
        fill: none;
      }
    </style>
  </defs>
  <path class="cls-1" d="M0,0H32V32H0V0Z"/>
  <path d="M22.67,4.45c6.38,3.68,8.56,11.84,4.88,18.21-3.68,6.38-11.84,8.56-18.21,4.88-3.99-2.3-6.51-6.51-6.66-11.11v-.43s0-.43,0-.43c.24-7.36,6.4-13.13,13.76-12.89,2.19,.07,4.33,.68,6.23,1.78Zm-2.67,6.21H11.84c-.67,.09-1.18,.66-1.18,1.33v.16c.09,.67,.66,1.18,1.33,1.18h4.78l-5.72,5.72-.11,.13c-.45,.58-.34,1.42,.24,1.87,.53,.41,1.28,.36,1.76-.11l5.72-5.72v4.94c.1,.73,.76,1.25,1.49,1.17,.67-.08,1.18-.65,1.18-1.32V11.84s-.05-.2-.05-.2l-.05-.14-.07-.15-.09-.15c-.04-.05-.08-.1-.13-.15l-.12-.11-.13-.09-.13-.07-.15-.06-.15-.04-.17-.02h-.1Z"/>
</svg>