<?xml version="1.0" encoding="utf-8"?>
<!-- Generator: Adobe Illustrator 27.0.0, SVG Export Plug-In . SVG Version: 6.00 Build 0)  -->
<svg version="1.1" id="图层_1" xmlns="http://www.w3.org/2000/svg" xmlns:xlink="http://www.w3.org/1999/xlink" x="0px" y="0px"
	 viewBox="0 0 32 32" style="enable-background:new 0 0 32 32;" xml:space="preserve">
<g>
	<g>
		<g>
			<path d="M10.2,27.3c-5.3,0-9.9-4.2-10.2-9.6c0-5.6,4.5-10.2,10-10.3c5.9,0,11.8,2.3,14.8,5.7c0.7-0.7,1.5-1.2,2.4-1.6
				c0.4-0.2,0.9-0.3,1.3-0.3c0,0,0,0,0,0c1.9,0,3.4,1.5,3.4,3.4v6c0,0.5-0.1,0.9-0.3,1.3c-0.4,0.8-1,1.5-1.8,1.8
				c-0.8,0.3-1.8,0.3-2.6,0c-0.9-0.4-1.7-0.9-2.3-1.5c-1.5,1.9-3.5,3.3-5.8,4.1c-0.6,0.2-1.2-0.1-1.4-0.7c-0.2-0.6,0.1-1.2,0.7-1.4
				c2.3-0.8,4.2-2.4,5.4-4.4c0.2-0.3,0.5-0.5,0.9-0.5c0.4,0,0.7,0.2,0.9,0.5c0.6,0.8,1.4,1.5,2.4,1.9c0.6,0.3,1.3,0,1.6-0.6
				c0.1-0.1,0.1-0.3,0.1-0.5v-6c0-0.7-0.5-1.2-1.2-1.2h0c-0.2,0-0.3,0-0.5,0.1c-1,0.4-1.8,1.1-2.4,1.9c-0.2,0.3-0.6,0.5-0.9,0.5
				c-0.4,0-0.7-0.2-0.9-0.5c-2.1-3.3-8.1-5.8-13.8-5.8c-4.3,0.1-7.8,3.7-7.8,8c0.3,4.3,4,7.6,8.4,7.5l2.5,0c0.6,0,1.1,0.5,1.1,1.1
				s-0.5,1.1-1.1,1.1h-2.5C10.5,27.3,10.4,27.3,10.2,27.3z"/>
		</g>
		<g>
			<path d="M9.1,17.5c-1.2,0-2.2-1-2.2-2.2c0-1.2,1-2.2,2.2-2.2c1.2,0,2.2,1,2.2,2.2C11.4,16.5,10.4,17.5,9.1,17.5z M9.1,15.2
				C9.1,15.2,9.1,15.3,9.1,15.2L9.1,15.2z"/>
		</g>
		<g>
			<path d="M18.4,29.3c-4.3,0-8-3-8.9-7.3c-0.1-0.6,0.3-1.2,0.9-1.3c0.6-0.1,1.2,0.3,1.3,0.9c0.7,3.2,3.4,5.5,6.6,5.5l-1.9-6.2
				c-0.2-0.6,0.1-1.2,0.7-1.4c0.6-0.2,1.2,0.1,1.4,0.7l2.3,7.5c0.1,0.3,0.1,0.6-0.1,0.9c-0.2,0.3-0.4,0.5-0.8,0.5
				C19.4,29.3,18.9,29.3,18.4,29.3z M22.4,13.4c-0.4,0-0.9-0.3-1-0.7c-0.9-2.4-1-5.1-0.4-7.6C12.8,4.5,9.6,7.5,8.3,9.4
				C8,10,7.3,10.1,6.8,9.8c-0.5-0.3-0.7-1-0.3-1.5C8.1,5.8,12.3,1.8,22.6,3c0.3,0,0.6,0.2,0.8,0.5c0.2,0.3,0.2,0.6,0.1,1
				c-0.9,2.4-0.9,5,0,7.4c0.2,0.6-0.1,1.2-0.7,1.4C22.7,13.4,22.6,13.4,22.4,13.4z"/>
		</g>
	</g>
</g>
</svg>
