<?xml version="1.0" standalone="no"?><!DOCTYPE svg PUBLIC "-//W3C//DTD SVG 1.1//EN" "http://www.w3.org/Graphics/SVG/1.1/DTD/svg11.dtd" ><svg xmlns="http://www.w3.org/2000/svg"><metadata></metadata><defs><font id="LXGW WenKai Bold:Version 1.235" horiz-adv-x="1000"><font-face font-family="LXGW WenKai" font-weight="700" font-stretch="normal" units-per-em="1000" panose-1="2 2 8 0 0 0 0 0 0 0" ascent="928" descent="-256" x-height="0" bbox="-20 -182 1020 886" underline-thickness="50" underline-position="-225" unicode-range="U+0020-ff1f" /><missing-glyph horiz-adv-x="1000" d="M800 -64 l-300 389 l-300 -389 l600 0 ZM844 -14 l0 786 l-302 -393 l302 -393 ZM156 -14 l302 393 l-302 393 l0 -786 ZM500 433 l301 391 l-602 0 l301 -391 ZM906 -126 l-812 0 l0 1012 l812 0 l0 -1012 Z" /><glyph glyph-name="exclam" unicode="!" d="M179 -15 q-27 0 -44.5 21 q-17.5 21 -17.5 45 q0 23 14.5 39.5 q14.5 16.5 40.5 16.5 q26 0 44 -22.5 q18 -22.5 18 -45.5 q0 -54 -55 -54 ZM190 159 q-16 0 -33 7 q-17 7 -17 22 q2 16 2 39 q-7 441 -11 467 q0 24 28 24 q23 0 46 -10 q23 -10 23 -28 q-1 -17 -3 -33 q-2 -16 -3 -38 q-12 -386 -12 -436 q0 -14 -20 -14 Z" /><glyph glyph-name="quotedbl" unicode="&quot;" d="M148 492 q0 -22 -37 -22 q-37 0 -37 22 l-6 211 q0 15 14.5 21.5 q14.5 6.5 29.5 6.5 q14 0 28 -6.5 q14 -6.5 14 -21.5 l-6 -211 ZM276 492 q0 -22 -37 -22 q-37 0 -37 22 l-6 211 q0 15 14.5 21.5 q14.5 6.5 29.5 6.5 q14 0 28 -6.5 q14 -6.5 14 -21.5 l-6 -211 Z" /><glyph glyph-name="numbersign" unicode="#" d="M362 274 l25 185 l-138 0 q-5 -44 -11.5 -89 q-6.5 -45 -13.5 -96 l138 0 ZM361 -13 q-40 0 -40 20 q0 4 7 33 q5 16 24 164 l-137 0 q-19 -140 -23 -192 q-4 -25 -43 -25 q-40 0 -40 20 q0 3 7 33 q5 21 24 164 q-64 0 -82 -3 q-14 0 -20.5 15.5 q-6.5 15.5 -6.5 29.5 q0 30 22 30 q30 -2 97 -2 l25 185 q-71 0 -91 -3 q-13 0 -20 15.5 q-7 15.5 -7 29.5 q0 30 22 30 q30 -2 106 -2 q21 153 22 176 q0 18 26 18 q53 0 53 -29 q-2 -10 -4.5 -18.5 q-2.5 -8.5 -22.5 -146.5 l138 0 q21 153 22 176 q0 18 26 18 q53 0 53 -29 q-7 -23 -9 -35 l-18 -130 q39 0 81 3 q15 0 22 -14.5 q7 -14.5 7 -27.5 q0 -32 -23 -32 q-22 1 -97 1 l-24 -185 q47 0 89 3 q15 0 22 -14.5 q7 -14.5 7 -26.5 q0 -33 -23 -33 q-22 1 -105 1 q-19 -139 -23 -192 q-4 -25 -43 -25 Z" /><glyph glyph-name="dollar" unicode="$" d="M342 56 q57 9 94.5 44.5 q37.5 35.5 37.5 89.5 q0 55 -28 88.5 q-28 33.5 -104 54.5 l0 -277 ZM264 432 l0 207 q-52 -9 -85 -42.5 q-33 -33.5 -33 -72.5 q0 -47 42 -67 q28 -13 76 -25 ZM321 -129 q-19 0 -39 8 q-20 8 -20 23 l2 77 q-135 6 -227 109 q-8 8 -8 24 q0 16 14.5 34.5 q14.5 18.5 27.5 18.5 q12 0 18 -10 q41 -62 109 -86 q45 -16 66 -16 l0 301 l-39 10 q-75 21 -119 57 q-44 36 -44 105 q0 46 26.5 86 q26.5 40 73 68 q46.5 28 101.5 34 q-2 25 -2 47 q0 15 25 15 q19 0 38.5 -7 q19.5 -7 19.5 -22 l-1 -32 q58 -7 98 -26.5 q40 -19.5 60 -37 q20 -17.5 20 -38.5 q0 -19 -8 -38 q-8 -19 -23 -19 q-8 0 -29 20 q-37 49 -119 64 l0 -228 l21 -6 q194 -50 194 -214 q0 -54 -26 -99 q-26 -45 -75 -75 q-49 -30 -113 -37 q2 -22 2 -95 q0 -15 -24 -15 Z" /><glyph glyph-name="percent" unicode="%" d="M596 43 q83 0 83 119 q0 45 -19.5 79 q-19.5 34 -55.5 34 q-37 0 -64.5 -27.5 q-27.5 -27.5 -27.5 -92.5 q0 -65 35 -96 q18 -16 49 -16 ZM598 -24 q-82 0 -121 51 q-39 51 -39 131 q0 94 53 147 q8 10 19 10 q9 0 11 -2 q29 29 80 29 q50 0 84 -25 q67 -51 67 -159 q0 -48 -16 -90 q-37 -92 -138 -92 ZM206 432 q42 0 62.5 31.5 q20.5 31.5 20.5 82.5 q0 50 -19.5 84 q-19.5 34 -55.5 34 q-37 0 -64.5 -28.5 q-27.5 -28.5 -27.5 -88.5 q0 -115 84 -115 ZM208 365 q-82 0 -121 51 q-39 51 -39 131 q0 94 53 147 q8 10 19 10 q9 0 11 -2 q29 29 80 29 q50 0 84 -25 q67 -51 67 -159 q0 -48 -16 -89 q-37 -93 -138 -93 ZM179 -46 q-13 0 -30 19 q-17 19 -17 33 q0 13 12.5 27 q12.5 14 30.5 41 q400 627 412 652 q5 13 19 13 q11 0 24 -11 q27 -25 27 -47 q0 -3 -3 -9 q-26 -33 -46 -63 q-386 -602 -411 -645 q-6 -10 -18 -10 Z" /><glyph glyph-name="ampersand" unicode="&amp;" d="M263 45 q42 0 89.5 20 q47.5 20 85.5 57 q-72 76 -194 221 q-120 -81 -120 -181 q0 -55 35 -86 q35 -31 104 -31 ZM258 443 q48 31 79.5 71 q31.5 40 31.5 74 q0 66 -55 66 q-55 0 -83 -48 q-13 -23 -13 -50 q0 -61 40 -113 ZM263 -23 q-217 0 -217 177 q0 80 44 139 q44 59 110 106 q-60 80 -60 159 q0 47 23 83.5 q23 36.5 60.5 56.5 q37.5 20 93.5 20 q55 0 93 -32 q38 -32 38 -95 q0 -103 -144 -205 q101 -125 179 -206 q52 72 81 186 q5 18 9.5 31 q4.5 13 17.5 13 q6 0 19 -6 q13 -6 25 -17 q12 -11 12 -29 q0 -17 -35.5 -95.5 q-35.5 -78.5 -75.5 -135.5 q78 -82 125 -98 q49 -21 49 -35 q0 -14 -43 -14 q-39 0 -69.5 10 q-30.5 10 -55.5 31.5 q-25 21.5 -54 48.5 q-84 -93 -225 -93 Z" /><glyph glyph-name="quotesingle" unicode="&#39;" d="M176 470 q-35 0 -38 22 l-6 211 q0 15 14.5 21.5 q14.5 6.5 28.5 6.5 q43 0 43 -27 l-6 -212 q0 -22 -36 -22 Z" /><glyph glyph-name="parenleft" unicode="(" d="M299 -165 q-10 0 -35 23 q-58 53 -107 155 q-63 127 -63 276 q0 148 56.5 282.5 q56.5 134.5 115.5 198.5 q25 27 38 27 q25 0 25 -23 q0 -10 -7 -17 q-64 -75 -102.5 -215.5 q-38.5 -140.5 -38.5 -249.5 q0 -110 35.5 -230 q35.5 -120 94.5 -179 q10 -10 10 -23 q0 -25 -22 -25 Z" /><glyph glyph-name="parenright" unicode=")" d="M50 -165 q-22 0 -22 25 q0 13 10 23 q59 59 94.5 179 q35.5 120 35.5 230 q0 109 -38.5 249.5 q-38.5 140.5 -102.5 215.5 q-7 7 -7 17 q0 23 25 23 q14 0 39 -27 q58 -64 110 -184 q61 -149 61 -297 q0 -148 -56 -263.5 q-56 -115.5 -114 -167.5 q-25 -23 -35 -23 Z" /><glyph glyph-name="asterisk" unicode="*" d="M200.5 395 q-6.5 -10 -22.5 -10 q-16 0 -34.5 14.5 q-18.5 14.5 -18.5 28.5 q0 13 12 28 q44 51 61 72 q-42 5 -67 6.5 q-25 1.5 -39 5 q-14 3.5 -14 25.5 q0 18 7.5 38 q7.5 20 26.5 20 q6 0 42.5 -15 q36.5 -15 63.5 -24 l-16 107 q0 29 46 29 q40 0 40 -30 l-9 -102 q58 26 77.5 38.5 q19.5 12.5 33.5 12.5 q16 0 25.5 -19 q9.5 -19 9.5 -36 q0 -25 -35 -32 l-92 -19 q38 -49 61 -73 q17 -16 17 -27 q0 -11 -16 -28.5 q-16 -17.5 -34 -17.5 q-19 0 -25.5 10 q-6.5 10 -11.5 22 q-5 12 -18 36.5 q-13 24.5 -21 39.5 q-25 -42 -34 -66 q-9 -24 -15.5 -34 Z" /><glyph glyph-name="plus" unicode="+" d="M303 -9 q-15 0 -28 8 q-13 8 -13 24 q3 30 3 193 q-171 0 -190 -3 q-15 0 -22.5 15 q-7.5 15 -7.5 29 q0 31 26 31 q28 -2 194 -2 q0 161 -2 189 q0 26 31 26 q14 0 29 -7.5 q15 -7.5 15 -22.5 q-3 -37 -3 -185 q127 0 187 3 q17 0 24.5 -13.5 q7.5 -13.5 7.5 -28.5 q0 -32 -26 -32 q-74 1 -193 1 q0 -125 1 -199 q0 -26 -33 -26 Z" /><glyph glyph-name="comma" unicode="," d="M114 -110 q-19 0 -19 20 q0 13 12.5 21.5 q12.5 8.5 29 28 q16.5 19.5 19.5 29.5 q-45 18 -45 61 q0 28 19.5 43 q19.5 15 44.5 15 q25 0 42 -21 q17 -21 20 -49 q0 -54 -45 -101 q-45 -47 -78 -47 Z" /><glyph glyph-name="hyphen" unicode="-&#x2011;" d="M43 213 q-14 0 -20.5 15.5 q-6.5 15.5 -6.5 29.5 q0 30 22 30 q30 -2 140 -2 q89 0 131 2 q13 0 20 -14.5 q7 -14.5 7 -34.5 q0 -25 -21 -25 l-78 2 q-176 0 -194 -3 Z" /><glyph glyph-name="period" unicode="." d="M180 -20 q-25 0 -44 24 q-19 24 -19 50 q0 27 18.5 44.5 q18.5 17.5 42.5 17.5 q25 0 45.5 -23.5 q20.5 -23.5 20.5 -49.5 q0 -27 -20.5 -45 q-20.5 -18 -43.5 -18 Z" /><glyph glyph-name="slash" unicode="/" d="M47 -48 q-15 0 -30 13 q-15 13 -15 27 q0 12 4 20 q18 32 27 60 l214 590 q15 42 24 77 q4 18 19 18 q11 0 23 -8 q28 -21 28 -40 q0 -4 -8 -19.5 q-8 -15.5 -21 -51.5 q-233 -638 -242 -669 q-6 -17 -23 -17 Z" /><glyph glyph-name="zero" unicode="0" d="M302 51 q49 0 82 41 q66 79 66 274 q0 193 -74 255 q-27 23 -58 23 q-61 0 -114 -82.5 q-53 -82.5 -53 -217.5 q0 -137 28 -208 q33 -85 123 -85 ZM477 91 q-63 -115 -181 -115 q-118 0 -177 108 q-52 94 -52 237 q0 142 39 247 q17 45 35 71 q18 26 32 26 q14 0 21 -9 q54 63 124 63 q69 0 119 -49 q97 -94 97 -316 q0 -156 -57 -263 Z" /><glyph glyph-name="one" unicode="1" d="M335 -17 q-20 0 -42 8.5 q-22 8.5 -22 25.5 l2 88 l0 491 q-28 -17 -87 -30 q-3 -1 -14 -1 q-12 0 -28.5 9 q-16.5 9 -16.5 21 q0 12 15 18 q94 37 136 85 q16 18 31 18 q14 0 34.5 -13.5 q20.5 -13.5 20.5 -29.5 q0 -14 -3 -32.5 q-3 -18.5 -3 -40.5 q0 -489 2 -601 q0 -16 -25 -16 Z" /><glyph glyph-name="two" unicode="2" d="M104 -10 q-26 0 -39.5 18 q-13.5 18 -13.5 32 q0 14 5.5 23 q5.5 9 11.5 15.5 q6 6.5 10 12.5 q29 51 91.5 120.5 q62.5 69.5 136 130 q73.5 60.5 106 109.5 q32.5 49 32.5 94 q0 44 -28 71 q-28 27 -87 27 q-116 0 -152 -94 q-12 -30 -42 -30 q-16 0 -29.5 19.5 q-13.5 19.5 -13.5 32.5 q0 12 14.5 36 q14.5 24 43.5 49 q72 63 172 63 q100 0 154 -47.5 q54 -47.5 54 -119.5 q0 -71 -44.5 -134 q-44.5 -63 -119.5 -126 q-147 -119 -210 -221 q39 4 138 4 l146 -1 l65 1 q16 0 28 -20 q12 -20 12 -39 q0 -23 -21 -23 q-10 0 -47.5 4 q-37.5 4 -231.5 4 q-80 0 -141 -11 Z" /><glyph glyph-name="three" unicode="3" d="M285 -24 q-80 0 -130 21 q-50 21 -92 62 q-10 10 -10 28 q0 17 12 36.5 q12 19.5 24 19.5 q10 0 18 -8 q32 -39 70.5 -61.5 q38.5 -22.5 100.5 -22.5 q61 0 102.5 23 q41.5 23 60.5 61 q19 38 19 82 q0 58 -40.5 93.5 q-40.5 35.5 -104.5 35.5 q-36 0 -81 -9 q-18 0 -29.5 18 q-11.5 18 -11.5 35 q0 20 17 21 q131 13 191 74 q28 29 28 66 q0 94 -111 94 q-90 0 -163 -79 q-11 -15 -26 -15 q-4 0 -22 12 q-18 12 -18 33 q0 21 13 31 q87 92 214 92 q87 0 141 -42.5 q54 -42.5 54 -112.5 q0 -136 -98 -166 q8 0 46 -22.5 q38 -22.5 61 -62.5 q23 -40 23 -100 q0 -59 -29 -114.5 q-29 -55.5 -88.5 -89 q-59.5 -33.5 -140.5 -33.5 Z" /><glyph glyph-name="four" unicode="4" d="M433 -17 q-20 0 -41.5 8.5 q-21.5 8.5 -21.5 25.5 q2 70 2 134 q-248 -13 -258.5 -16 q-10.5 -3 -21.5 -3 q-13 0 -30 16 q-17 16 -17 34 q0 16 8.5 28.5 q8.5 12.5 18 24 q9.5 11.5 16.5 20.5 q187 295 217 351 q30 56 48 100 q5 11 17 11 q10 0 24 -10 q32 -24 32 -50 q0 -6 -22 -40 q-184 -298 -257 -404 l225 10 q0 195 -3 302 q0 16 25 16 q19 0 40 -8.5 q21 -8.5 21 -25.5 q-2 -89 -2 -281 l53 4 q22 3 34 3 q15 0 25.5 -21 q10.5 -21 10.5 -37 q0 -22 -17 -22 l-93 2 l-13 -1 q0 -74 4 -155 q0 -16 -24 -16 Z" /><glyph glyph-name="five" unicode="5" d="M291 -25 q-136 0 -223 95 q-9 9 -9 28 q0 18 12 38.5 q12 20.5 25 20.5 q12 0 18 -10 q65 -94 165 -96 q63 0 103 23.5 q40 23.5 60 63 q20 39.5 20 85.5 q0 73 -43 112.5 q-43 39.5 -108 40.5 q-63 0 -99 -22 q-36 -22 -70 -52 q-5 -5 -16 -5 q-12 0 -26.5 16 q-14.5 16 -14.5 32 q0 14 11 52 l38 240 q2 11 2 42 q0 19 24 19 q18 0 40 -11 q262 19 275 21 q16 0 26.5 -19.5 q10.5 -19.5 10.5 -36.5 q0 -21 -15.5 -21.5 q-15.5 -0.5 -37.5 -0.5 l-251 -19 l-34 -204 q51 41 139 41 q65 0 116 -27 q51 -27 82.5 -76.5 q31.5 -49.5 31.5 -117.5 q0 -68 -27.5 -125 q-27.5 -57 -86 -92 q-58.5 -35 -138.5 -35 Z" /><glyph glyph-name="six" unicode="6" d="M303 50 q78 0 119.5 49 q41.5 49 41.5 125 q0 39 -18 72.5 q-18 33.5 -51 53.5 q-33 20 -83 20 q-51 0 -90.5 -23.5 q-39.5 -23.5 -60.5 -62.5 q-21 -39 -21 -87 q0 -64 42 -105.5 q42 -41.5 121 -41.5 ZM438.5 11.5 q-54.5 -34.5 -132.5 -34.5 q-78 0 -133 29 q-55 29 -85.5 79 q-30.5 50 -30.5 114 q0 63 25 133.5 q25 70.5 74.5 155 q49.5 84.5 87 141 q37.5 56.5 40.5 64 q3 7.5 7 13.5 q7 14 35 14 q24 0 40 -8 q16 -8 16 -23 q0 -13 -12 -25 q-115 -132 -178 -257 q40 35 128 35 q62 0 113.5 -27.5 q51.5 -27.5 82.5 -76.5 q31 -49 31 -113 q0 -64 -27 -121.5 q-27 -57.5 -81.5 -92 Z" /><glyph glyph-name="seven" unicode="7" d="M221 -17 q-33 0 -41 13 q-8 13 -8 27 q0 12 77 201 q77 189 183 404 q-278 -24 -287 -26 q-9 -2 -23 -2 q-17 0 -29 15 q-12 15 -17 31 q-5 16 -5 19 q0 15 12 15 l36 -2 q331 24 342 27 q11 3 23 3 q17 -1 34.5 -17.5 q17.5 -16.5 17.5 -34.5 q-4 -15 -15.5 -33 q-11.5 -18 -35.5 -66 q-167 -340 -225 -553 q-4 -21 -39 -21 Z" /><glyph glyph-name="eight" unicode="8" d="M281 52 q79 0 124.5 33 q45.5 33 45.5 88 q0 55 -19 85 q-19 30 -57 51.5 q-38 21.5 -91 43.5 q-71 -50 -110.5 -89.5 q-39.5 -39.5 -39.5 -87.5 q0 -31 15 -60 q35 -64 132 -64 ZM277 435 q88 56 142 99 q38 19 38 23 q0 1 -2 1 q-13 0 -24 17 q-44 72 -128 72 q-62 0 -99 -31 q-37 -31 -37 -68 q0 -38 27 -62.5 q27 -24.5 83 -50.5 ZM281 -23 q-69 0 -121 25.5 q-52 25.5 -80.5 70.5 q-28.5 45 -28.5 100 q0 112 159 216 q-125 67 -125 154 q0 48 27 87.5 q27 39.5 76 63.5 q49 24 106 24 q56 0 93 -15 q37 -15 62 -36.5 q25 -21.5 37.5 -40.5 q12.5 -19 12.5 -28 q0 -2 1 -2 q2 0 9 13 q0 -3 9 -3 q22 0 22 -22 q0 -32 -141 -144 q-33 -26 -49 -37 q185 -71 185 -227 q0 -89 -68 -144 q-68 -55 -186 -55 ZM509 609 q1 2 2 4 q-2 -2 -2 -4 Z" /><glyph glyph-name="nine" unicode="9" d="M227 331 q83 0 143 64 q41 44 66 109 q17 43 17 57 q-18 0 -24 14.5 q-6 14.5 -20 30.5 q-32 38 -91 38 q-75 0 -129.5 -65 q-54.5 -65 -54.5 -126 q0 -122 93 -122 ZM379 -19 q-34 0 -34 28 q0 11 51 253 q14 68 14 75 l-1 -3 q-20 -25 -73.5 -52.5 q-53.5 -27.5 -103.5 -27.5 q-52 0 -91.5 22.5 q-39.5 22.5 -63.5 64.5 q-24 42 -24 98 q0 107 77.5 193 q77.5 86 182.5 86 q84 0 137 -50 q21 -20 22 -22 q1 6 3 24.5 q2 18.5 22 18.5 q24 -2 42 -17 q18 -15 18 -29 q-35 -90 -99 -466 q-18 -109 -25 -169 q-3 -25 -54 -27 Z" /><glyph glyph-name="colon" unicode=":" d="M222 2 q-14 -15 -41 -15 q-27 0 -44.5 22.5 q-17.5 22.5 -17.5 46.5 q0 24 17 37.5 q17 13.5 40 13.5 q24 0 42 -22.5 q18 -22.5 18 -44.5 q0 -23 -14 -38 ZM222 373 q-14 -15 -41 -15 q-27 0 -44.5 22.5 q-17.5 22.5 -17.5 46.5 q0 24 17 37.5 q17 13.5 40 13.5 q24 0 42 -22.5 q18 -22.5 18 -44.5 q0 -23 -14 -38 Z" /><glyph glyph-name="semicolon" unicode=";" d="M120 -106 q-20 0 -20 20 q0 11 9 17 q18 12 34 31 q15 19 19 31 q-12 0 -22 8 q-24 22 -24 49 q0 26 18 39.5 q18 13.5 41 13.5 q23 0 38.5 -20 q15.5 -20 19.5 -55 q0 -36 -30 -74.5 q-30 -38.5 -72 -56.5 q-6 -3 -11 -3 ZM222 373 q-14 -15 -41 -15 q-27 0 -44.5 22.5 q-17.5 22.5 -17.5 46.5 q0 24 17 37.5 q17 13.5 40 13.5 q24 0 42 -22.5 q18 -22.5 18 -44.5 q0 -23 -14 -38 Z" /><glyph glyph-name="less" unicode="&lt;" d="M483 -22 q-4 0 -10 4 q-95 72 -274 169 q-62 33 -70 34 q-42 9 -42 63 q0 13 5 21.5 q5 8.5 22 14 q17 5.5 61 29.5 q61 31 154 85.5 q93 54.5 144 95.5 q6 4 11 4 q14 0 21.5 -18 q7.5 -18 7.5 -36 q0 -22 -12 -28 q-34 -19 -121.5 -71.5 q-87.5 -52.5 -200.5 -108.5 q150 -74 284 -155 q16 -9 30.5 -18 q14.5 -9 14.5 -31 q0 -54 -25 -54 Z" /><glyph glyph-name="equal" unicode="=" d="M81 118 q-14 0 -20.5 15.5 q-6.5 15.5 -6.5 29.5 q0 30 22 30 q30 -2 226 -2 q172 0 214 3 q30 0 30 -50 q0 -25 -21 -25 l-81 2 q-345 0 -363 -3 ZM81 306 q-14 0 -20.5 15.5 q-6.5 15.5 -6.5 29.5 q0 30 22 30 q30 -2 226 -2 q172 0 214 3 q30 0 30 -50 q0 -25 -21 -25 l-81 2 q-345 0 -363 -3 Z" /><glyph glyph-name="greater" unicode="&gt;" d="M120 -21 q-14 0 -21.5 18 q-7.5 18 -7.5 37 q0 22 12 27 q34 19 119 69.5 q85 50.5 204 110.5 q-193 99 -247.5 132 q-54.5 33 -68.5 41.5 q-14 8.5 -14 31.5 q0 53 25 53 q5 0 44.5 -30 q39.5 -30 166 -102 q126.5 -72 140 -74.5 q13.5 -2.5 23.5 -8.5 q10 -6 16 -23.5 q6 -17.5 6 -30.5 q0 -14 -4.5 -22 q-4.5 -8 -20.5 -14 q-45 -15 -177.5 -92.5 q-132.5 -77.5 -182.5 -118.5 q-6 -4 -12 -4 Z" /><glyph glyph-name="question" unicode="?" d="M294 -15 q-27 0 -44.5 21 q-17.5 21 -17.5 45 q0 23 14.5 39.5 q14.5 16.5 40.5 16.5 q26 0 44 -22.5 q18 -22.5 18 -45.5 q0 -54 -55 -54 ZM298 162 q-37 0 -44 19 q-7 19 -7 43 q0 23 5 57.5 q5 34.5 27 64 q22 29.5 49.5 53.5 q27.5 24 54.5 47 q60 54 60 122 q0 34 -21.5 57 q-21.5 23 -68.5 23 q-49 0 -89.5 -18.5 q-40.5 -18.5 -65.5 -44 q-25 -25.5 -37 -68.5 q-6 -17 -24 -17 q-17 0 -35 15 q-18 15 -18 29 q0 12 3 16 q90 159 263 159 q84 0 131 -38.5 q47 -38.5 47 -99.5 q0 -60 -20 -98 q-28 -53 -106 -114 q-30 -23 -53 -50.5 q-23 -27.5 -23 -64.5 q0 -29 10 -69 q0 -23 -38 -23 Z" /><glyph glyph-name="at" unicode="@" d="M332 219 q65 0 113 68 q47 65 47 139 q0 35 -18 53 q-18 18 -51 18 q-33 0 -67 -26.5 q-34 -26.5 -56 -70.5 q-22 -44 -22 -98 q0 -83 54 -83 ZM393 -23 q-109 0 -190.5 39 q-81.5 39 -127 113 q-45.5 74 -45.5 167 q0 174 112 298 q112 124 286 124 q91 0 166.5 -35.5 q75.5 -35.5 118 -101.5 q42.5 -66 42.5 -152 q0 -85 -26 -149.5 q-26 -64.5 -68 -101 q-42 -36.5 -90 -36.5 q-85 0 -85 94 q0 5 -1 5 q-1 0 -4 -17 q-51 -81 -149 -81 q-63 0 -100.5 41.5 q-37.5 41.5 -37.5 113.5 q0 71 30.5 132 q30.5 61 82.5 98.5 q52 37.5 117 37.5 q66 0 90 -34 l0 13 q0 11 18 11 q13 0 28.5 -6 q15.5 -6 28 -16 q12.5 -10 12.5 -23 l-1 -5 q-41 -121 -41 -254 q0 -41 14 -41 q24 0 48.5 24.5 q24.5 24.5 42 72.5 q17.5 48 17.5 120 q0 70 -34 120.5 q-34 50.5 -93 76.5 q-59 26 -128 26 q-131 0 -224.5 -103.5 q-93.5 -103.5 -93.5 -234.5 q0 -134 77 -199.5 q77 -65.5 200 -65.5 q123 0 235 71 q51 33 85 71 q13 15 25 15 q20 0 20 -22 q0 -8 -6 -20 q-35 -54 -90 -96 q-118 -90 -261 -90 Z" /><glyph glyph-name="A" unicode="A" d="M220 291 l253 11 q-82 189 -117 283 q-78 -172 -136 -294 ZM633 -15 q-26 0 -32 16 q-19 56 -40 106 l-58 126 l-319 -14 q-83 -172 -97 -211 q-8 -21 -50 -21 q-44 0 -44 25 q0 8 4.5 14 q4.5 6 8.5 13.5 q4 7.5 13.5 25.5 q9.5 18 29 54.5 q19.5 36.5 47.5 92.5 l3 0 q-16 0 -27 20.5 q-11 20.5 -11 37.5 q0 21 18 21 q19 -2 55 -2 q173 345 178 392 q2 20 8.5 28 q6.5 8 25.5 8 q16 0 37 -10 q21 -10 25 -27 l-3 -20 q0 -12 53 -138 q166 -395 227 -483 q12 -17 12 -23 q0 -16 -20.5 -23.5 q-20.5 -7.5 -43.5 -7.5 Z" /><glyph glyph-name="B" unicode="B" d="M182 45 q237 0 308 82 q32 36 32 80 q0 77 -59 113 q-48 30 -117 32 q-93 0 -164 -6 l0 -301 ZM189 414 q74 0 117 8 q43 8 78 25 q35 17 58.5 43.5 q23.5 26.5 23.5 60.5 q0 93 -158 93 q-69 0 -126 -16 l0 -214 l7 0 ZM227 -16 q-180 0 -180 33 q0 9 8 16 q8 7 25 7 q17 0 20 1 l0 580 q-10 3 -25 18.5 q-15 15.5 -15 27.5 q0 13 11 18 q26 10 103.5 21 q77.5 11 151.5 11 q75 0 125 -21 q98 -41 98 -139 q0 -79 -69 -132 q-30 -21 -36 -24 q25 -2 67 -27.5 q42 -25.5 68 -66 q26 -40.5 26 -99.5 q0 -60 -28 -103 q-78 -121 -350 -121 Z" /><glyph glyph-name="C" unicode="C" d="M357 -24 q-88 0 -159 32.5 q-71 32.5 -112 102.5 q-41 70 -41 171 q0 190 104 313.5 q104 123.5 259 123.5 q152 0 225 -87 q4 -6 4 -18 q0 -13 -14.5 -32 q-14.5 -19 -28.5 -19 q-15 0 -23 12 q-44 68 -161 68 q-118 0 -197 -97 q-84 -99 -84 -257 q0 -157 112 -212 q52 -26 110 -26 q57 0 107 17 q50 17 96.5 48.5 q46.5 31.5 76.5 72.5 q14 17 30 17 q19 0 19 -19 q0 -15 -15 -40 q-34 -60 -106 -108 q-90 -63 -202 -63 Z" /><glyph glyph-name="D" unicode="D" d="M182 46 q140 3 233 44.5 q93 41.5 137 111 q44 69.5 44 146.5 q0 141 -91.5 219 q-91.5 78 -206.5 78 q-63 0 -116 -15 l0 -584 ZM176 -14 q-131 0 -131 29 q0 25 55 25 l0 581 q-11 3 -25.5 19 q-14.5 16 -14.5 28 q0 33 184 48 q33 2 59 2 q155 0 265.5 -99.5 q110.5 -99.5 110.5 -258.5 q0 -159 -97 -254 q-82 -82 -207 -104 q-77 -14 -199 -16 Z" /><glyph glyph-name="E" unicode="E" d="M142 -16 q-18 0 -33.5 19.5 q-15.5 19.5 -15.5 33.5 l7 47 l0 256 q-10 6 -18.5 23.5 q-8.5 17.5 -8.5 29.5 q0 17 16 17 l11 -2 l0 226 l-4 51 q0 20 20 20 q15 0 35 -6 l20 -7 q282 19 317 23 q26 3 38 3 q14 0 25.5 -19.5 q11.5 -19.5 11.5 -36.5 q0 -22 -19 -22 q-88 0 -364 -19 l0 -212 q217 14 253 18 q26 3 38 3 q14 0 25.5 -19.5 q11.5 -19.5 11.5 -37.5 q0 -22 -19 -22 q-85 0 -309 -13 l0 -273 q343 6 375 8 q18 0 28.5 -21 q10.5 -21 10.5 -38 q0 -22 -18 -22 q-24 3 -103 3 q-294 -4 -305 -7.5 q-11 -3.5 -26 -3.5 Z" /><glyph glyph-name="F" unicode="F" d="M161 -15 q-20 0 -41.5 8.5 q-21.5 8.5 -21.5 25.5 q2 89 2 321 q-10 6 -18.5 23.5 q-8.5 17.5 -8.5 29.5 q0 17 16 17 l11 -2 l0 226 l-4 51 q0 20 20 20 q15 0 35 -6 l20 -7 q282 19 317 23 q26 3 38 3 q14 0 25.5 -19.5 q11.5 -19.5 11.5 -37.5 q0 -22 -19 -22 q-88 0 -362 -19 l0 -211 q215 14 251 18 q26 3 38 3 q14 0 25.5 -19.5 q11.5 -19.5 11.5 -37.5 q0 -22 -19 -22 q-85 0 -307 -13 q0 -231 3 -337 q0 -16 -24 -16 Z" /><glyph glyph-name="G" unicode="G" d="M371 -23 q-200 0 -279 133 q-42 70 -42 170 q0 187 101 310 q104 129 261 129 q156 0 225 -87 q6 -6 6 -19 q0 -14 -14.5 -32.5 q-14.5 -18.5 -27.5 -18.5 q-14 0 -20 9 q-13 21 -40 40 q-49 34 -120 34 q-129 0 -209 -102 q-80 -102 -80 -248 q0 -173 110 -219 q54 -24 124 -24 q68 0 123 32 q55 32 89 90 q32 57 33 131 q-141 -10 -188 -16 q-18 0 -31.5 20.5 q-13.5 20.5 -13.5 37.5 q0 20 18 20 q58 0 146 5 q69 5 78.5 6.5 q9.5 1.5 17.5 1.5 q10 0 24 -10 q33 -25 33 -44 q0 -9 -4.5 -14 q-4.5 -5 -4.5 -14 q0 -206 2 -291 q0 -19 -26 -19 q-21 0 -40.5 7.5 q-19.5 7.5 -19.5 21.5 q5 53 5 82 q-33 -69 -142 -106 q-48 -16 -94 -16 Z" /><glyph glyph-name="H" unicode="H" d="M161 -17 q-20 0 -41.5 8.5 q-21.5 8.5 -21.5 25.5 q2 89 2 315 l2 1 l-3 0 q-18 0 -28.5 21 q-10.5 21 -10.5 38 q0 22 17 22 l23 -1 q0 176 -3 282 q0 16 25 16 q20 0 41 -8.5 q21 -8.5 21 -25.5 q-2 -89 -2 -264 q304 18 333 23 q21 0 21 3 q0 148 -3 256 q0 16 25 16 q20 0 41 -8.5 q21 -8.5 21 -25.5 l-2 -89 q0 -482 3 -588 q0 -16 -24 -16 q-20 0 -41.5 8.5 q-21.5 8.5 -21.5 25.5 q2 89 2 337 l-80 3 l-274 -16 q0 -237 3 -343 q0 -16 -24 -16 Z" /><glyph glyph-name="I" unicode="I" d="M173 -16 q-21 0 -43.5 8.5 q-22.5 8.5 -22.5 25.5 l2 89 q0 482 -3 588 q0 16 26 16 q20 0 42.5 -8.5 q22.5 -8.5 22.5 -25.5 l-2 -89 q0 -482 3 -588 q0 -16 -25 -16 Z" /><glyph glyph-name="J" unicode="J" d="M206 -23 q-93 0 -150 63 q-46 49 -46 85 q0 12 10 25 q10 13 23.5 21 q13.5 8 25.5 8 q15 0 18 -16 q24 -108 117 -108 q103 0 103 125 q0 409 -3 515 q0 16 25 16 q20 0 41.5 -8.5 q21.5 -8.5 21.5 -25.5 q-2 -89 -2 -500 q0 -200 -184 -200 Z" /><glyph glyph-name="K" unicode="K" d="M161 -17 q-20 0 -41.5 8.5 q-21.5 8.5 -21.5 25.5 l2 95 q0 477 -3 583 q0 16 25 16 q20 0 41 -8.5 q21 -8.5 21 -25.5 q-2 -89 -2 -253 q103 81 198 171 q95 90 105 102.5 q10 12.5 28 12.5 q17 0 40 -12.5 q23 -12.5 23 -27.5 q0 -8 -10.5 -17 q-10.5 -9 -30.5 -25 q-20 -16 -83.5 -74 q-63.5 -58 -178.5 -150 q-5 0 -5 -4 q0 -7 58 -71 q187 -206 296 -297 q6 -5 6 -12 q0 -14 -22.5 -24.5 q-22.5 -10.5 -46.5 -10.5 q-26 0 -35 14 q-17 22 -39 46 q-182 190 -280 304 l-23 -19 q0 -219 3 -331 q0 -16 -24 -16 Z" /><glyph glyph-name="L" unicode="L" d="M143 -15 q-24 0 -42 31 q-8 12 -8 21 q0 8 3.5 15 q3.5 7 3.5 18 q0 519 -3 625 q0 16 25 16 q20 0 42 -8.5 q22 -8.5 22 -25.5 q-2 -89 -2 -612 q72 5 218 5 q80 0 93 1 q18 0 28.5 -21.5 q10.5 -21.5 10.5 -38.5 q0 -22 -18 -22 q-39 6 -123 6 q-212 0 -250 -10 Z" /><glyph glyph-name="M" unicode="M" d="M77 -13 q-41 0 -41 24 q20 64 44.5 269 q24.5 205 29 253.5 q4.5 48.5 7.5 76.5 q3 28 3 29 l-1 24 q0 25 23 35.5 q23 10.5 41 10.5 q18 0 25.5 -6 q7.5 -6 25.5 -51 q123 -321 182 -451 q104 252 210 475 q7 14 13.5 28 q6.5 14 24.5 14 q15 0 32 -6 q46 -16 46 -35 q-5 -42 -5 -49 q26 -247 65 -527 q5 -40 19 -80 l1 -5 q0 -15 -18.5 -21.5 q-18.5 -6.5 -34.5 -6.5 q-41 0 -44 23 q-2 50 -13 147 q-26 233 -45 424 q-128 -264 -189 -423 q-12 -30 -12.5 -41 q-0.5 -11 -20 -20 q-19.5 -9 -34.5 -9 q-35 0 -40 19 q-13 43 -27.5 74.5 q-14.5 31.5 -76.5 185.5 q-62 154 -78 199 q-17 -195 -36 -348.5 q-19 -153.5 -20 -170 q-1 -16.5 -3 -37.5 q-3 -24 -53 -24 Z" /><glyph glyph-name="N" unicode="N" d="M586 -19 q-25 0 -35.5 15.5 q-10.5 15.5 -35.5 51.5 q-192 270 -334 509 q0 -452 3 -558 q0 -16 -24 -16 q-19 0 -40.5 8.5 q-21.5 8.5 -21.5 25.5 q2 89 2 623 l-7 37 q0 19 25 28 q25 9 37 9 q10 0 18 -1.5 q8 -1.5 14 -11.5 q25 -46 142.5 -234 q117.5 -188 230.5 -344 l0 466 l-4 106 q0 16 25 16 q20 0 41 -8.5 q21 -8.5 21 -25.5 q-2 -89 -2 -590 l4 -55 q0 -12 -11 -24 q-24 -27 -48 -27 Z" /><glyph glyph-name="O" unicode="O" d="M354 52 q141 0 206 96 q59 88 59 223 q0 110 -58 193 q-58 83 -162 83 q-42 0 -89.5 -19.5 q-47.5 -19.5 -88.5 -58.5 q-41 -39 -67 -96.5 q-26 -57.5 -26 -134.5 q0 -78 24.5 -143 q24.5 -65 75 -104 q50.5 -39 126.5 -39 ZM366 -24 q-109 0 -180 47.5 q-71 47.5 -105 129 q-34 81.5 -34 167.5 q0 85 16.5 144 q16.5 59 41 104 q24.5 45 49.5 70.5 q25 25.5 44 25.5 q18 0 26 -9 q73 64 173 64 q100 0 166.5 -46.5 q66.5 -46.5 102 -127 q35.5 -80.5 35.5 -170.5 q0 -177 -80 -284 q-89 -115 -255 -115 Z" /><glyph glyph-name="P" unicode="P" d="M189 372 q165 11 236.5 59 q71.5 48 71.5 110 q0 101 -179 101 q-70 0 -136 -19 l0 -250 q0 -1 7 -1 ZM161 -17 q-20 0 -41.5 8.5 q-21.5 8.5 -21.5 25.5 q2 99 2 595 q-13 0 -29.5 20 q-16.5 20 -16.5 34 q0 16 14 18 q166 32 195.5 32.5 q29.5 0.5 56.5 0.5 q261 0 261 -175 q0 -86 -57 -139 q-95 -89 -309 -89 q-30 0 -33 1 q0 -200 3 -316 q0 -16 -24 -16 Z" /><glyph glyph-name="Q" unicode="Q" d="M358 51 q49 0 81 10 q-93 85 -102 88.5 q-9 3.5 -13 16.5 q0 19 39 36 q15 6 27 6 q21 -3 29 -12 q19 -27 93 -101 q105 72 105 276 q0 110 -54 190 q-58 87 -164 87 q-97 0 -181 -82 q-89 -88 -89 -227 q0 -79 23.5 -144.5 q23.5 -65.5 74 -104.5 q50.5 -39 131.5 -39 ZM666 -77 q-36 0 -59.5 7 q-23.5 7 -46.5 24.5 q-23 17.5 -56 47.5 q-58 -26 -138 -26 q-109 0 -180 47.5 q-71 47.5 -105 129 q-34 81.5 -34 167.5 q0 85 16.5 144 q16.5 59 41 104 q24.5 45 49.5 70.5 q25 25.5 44 25.5 q18 0 26 -9 q73 64 173 64 q99 0 165.5 -46.5 q66.5 -46.5 102.5 -127 q36 -80.5 36 -181.5 q0 -102 -34 -189.5 q-34 -87.5 -100 -135.5 q50 -49 85 -62 q55 -23 55 -39 q0 -15 -41 -15 Z" /><glyph glyph-name="R" unicode="R" d="M180 387 q5 7 21 7 q140 0 202 37 q34 21 54.5 49.5 q20.5 28.5 20.5 56.5 q0 47 -40 76.5 q-40 29.5 -123 29.5 q-85 0 -135 -17 l0 -239 ZM612 -19 q-76 0 -129 42.5 q-53 42.5 -140 140.5 l-68 77 q-67 74 -95 85 q0 -211 3 -327 q0 -16 -24 -16 q-19 0 -40 8.5 q-21 8.5 -21 25.5 l2 99 l0 494 q-18 0 -39 35 q-8 13 -8 24 q0 13 13 15 q20 4 46 7 q26 3 73.5 13.5 q47.5 10.5 137.5 10.5 q89 0 139.5 -25.5 q50.5 -25.5 74 -65.5 q23.5 -40 23.5 -89 q0 -99 -112 -162 q-70 -40 -162 -40 q21 -21 64 -69 q190 -213 249 -233 q47 -20 47 -35 q0 -15 -34 -15 Z" /><glyph glyph-name="S" unicode="S" d="M300 -24 q-159 0 -257 111 q-7 7 -7 23 q0 16 14.5 35.5 q14.5 19.5 28.5 19.5 q13 0 19 -10 q64 -104 204 -104 q48 0 89 18 q41 18 66.5 48 q25.5 30 25.5 67 q0 62 -33.5 97 q-33.5 35 -100.5 52 l-116 31 q-75 17 -119.5 54.5 q-44.5 37.5 -44.5 107.5 q0 50 32 94.5 q32 44.5 87.5 71.5 q55.5 27 119.5 27 q63 0 112 -17 q49 -17 80 -41 q31 -24 31 -49 q0 -24 -10.5 -40.5 q-10.5 -16.5 -20.5 -16.5 q-10 0 -17.5 7.5 q-7.5 7.5 -13.5 13.5 q-33 42 -101 60 q-29 8 -63 8 q-35 0 -72.5 -18 q-37.5 -18 -59 -45 q-21.5 -27 -21.5 -58 q0 -62 110 -87 l109 -28 q195 -50 195 -216 q0 -60 -31.5 -109.5 q-31.5 -49.5 -90.5 -78 q-59 -28.5 -144 -28.5 Z" /><glyph glyph-name="T" unicode="T" d="M307 -17 q-21 0 -42.5 9 q-21.5 9 -21.5 26 l2 89 l1 519 q-149 -9 -168 -11 q-23 -4 -35 -5 q-18 0 -29 20 q-11 20 -11 39 q0 22 19 22 l71 -2 q401 22 438 27 q18 0 28 -20.5 q10 -20.5 10 -37.5 q0 -23 -18 -23 l-80 3 l-143 -8 q1 -524 4 -630 q0 -17 -25 -17 Z" /><glyph glyph-name="U" unicode="U" d="M342 -24 q-242 0 -242 222 q0 388 -3 497 q0 18 27 18 q22 0 42 -8 q20 -8 20 -25 q-2 -96 -2 -470 q0 -88 40.5 -123.5 q40.5 -35.5 117.5 -35.5 q54 0 96 24.5 q42 24.5 65.5 68 q23.5 43.5 23.5 98.5 q0 353 -3 455 q0 18 27 18 q22 0 42 -8 q20 -8 20 -25 q-2 -88 -2 -452 q0 -76 -34 -133.5 q-34 -57.5 -94.5 -89 q-60.5 -31.5 -140.5 -31.5 Z" /><glyph glyph-name="V" unicode="V" d="M318 -23 q-18 0 -37.5 17 q-19.5 17 -35 62 q-15.5 45 -41.5 118 q-143 397 -198 508 l-1 5 q0 23 43 23 q49 0 54.5 -23.5 q5.5 -23.5 51 -138.5 q45.5 -115 150.5 -431 q122 325 168 438 q46 113 55 147 q4 15 26 15 q18 0 40 -13.5 q22 -13.5 22 -30.5 q0 -7 -12.5 -27.5 q-12.5 -20.5 -23.5 -47.5 q-212 -502 -229 -593 q-4 -28 -32 -28 Z" /><glyph glyph-name="W" unicode="W" d="M640 -24 q-23 0 -43.5 17.5 q-20.5 17.5 -29.5 51.5 q-77 332 -128 515 q-28 -90 -71.5 -246.5 q-43.5 -156.5 -57 -204 q-13.5 -47.5 -17.5 -65.5 q-4 -18 -12.5 -42.5 q-8.5 -24.5 -30.5 -24.5 q-21 0 -40.5 17.5 q-19.5 17.5 -28.5 50.5 q-125 515 -176 636 q-2 4 -2 8 q0 22 46 22 q44 0 50 -25.5 q6 -25.5 13 -51.5 q64 -218 124 -507 q29 120 67 249 q38 129 58.5 199 q20.5 70 21.5 95.5 q1 25.5 44 25.5 q19 0 38.5 -7 q19.5 -7 21.5 -20.5 q2 -13.5 12.5 -47.5 q10.5 -34 54 -199.5 q43.5 -165.5 72.5 -297.5 q75 275 111.5 394.5 q36.5 119.5 52.5 184.5 q5 14 23 14 q14 0 29 -5 q38 -16 38 -39 q0 -4 -6 -19 q-49 -115 -185 -577 l-17 -71 q-7 -30 -32 -30 Z" /><glyph glyph-name="X" unicode="X" d="M539 -19 q-20 0 -30 13 q-10 13 -26 38 q-16 25 -58 84.5 q-42 59.5 -125 184.5 q-133 -194 -159 -233.5 q-26 -39.5 -33 -50 q-7 -10.5 -14.5 -22 q-7.5 -11.5 -30.5 -11.5 q-21 0 -40.5 8.5 q-19.5 8.5 -19.5 22.5 q0 5 6 14 q56 64 102 133 q46 69 143 207 q-146 223 -205 290 q-10 11 -10 18 q0 17 22.5 27 q22.5 10 40.5 10 q20 0 27 -11 q25 -47 87 -138 q62 -91 91 -135 q145 203 188 268 q7 8 23 8 q15 0 35 -13 q20 -13 20 -24 q0 -11 -16 -27 q-43 -44 -207 -281 q111 -167 154 -223 q43 -56 90 -106 q6 -6 6 -13 q0 -15 -21.5 -26.5 q-21.5 -11.5 -39.5 -11.5 Z" /><glyph glyph-name="Y" unicode="Y" d="M314 -15 q-20 0 -42 8.5 q-22 8.5 -22 25.5 l2 89 l0 182 q-95 173 -205 333 q-21 29 -29.5 40 q-8.5 11 -8.5 16 q0 15 21 21.5 q21 6.5 41 6.5 q22 0 28 -9 q8 -13 17 -30.5 q9 -17.5 33.5 -57.5 q24.5 -40 67 -108.5 q42.5 -68.5 77.5 -129.5 q84 136 137.5 221 q53.5 85 66.5 109 q8 13 29 13 q19 0 40 -9.5 q21 -9.5 21 -23.5 l-3 -7 q-75 -91 -220 -333 l-29 -50 q0 -185 3 -291 q0 -16 -25 -16 Z" /><glyph glyph-name="Z" unicode="Z" d="M68 -13 q-14 0 -30 18.5 q-16 18.5 -16 31.5 q0 12 2.5 19 q2.5 7 15.5 18.5 q13 11.5 17 16.5 q177 276 381 539 l-283 -20 l-31 -4 q-14 0 -30.5 18.5 q-16.5 18.5 -16.5 39.5 q0 25 16 25 q44 -4 63 -4 q18 0 162 10 q144 10 166.5 13 q22.5 3 36.5 3 q17 0 32 -21 q15 -21 15 -35 q0 -17 -11 -22 q-16 -5 -35 -27 q-194 -237 -383 -537 q61 5 235 5 l128 -1 q22 0 37 1 q18 0 28.5 -21 q10.5 -21 10.5 -38 q0 -22 -18 -22 q-38 4 -103 6 l-165 0 q-179 0 -204 -9 q-9 -3 -20 -3 Z" /><glyph glyph-name="bracketleft" unicode="[" d="M191 -157 q-17 0 -29.5 15 q-12.5 15 -12.5 28 q3 63 3 792 l-5 59 q0 17 10.5 25 q10.5 8 38.5 8 l104 2 q17 0 26.5 -14.5 q9.5 -14.5 9.5 -31.5 q0 -21 -21 -21 l-90 0 l0 -794 l78 3 q11 0 20.5 -15 q9.5 -15 9.5 -31 q0 -21 -20 -21 l-87 0 q-15 0 -35 -4 Z" /><glyph glyph-name="backslash" unicode="\" d="M297 -48 q-17 0 -24 20 q-8 27 -25 73 q-223 613 -236 640 q-9 20 -9 27 q0 7 8.5 17.5 q8.5 10.5 20.5 19 q12 8.5 23 8.5 q14 0 20.5 -26 q6.5 -26 21.5 -69 q224 -618 234.5 -637.5 q10.5 -19.5 10.5 -32.5 q0 -14 -15 -27 q-15 -13 -30 -13 Z" /><glyph glyph-name="bracketright" unicode="]" d="M50 -156 q-17 0 -26.5 14.5 q-9.5 14.5 -9.5 31.5 q0 21 21 21 l90 0 l0 794 l-77 -3 q-12 0 -21.5 15 q-9.5 15 -9.5 32 q0 20 20 20 l87 0 q15 0 35 4 q18 0 30 -15 q12 -15 12 -28 q-3 -63 -3 -792 l5 -59 q0 -33 -49 -33 q-98 -1 -104 -2 Z" /><glyph glyph-name="asciicircum" unicode="^" d="M125 266 q-16 0 -35 8.5 q-19 8.5 -19 22.5 q0 4 6 16 q14 23 178 363 q5 12 7 24 q4 23 50 23 q14 0 20 -11.5 q6 -11.5 91 -186.5 q92 -191 102.5 -211 q10.5 -20 10.5 -23 q0 -23 -52 -23 q-25 0 -31 16 q-12 42 -20 59 l-130 273 l-130 -273 q-13 -30 -24 -65 q-5 -12 -24 -12 Z" /><glyph glyph-name="underscore" unicode="_&#x332;" d="M495 -168 l-490 0 q-25 0 -25 37 q0 36 25 36 l490 0 q25 0 25 -36 q0 -37 -25 -37 Z" /><glyph glyph-name="grave" unicode="`&#x2cb;&#x300;" d="M257.5 571.5 q-11.5 -13.5 -25.5 -13.5 q-14 0 -23 9 l-120 103 q-10 9 -10 24 q0 15 17 29.5 q17 14.5 34 14.5 q18 0 27 -11 l103 -106 q9 -9 9 -22 q0 -14 -11.5 -27.5 Z" /><glyph glyph-name="a" unicode="a" d="M220 48 q42 0 83 31 q102 74 102 251 l1 35 l-9 0 q-9 0 -14 7 q-29 50 -85 50 q-57 0 -112.5 -70 q-55.5 -70 -55.5 -172 q0 -132 90 -132 ZM217 -24 q-76 0 -121.5 51.5 q-45.5 51.5 -45.5 147.5 q0 127 78 222 q78 95 175 95 q82 0 104 -46 l0 29 q0 16 25 16 q20 0 41.5 -8 q21.5 -8 21.5 -25 q-13 -90 -13 -263 q0 -103 34 -157 q3 -6 3 -13 q0 -9 -15 -26.5 q-15 -17.5 -34 -17.5 q-46 0 -59 117 q-28 -54 -82 -88 q-54 -34 -112 -34 Z" /><glyph glyph-name="b" unicode="b" d="M194 84 q25 -37 81 -37 q56 0 112 62 q56 62 56 163 q0 148 -105 148 q-32 0 -68.5 -21.5 q-36.5 -21.5 -67.5 -66.5 q-31 -45 -37 -123 q-3 -42 -3 -98 l-1 -1 q0 -1 2 -1 q14 0 31 -25 ZM272 -23 q-41 0 -72.5 18 q-31.5 18 -41.5 32 l0 3 l-1 -9 q-2 -9 -18.5 -20.5 q-16.5 -11.5 -31.5 -11.5 q-23 0 -23 26 l2 91 q0 487 -3 593 q0 16 24 16 q19 0 40 -8.5 q21 -8.5 21 -25.5 l-4 -89 l0 -201 q30 51 78 76 q48 25 104 25 q78 0 127.5 -55 q49.5 -55 49.5 -150 q0 -94 -33.5 -162.5 q-33.5 -68.5 -90.5 -108 q-57 -39.5 -127 -39.5 Z" /><glyph glyph-name="c" unicode="c" d="M250 -24 q-54 0 -99.5 25.5 q-45.5 25.5 -73 74 q-27.5 48.5 -27.5 114.5 q0 65 23 119 q23 54 60.5 95 q37.5 41 85 64.5 q47.5 23.5 92.5 23.5 q44 0 73 -12 q29 -12 46.5 -28.5 q17.5 -16.5 25.5 -31 q8 -14.5 8 -19.5 q0 -18 -17 -35 q-17 -17 -28 -17 q-12 0 -17 8 q-19 38 -30 45 q-28 19 -57 19 q-61 0 -123 -65 q-62 -70 -62 -157 q0 -50 19 -84 q38 -69 108 -69 q94 0 192 98 q17 17 28 17 q15 0 15 -15 q0 -11 -14.5 -37.5 q-14.5 -26.5 -44.5 -56.5 q-73 -76 -183 -76 Z" /><glyph glyph-name="d" unicode="d" d="M214 48 q69 0 133 69 q64 69 64 159 l0 91 l1 2 q0 2 -4 2 q-9 0 -15 7 q-31 44 -93 44 q-29 0 -61 -19.5 q-32 -19.5 -56 -53.5 q-53 -75 -53 -153 q0 -78 25 -113 q25 -35 59 -35 ZM213 -24 q-69 0 -116 55 q-47 55 -47 155 q0 120 77.5 213 q77.5 93 177.5 93 q79 0 106 -39 q0 140 -4 246 q0 16 24 16 q19 0 39.5 -8.5 q20.5 -8.5 20.5 -25.5 q-2 -89 -2 -496 q0 -42 9 -82.5 q9 -40.5 24 -60.5 q3 -6 3 -14 q0 -10 -15.5 -28 q-15.5 -18 -32.5 -18 q-28 0 -45.5 54 q-17.5 54 -17.5 60 q-72 -120 -201 -120 Z" /><glyph glyph-name="e" unicode="e" d="M155 258 q111 0 205 26 q34 10 43.5 21.5 q9.5 11.5 9.5 35.5 q0 81 -95 81 q-66 0 -114.5 -56 q-48.5 -56 -60.5 -108 l12 0 ZM244 -24 q-53 0 -96 26 q-92 57 -92 204 q-21 16 -21 35 q0 19 25 19 l4 0 q14 77 86.5 154.5 q72.5 77.5 168.5 77.5 q64 0 102 -23 q70 -41 70 -129 q0 -35 -6 -56.5 q-6 -21.5 -27 -34.5 q-21 -13 -67 -28 q-101 -31 -258 -31 q0 -67 32 -105 q32 -38 86 -38 q123 0 200 82 q14 17 27 17 q16 0 16 -16 q0 -13 -15 -37 q-15 -24 -46 -51 q-75 -66 -189 -66 Z" /><glyph glyph-name="f" unicode="f" d="M180 -17 q-19 0 -40 8.5 q-21 8.5 -21 25.5 l2 99 l0 301 l-71 -4 q-16 0 -27.5 17 q-11.5 17 -11.5 33 q0 19 18 19 q74 0 92 1 l0 106 q0 79 64 110 q30 15 64 15 q34 0 59.5 -11.5 q25.5 -11.5 39 -27.5 q13.5 -16 13.5 -31 q0 -15 -11.5 -32.5 q-11.5 -17.5 -23.5 -17.5 q-13 0 -22 14 q-18 33 -60 33 q-17 0 -30 -13 q-13 -13 -13 -43 l0 -100 q4 0 15.5 1 q11.5 1 29 2 q17.5 1 33.5 2.5 q16 1.5 24 1.5 q16 0 27 -17 q11 -17 11 -33 q0 -20 -18 -20 q-64 0 -122 -2 q0 -315 3 -421 q0 -16 -24 -16 Z" /><glyph glyph-name="g" unicode="g" d="M222 73 q88 0 150 69 q43 48 46 121 q1 27 1 109 q0 1 -12 1 q-12 0 -19 8 q-29 40 -94 40 q-30 0 -60.5 -18 q-30.5 -18 -52.5 -49 q-50 -65 -50 -142 q0 -139 91 -139 ZM242 -181 q-70 0 -112.5 24.5 q-42.5 24.5 -70.5 68.5 q-4 6 -4 18 q0 11 17 29.5 q17 18.5 32 18.5 q15 0 21 -14 q17 -39 43 -55.5 q26 -16.5 76 -16.5 q50 0 89 19.5 q39 19.5 62 55 q23 35.5 23 84.5 l0 46 q-59 -96 -188 -96 q-82 0 -130.5 54 q-48.5 54 -48.5 158 q0 104 74 191.5 q74 87.5 170 87.5 q96 0 123 -45 l-2 28 q0 16 24 16 q18 0 38.5 -8.5 q20.5 -8.5 20.5 -25.5 q-4 -76 -4 -99 l0 -308 q0 -75 -35 -126.5 q-35 -51.5 -92 -78 q-57 -26.5 -126 -26.5 Z" /><glyph glyph-name="h" unicode="h" d="M482 -17 q-19 0 -39.5 8.5 q-20.5 8.5 -20.5 25.5 q2 17 2 276 q0 58 -15 91 q-15 33 -61 33 q-179 0 -182 -255 l-2 -65 q0 -38 3 -98 q0 -16 -23 -16 q-19 0 -39.5 8.5 q-20.5 8.5 -20.5 25.5 l2 98 q0 475 -3 582 q0 16 24 16 q18 0 38.5 -8.5 q20.5 -8.5 20.5 -25.5 q-2 -99 -2 -281 q22 35 74.5 64 q52.5 29 105.5 29 q96 0 131 -66 q27 -47 27 -128 q0 -192 3 -298 q0 -16 -23 -16 Z" /><glyph glyph-name="i" unicode="i" d="M152 -16 q-19 0 -41 8.5 q-22 8.5 -22 24.5 l2 88 q0 263 -3 370 q0 15 24 15 q19 0 40.5 -8.5 q21.5 -8.5 21.5 -24.5 l-2 -89 q0 -263 3 -369 q0 -15 -23 -15 ZM171.5 599.5 q-14.5 -15.5 -38.5 -15.5 q-24 0 -41 21.5 q-17 21.5 -17 44.5 q0 22 14 38 q14 16 39 16 q24 0 41 -22 q17 -22 17 -44 q0 -23 -14.5 -38.5 Z" /><glyph glyph-name="j" unicode="j" d="M172 -145 q-24 -23 -70 -23 q-46 0 -76.5 16.5 q-30.5 16.5 -30.5 37.5 q0 18 11.5 36 q11.5 18 25.5 18 q14 0 27.5 -17 q13.5 -17 44.5 -17 q29 0 29 63 q0 395 -3 506 q0 16 24 16 q19 0 40 -8.5 q21 -8.5 21 -25.5 q-2 -93 -2 -487 q0 -78 -41 -115 ZM214.5 599.5 q-14.5 -15.5 -38.5 -15.5 q-24 0 -41 21.5 q-17 21.5 -17 44.5 q0 22 14 38 q14 16 39 16 q24 0 41 -22 q17 -22 17 -44 q0 -23 -14.5 -38.5 Z" /><glyph glyph-name="k" unicode="k" d="M504 3 q-26 -23 -50 -23 q-24 0 -146 135 q-81 90 -127 135 l-17 -10 l0 -134 l5 -106 q0 -16 -24 -16 q-19 0 -40 8.5 q-21 8.5 -21 25.5 l2 88 q0 484 -3 591 q0 16 24 16 q19 0 40 -8.5 q21 -8.5 21 -25.5 l-4 -89 l0 -265 l179 124 q15 11 39 34 q5 7 20 7 q13 0 28 -5 q38 -14 38 -33 q0 -9 -34.5 -29 q-34.5 -20 -193.5 -131 q24 -23 62.5 -64 q38.5 -41 78.5 -82 q40 -41 71 -73 q29 -26 55 -37 q9 -4 9 -14 q0 -9 -12 -19 Z" /><glyph glyph-name="l" unicode="l" d="M176 -27 q-83 0 -85 102 q0 515 -3 622 q0 16 25 16 q19 0 40 -8.5 q21 -8.5 21 -25.5 q-2 -89 -2 -601 q0 -25 3 -28.5 q3 -3.5 9 -3.5 q19 1 44 26 q14 13 26 13 q15 0 15 -22 q0 -18 -28 -54 q-32 -36 -65 -36 Z" /><glyph glyph-name="m" unicode="m" d="M709 -17 q-19 0 -40 8.5 q-21 8.5 -21 25.5 l4 88 l0 188 q0 127 -78 127 q-28 0 -58.5 -21 q-30.5 -21 -51 -56 q-20.5 -35 -20.5 -75 l0 -163 l5 -106 q0 -16 -24 -16 q-19 0 -39.5 8.5 q-20.5 8.5 -20.5 25.5 l4 88 l0 188 q0 127 -68 127 q-49 0 -86 -44 q-46 -56 -49 -166 l-3 -105 l5 -106 q0 -16 -24 -16 q-19 0 -40 8.5 q-21 8.5 -21 25.5 l2 88 q0 251 -3 367 q0 16 24 16 q19 0 40 -8.5 q21 -8.5 21 -24.5 l-1 -31 q9 18 49 43 q40 25 92 25 q52 0 82.5 -29.5 q30.5 -29.5 36.5 -53.5 q20 34 63 58.5 q43 24.5 93 24.5 q49 0 83 -29 q65 -55 65 -166 q0 -192 3 -298 q0 -16 -24 -16 Z" /><glyph glyph-name="n" unicode="n" d="M482 -17 q-19 0 -39.5 8.5 q-20.5 8.5 -20.5 25.5 q2 17 2 276 q0 58 -15 91 q-15 33 -61 33 q-179 0 -182 -255 l-2 -65 q0 -38 3 -98 q0 -16 -23 -16 q-19 0 -39.5 8.5 q-20.5 8.5 -20.5 25.5 l2 98 q0 249 -3 356 q0 16 24 16 q18 0 38.5 -8.5 q20.5 -8.5 20.5 -25.5 l0 -14 q-2 -28 -2 -41 q22 35 74.5 64 q52.5 29 105.5 29 q96 0 131 -66 q27 -47 27 -128 q0 -192 3 -298 q0 -16 -23 -16 Z" /><glyph glyph-name="o" unicode="o" d="M267 49 q47 0 84 25.5 q37 25.5 59.5 70 q22.5 44.5 22.5 113.5 q0 68 -31 115 q-31 47 -101 47 q-70 0 -121 -66.5 q-51 -66.5 -51 -145.5 q0 -159 138 -159 ZM273 -24 q-109 0 -166 62.5 q-57 62.5 -57 168.5 q0 82 51 170 q20 37 41 60 q21 23 35 23 q13 0 18 -7 q52 39 114 39 q62 0 107 -30 q96 -63 96 -217 q0 -104 -63 -183 q-68 -86 -176 -86 Z" /><glyph glyph-name="p" unicode="p" d="M195 84 q25 -37 81 -37 q56 0 112 62 q56 62 56 163 q0 99 -51 133 q-22 15 -54 15 q-32 0 -68.5 -21.5 q-36.5 -21.5 -67.5 -66.5 q-31 -45 -37 -123 q-3 -42 -3 -98 l-1 -1 q0 -1 2 -1 q14 0 31 -25 ZM145 -178 q-19 0 -40 8.5 q-21 8.5 -21 25.5 l2 89 q0 476 -3 527 q0 16 24 16 q19 0 40.5 -8.5 q21.5 -8.5 21.5 -25.5 l-3 -61 q29 49 77 74 q48 25 104 25 q78 0 127.5 -55 q49.5 -55 49.5 -150 q0 -94 -32 -162.5 q-32 -68.5 -87.5 -108 q-55.5 -39.5 -125.5 -39.5 q-36 0 -72.5 17.5 q-36.5 17.5 -42.5 25.5 l0 -76 l5 -106 q0 -16 -24 -16 Z" /><glyph glyph-name="q" unicode="q" d="M213 48 q69 0 133 69 q64 69 64 159 l0 91 l1 2 q0 2 -4 2 q-9 0 -15 7 q-31 44 -92 44 q-30 0 -62 -19.5 q-32 -19.5 -56 -53.5 q-53 -75 -53 -153 q0 -78 25 -113 q25 -35 59 -35 ZM469 -182 q-19 0 -40 8.5 q-21 8.5 -21 25.5 q4 89 5 237 q-62 -113 -201 -113 q-69 0 -116 55 q-47 55 -47 155 q0 120 77.5 213 q77.5 93 177.5 93 q39 0 70.5 -15 q31.5 -15 35.5 -21 l-2 19 q0 16 24 16 q19 0 39.5 -8.5 q20.5 -8.5 20.5 -25.5 l-2 -89 q0 -428 3 -534 q0 -16 -24 -16 Z" /><glyph glyph-name="r" unicode="r" d="M147 -16 q-19 0 -40 8.5 q-21 8.5 -21 25.5 l2 88 q0 261 -3 368 q0 16 24 16 q19 0 40 -8.5 q21 -8.5 21 -23.5 q0 -22 -1 -30 q11 16 46 39 q38 25 81 25 q42 0 69 -10.5 q27 -10.5 45 -25.5 q18 -15 18 -32 q0 -16 -13 -36 q-13 -20 -26 -20 q-14 0 -22 13 q-9 17 -29 25.5 q-20 8.5 -34 8.5 q-40 0 -74 -25 q-50 -36 -60 -125 q-4 -35 -4 -159 l5 -106 q0 -16 -24 -16 Z" /><glyph glyph-name="s" unicode="s" d="M261 -24 q-104 0 -163 48 q-45 38 -45 66 q0 12 16 30.5 q16 18.5 28 18.5 q13 0 18 -11 q7 -19 22 -38 q31 -44 123 -44 q59 0 89.5 24.5 q30.5 24.5 30.5 56.5 q0 32 -16.5 52.5 q-16.5 20.5 -68 32.5 q-51.5 12 -101.5 24 q-117 27 -117 120 q0 41 26 72 q55 64 161 64 q106 0 166 -65 q4 -4 4 -16 q0 -12 -12 -30 q-12 -18 -23 -18 q-12 0 -24 16 q-30 46 -109 46 q-56 0 -84 -21 q-28 -21 -28 -44 q0 -24 12 -36.5 q12 -12.5 51 -21.5 l96 -23 q145 -34 145 -151 q0 -42 -24.5 -76.5 q-24.5 -34.5 -69 -55 q-44.5 -20.5 -103.5 -20.5 Z" /><glyph glyph-name="t" unicode="t" d="M204 -24 q-97 0 -97 134 l0 308 l-60 -4 q-17 0 -27.5 17 q-10.5 17 -10.5 33 q0 19 17 19 l81 0 q0 73 -2 152 q0 16 24 16 q19 0 39.5 -8.5 q20.5 -8.5 20.5 -25.5 q-2 -65 -2 -131 q46 2 98 7 q17 0 28 -17 q11 -17 11 -33 q0 -20 -17 -20 q-48 0 -120 -2 l0 -313 q0 -38 5.5 -47 q5.5 -9 21.5 -9 q40 0 92 40 q19 14 31 14 q16 0 16 -16 q0 -24 -47 -68 q-52 -46 -102 -46 Z" /><glyph glyph-name="u" unicode="u" d="M358 15.5 q-52 -39.5 -114 -39.5 q-62 0 -96 28 q-62 51 -62 167 q0 197 -3 303 q0 16 24 16 q19 0 40 -8.5 q21 -8.5 21 -25.5 q-2 -88 -2 -281 q0 -56 20 -91.5 q20 -35.5 57 -35.5 q38 0 77 32 q39 32 69.5 94 q30.5 62 30.5 168 l0 133 q0 16 25 16 q20 0 40.5 -8 q20.5 -8 20.5 -25 q-12 -73 -12 -217 q0 -142 37 -203 q2 -4 2 -12 q0 -10 -15 -27.5 q-15 -17.5 -33 -17.5 q-30 0 -43 46.5 q-13 46.5 -14 64.5 q-18 -37 -70 -76.5 Z" /><glyph glyph-name="v" unicode="v" d="M279 3 q-9 -27 -32 -27 q-23 0 -40 21 q-9 9 -12.5 18.5 q-3.5 9.5 -74.5 199 q-71 189.5 -84 217 q-13 27.5 -13 31.5 q0 24 57 24 q29 0 33 -18 q10 -42 18 -62 l107 -300 l124 300 q12 29 23 71 q5 14 26 14 q18 0 39 -9.5 q21 -9.5 21 -25.5 q0 -3 -14 -30 q-14 -27 -88 -204 q-77 -181 -90 -220 Z" /><glyph glyph-name="w" unicode="w" d="M515 -24 q-14 0 -29 7 q-29 12 -33 37 q-1 9 -92 327 q-103 -303 -106 -315.5 q-3 -12.5 -10 -34 q-7 -21.5 -35 -21.5 q-28 0 -47 22 q-8 8 -11 19 l-110 380 q-23 62 -23 65 q0 22 41 22 q49 0 51 -26 q2 -10 4 -23.5 q2 -13.5 86 -330.5 q106 305 107.5 321 q1.5 16 3.5 27 q3 22 30 22 q23 0 45.5 -8 q22.5 -8 24.5 -19.5 q2 -11.5 3 -22 q1 -10.5 93 -320.5 l101 304 q5 14 17 67 q4 16 27 16 q19 0 38.5 -8.5 q19.5 -8.5 19.5 -23.5 q0 -4 -5.5 -16.5 q-5.5 -12.5 -22.5 -57.5 q-116 -330 -121 -347.5 q-5 -17.5 -10 -32.5 q-8 -29 -37 -29 Z" /><glyph glyph-name="x" unicode="x" d="M87 -18 q-20 0 -39.5 7.5 q-19.5 7.5 -19.5 20.5 q0 5 13 18 q13 13 55 66 l111 150 l-105 144 q-25 35 -40.5 49 q-15.5 14 -15.5 20 q0 12 21.5 20.5 q21.5 8.5 39.5 8.5 q19 0 26 -11 q15 -27 30 -47 l89 -123 q102 140 110 153.5 q8 13.5 13.5 22.5 q5.5 9 24.5 9 q17 0 38 -8.5 q21 -8.5 21 -20.5 q0 -6 -13 -18 q-13 -12 -43 -51 l-108 -147 l110 -149 q12 -16 39 -46.5 q27 -30.5 27 -36.5 q0 -13 -19.5 -20.5 q-19.5 -7.5 -39.5 -7.5 q-23 0 -31 13 q-21 35 -130 186 q-106 -145 -116 -161.5 q-10 -16.5 -16 -24.5 q-10 -16 -32 -16 Z" /><glyph glyph-name="y" unicode="y" d="M116 -170 l-10 0 q-59 0 -94 29 q-7 7 -7 20 q0 13 11.5 32.5 q11.5 19.5 24.5 19.5 q13 0 25.5 -13 q12.5 -13 36.5 -13 q24 0 38 11 q14 11 28 41 l42 89 q-163 370 -177 395 q-11 19 -11 23 q0 22 44 22 q41 0 49 -20 q11 -31 138 -327 l118 247 q19 38 35 92 q5 13 24 13 q16 0 35 -12.5 q19 -12.5 19 -26.5 q0 -12 -6 -23.5 q-6 -11.5 -17 -31.5 q-14 -28 -231 -482 q-20 -43 -47 -64 q-27 -21 -68 -21 Z" /><glyph glyph-name="z" unicode="z" d="M67 -16 q-14 0 -25 17.5 q-11 17.5 -11 32.5 q0 13 4 23 q4 10 16 18 q12 8 36 41 q123 166 237 292 q-175 -13 -203 -17 q-24 0 -40 37 q-7 15 -7 27 q0 16 14 16 q27 -2 64 -2 q28 0 37 1 q156 11 193 17 q28 0 49 -35 q9 -13 9 -23 q0 -13 -14 -20.5 q-14 -7.5 -19 -13.5 q-150 -172 -268 -333 q37 4 114 4 q150 0 166 1 q16 0 26 -20.5 q10 -20.5 10 -37.5 q0 -22 -17 -22 q-41 4 -81 6 q-225 0 -252 -4.5 q-27 -4.5 -38 -4.5 Z" /><glyph glyph-name="braceleft" unicode="{" d="M318 -165 q-7 0 -16 2 q-132 37 -132 159 q0 32 7.5 76.5 q7.5 44.5 7.5 91.5 q0 46 -7 67 q-14 47 -72 51 q-16 1 -26 15.5 q-10 14.5 -10 32.5 q0 22 22 22 l11 0 q81 0 81 120 l-6 157 q0 44 27 82 q27 38 97 71 q9 3 16 3 q19 0 19 -23 q0 -10 -13 -18 q-69 -38 -69 -117 l6 -158 q0 -121 -63 -155 q25 -8 44 -44 q19 -36 19 -77 q0 -79 -7.5 -130.5 q-7.5 -51.5 -7.5 -66.5 q0 -41 18 -70 q18 -29 59 -52 q15 -9 15 -22 q0 -17 -20 -17 Z" /><glyph glyph-name="bar" unicode="|" d="M215 -23 l-81 0 l0 747 l81 0 l0 -747 Z" /><glyph glyph-name="braceright" unicode="}" d="M33 -162 q-21 0 -21 18 q0 16 14 23 q69 39 69 117 l-6 158 q0 120 64 155 q-26 8 -45 44 q-19 36 -19 77 q0 79 7.5 130.5 q7.5 51.5 7.5 66.5 q0 41 -18 70 q-18 29 -59 52 q-15 9 -15 23 q0 16 23 16 q8 0 13 -2 q132 -37 132 -159 q0 -32 -7.5 -76 q-7.5 -44 -7.5 -90 q0 -47 7 -69 q14 -47 72 -51 q17 -1 26.5 -15.5 q9.5 -14.5 9.5 -32.5 q0 -22 -22 -22 l-11 0 q-81 0 -81 -120 l6 -157 q0 -73 -67 -121 q-26 -18 -47.5 -26.5 q-21.5 -8.5 -24.5 -8.5 Z" /><glyph glyph-name="emdash" unicode="&#x336;&#x2014;" d="M995 219 l-990 0 q-25 0 -25 35 q0 35 25 35 l990 0 q25 0 25 -35 q0 -35 -25 -35 Z" /><glyph glyph-name="Omicron" unicode="&#x39f;" d="M354 52 q141 0 206 96 q59 88 59 223 q0 110 -58 193 q-58 83 -162 83 q-42 0 -89.5 -19.5 q-47.5 -19.5 -88.5 -58.5 q-41 -39 -67 -96.5 q-26 -57.5 -26 -134.5 q0 -78 24.5 -143 q24.5 -65 75 -104 q50.5 -39 126.5 -39 ZM366 -24 q-109 0 -180 47.5 q-71 47.5 -105 129 q-34 81.5 -34 167.5 q0 85 16.5 144 q16.5 59 41 104 q24.5 45 49.5 70.5 q25 25.5 44 25.5 q18 0 26 -9 q73 64 173 64 q100 0 166.5 -46.5 q66.5 -46.5 102 -127 q35.5 -80.5 35.5 -170.5 q0 -177 -80 -284 q-89 -115 -255 -115 Z" /><glyph glyph-name="delta" unicode="&#x3b4;" d="M278 53 q89 0 130 90 q14 34 14 80 q0 16 -2 33 q-9 82 -26 118 q-1 -1 -10 -1 q-8 0 -21 6 q-34 15 -69 15 q-58 0 -94 -30 q-64 -54 -64 -147 q0 -15 4.5 -51 q4.5 -36 39.5 -74.5 q35 -38.5 98 -38.5 ZM283 -24 q-97 0 -156.5 60.5 q-59.5 60.5 -70.5 160.5 q-2 16 -2 32 q0 82 60.5 159 q60.5 77 175.5 77 q37 0 44 -3 q-24 27 -108 73 q-84 46 -144 60 q-26 4 -26 38 q0 20 14.5 37 q14.5 17 33 18.5 q18.5 1.5 33.5 1.5 l11 0 q12 0 182 16 q30 3 83 12 q17 0 32 -23 q15 -23 15 -39 q0 -17 -15 -17 q-28 0 -251 -15 q68 -23 145.5 -80 q77.5 -57 113.5 -129 q48 -96 48 -196 q0 -59 -23.5 -115 q-23.5 -56 -75.5 -92 q-52 -36 -119 -36 Z" /><glyph glyph-name="omega" unicode="&#x3c9;" d="M473 -24 q-45 0 -82 27 q-37 27 -47 69 q-37 -96 -133 -96 q-44 0 -78 27 q-81 63 -81 210 q0 88 45 162 q38 66 92 104 q19 14 22 14 q16 0 31.5 -20 q15.5 -20 15.5 -37 q0 -14 -10 -19 q-39 -16 -67 -55 q-51 -71 -51 -163 q7 -151 79 -151 q75 0 94 140 q6 48 6 93 l0 16 q0 23 40 23 q14 0 30 -7 q16 -7 16 -23 q-8 -44 -8 -82 q0 -23 4.5 -61 q4.5 -38 21.5 -68.5 q17 -30.5 50 -30.5 q71 0 96 90 q9 30 9 65 q0 64 -22 122 q-31 81 -77 115 q-16 12 -16 28 q0 18 20 18 q15 0 40.5 -18.5 q25.5 -18.5 53.5 -49.5 q78 -94 78 -219 q0 -73 -30 -134 q-42 -89 -142 -89 Z" /><glyph glyph-name="quoteright" unicode="&#x2019;" d="M166 710 q-12 0 -19 7 q-27 23 -27 51 q0 25 18 38.5 q18 13.5 41 13.5 q23 0 39 -20.5 q16 -20.5 19 -54.5 q0 -36 -30 -74.5 q-30 -38.5 -72 -56.5 q-6 -3 -11 -3 q-20 0 -20 20 q0 11 9 17 q18 12 34 32 q15 18 19 30 Z" /><glyph glyph-name="quotedblleft" unicode="&#x201c;" d="M252 721 q2 -1 7 -2 q6 -2 8 -5 q26 -23 26 -51 q0 -25 -15.5 -38.5 q-15.5 -13.5 -38.5 -13.5 q-23 0 -39 20.5 q-16 20.5 -19 54.5 q0 37 30 75 q30 38 72 56 q6 3 11 3 q20 0 20 -20 q0 -10 -8 -17 q-19 -12 -35 -31 q-15 -19 -19 -31 ZM122 721 q2 -1 7 -2 q6 -2 8 -5 q26 -23 26 -51 q0 -25 -15.5 -38.5 q-15.5 -13.5 -38.5 -13.5 q-23 0 -39 20.5 q-16 20.5 -19 54.5 q0 37 30 75 q30 38 72 56 q6 3 11 3 q20 0 20 -20 q0 -10 -8 -17 q-19 -12 -35 -31 q-15 -19 -19 -31 Z" /><glyph glyph-name="quotedblright" unicode="&#x201d;" d="M228 709 q-2 1 -5 2 q-6 2 -9 5 q-27 23 -27 51 q0 25 15.5 38.5 q15.5 13.5 38.5 13.5 q23 0 39 -20.5 q16 -20.5 19 -54.5 q0 -36 -30 -74.5 q-30 -38.5 -72 -56.5 q-6 -3 -11 -3 q-20 0 -20 20 q0 11 9 17 q18 12 34 32 q15 18 19 30 ZM98 709 q-8 1 -14 7 q-27 23 -27 51 q0 25 15.5 38.5 q15.5 13.5 38.5 13.5 q23 0 39 -20.5 q16 -20.5 19 -54.5 q0 -36 -30 -74.5 q-30 -38.5 -72 -56.5 q-6 -3 -11 -3 q-20 0 -20 20 q0 11 9 17 q18 12 34 32 q15 18 19 30 Z" /><glyph glyph-name="bullet" unicode="&#x2022;" d="M196 189 q-32 0 -58.5 16 q-26.5 16 -42.5 42.5 q-16 26.5 -16 59.5 q0 32 16 58 q16 26 42.5 42 q26.5 16 59.5 16 q32 0 58 -16 q26 -16 42 -42 q16 -26 16 -58 q0 -33 -16 -60 q-35 -58 -101 -58 Z" /><glyph glyph-name="ellipsis" unicode="&#x2026;" d="M213 335 q-14 -15 -41 -15 q-27 0 -44.5 22.5 q-17.5 22.5 -17.5 46.5 q0 24 17 37.5 q17 13.5 40 13.5 q24 0 42 -22.5 q18 -22.5 18 -44.5 q0 -23 -14 -38 ZM545 335 q-14 -15 -41 -15 q-27 0 -44.5 22.5 q-17.5 22.5 -17.5 46.5 q0 24 17 37.5 q17 13.5 40 13.5 q24 0 42 -22.5 q18 -22.5 18 -44.5 q0 -23 -14 -38 ZM877 335 q-14 -15 -41 -15 q-27 0 -44.5 22.5 q-17.5 22.5 -17.5 46.5 q0 24 17 37.5 q17 13.5 40 13.5 q24 0 42 -22.5 q18 -22.5 18 -44.5 q0 -23 -14 -38 Z" /><glyph glyph-name="uni203B" unicode="&#x203b;" d="M511 29 q-26 0 -45 23 q-19 23 -19 47 q0 24 14 40 q14 16 39 16 q24 0 44 -23 q20 -23 20 -47 q0 -25 -14 -40.5 q-14 -15.5 -39 -15.5 ZM230 305 q-26 0 -45 23 q-19 23 -19 47 q0 24 14 40 q14 16 39 16 q24 0 44 -23 q20 -23 20 -47 q0 -25 -14 -40.5 q-14 -15.5 -39 -15.5 ZM789 305 q-26 0 -45 23 q-19 23 -19 47 q0 24 14 40 q14 16 39 16 q24 0 44 -23 q20 -23 20 -47 q0 -25 -14 -40.5 q-14 -15.5 -39 -15.5 ZM253 57 q-27 -29 -39 -29 q-12 0 -23.5 16.5 q-11.5 16.5 -11.5 31.5 q0 15 13 27 q40 33 53 46 l206 207 q-245 245 -262 258 q-8 7 -8 22 q0 14 11 31.5 q11 17.5 23 17.5 q11 0 19 -8 q12 -14 267 -271 q243 243 263 267 q8 8 19 8 q11 0 23 -17.5 q12 -17.5 12 -31.5 q0 -15 -8.5 -22 q-8.5 -7 -257.5 -254 q206 -207 248 -243 q14 -12 14 -27 q0 -14 -12 -31 q-12 -17 -23 -17 q-10 0 -17 7 l-260 261 q-222 -220 -249 -249 ZM511 572 q-26 0 -45 23 q-19 23 -19 47 q0 24 14 40 q14 16 39 16 q24 0 44 -23 q20 -23 20 -47 q0 -25 -14 -40.5 q-14 -15.5 -39 -15.5 Z" /><glyph glyph-name="union" unicode="&#x222a;" d="M512 18 q-131 0 -218.5 77 q-87.5 77 -87.5 196 l0 403 q0 26 37 26 q37 0 37 -26 l0 -398 q0 -62 31.5 -106.5 q31.5 -44.5 81.5 -68.5 q50 -24 107 -24 q57 0 108 23.5 q51 23.5 83.5 68 q32.5 44.5 32.5 107.5 l0 398 q0 26 37 26 q37 0 37 -26 l0 -403 q0 -80 -40.5 -142 q-40.5 -62 -108 -96.5 q-67.5 -34.5 -137.5 -34.5 Z" /><glyph glyph-name="notequal" unicode="&#x2260;" d="M361 39 q-6 -10 -19 -10 q-13 0 -31.5 18.5 q-18.5 18.5 -18.5 29.5 q0 9 3 15 q22 30 70 114 q-164 -2 -179 -4 q-27 0 -27 54 q0 25 22 25 q30 -2 87 -2 l137 2 l76 135 q-282 -4 -295 -6 q-27 0 -27 54 q0 25 22 25 q30 -2 87 -2 l254 3 l43 77 q13 22 48 99 q4 9 16 9 q9 0 23 -10 q30 -24 30 -47 q0 -4 -16.5 -28.5 q-16.5 -24.5 -31.5 -52 q-15 -27.5 -26 -46.5 q146 2 203 5 q15 0 22 -15 q7 -15 7 -28 q0 -35 -23 -35 l-83 1 l-167 -2 l-75 -135 q260 3 319 6 q15 0 22 -15 q7 -15 7 -28 q0 -35 -23 -35 l-83 1 l-283 -4 q-48 -84 -90 -168 Z" /><glyph glyph-name="lessequal" unicode="&#x2264;" d="M767 209 q-5 0 -9 3 q-25 14 -50 26 q-58 25 -256 90 q-162 54 -210 66 q-14 3 -25.5 9.5 q-11.5 6.5 -17 22.5 q-5.5 16 -5.5 30 q0 10 4 19 q9 14 44 25 q319 97 433 142 q37 15 80 39 q4 3 9 3 q15 0 22.5 -19 q7.5 -19 7.5 -37 q0 -19 -12 -28 q-31 -8 -64 -21 q-179 -63 -418 -134 l104 -30 l158 -48 q75 -22 215 -71 q15 -4 15 -37 q0 -50 -25 -50 ZM772 23 l-5 0 l-75 27 l-456 151 q-31 9 -34 9 q-19 9 -19 44 l1 12 q3 26 18 26 q4 0 84 -30 q478 -158 486 -158 q21 -9 21 -54 q-5 -27 -21 -27 Z" /><glyph glyph-name="greaterequal" unicode="&#x2265;" d="M226 208 q-14 0 -22 19.5 q-8 19.5 -8 36.5 q0 21 13 28 q30 8 63 21 q186 66 416 134 q-308 91 -475 149 q-15 4 -15 37 q0 50 25 50 q5 0 9 -3 q25 -14 50 -26 q58 -25 257 -90 q161 -54 209 -66 q14 -3 25.5 -9.5 q11.5 -6.5 17 -22 q5.5 -15.5 5.5 -30.5 q0 -10 -4 -19 q-9 -14 -44 -25 q-319 -97 -433 -142 q-37 -14 -80 -39 q-4 -3 -9 -3 ZM209 23 l-5 0 q-21 0 -21 38 q0 34 21 43 q4 0 53 15 q440 145 477 159 q37 14 40 14 q19 0 19 -40 q0 -33 -19 -42 q-12 0 -72 -22 q-406 -134 -493 -165 Z" /><glyph glyph-name="uni2460" unicode="&#x2460;" d="M533 65 q-17 0 -35.5 7.5 q-18.5 7.5 -18.5 21.5 l2 71 l0 396 q-32 -18 -82 -31 q-19 0 -34 7.5 q-15 7.5 -15 17.5 q0 10 13 16 q83 31 124 76 q12 14 25 14 q11 0 28 -11 q17 -11 17 -26 l-5 -58 q0 -454 2 -486 q0 -15 -21 -15 ZM335 -24 q77 -33 165 -33 q88 0 165 33 q77 33 135.5 91 q58.5 58 91.5 135 q33 77 33 165 q0 176 -124.5 300.5 q-124.5 124.5 -300.5 124.5 q-176 0 -300.5 -124.5 q-124.5 -124.5 -124.5 -300.5 q0 -88 33 -165 q33 -77 91.5 -135 q58.5 -58 135.5 -91 ZM688 -80.5 q-88 -37.5 -188 -37.5 q-100 0 -188 37.5 q-88 37.5 -155 104.5 q-67 67 -105 155 q-38 88 -38 188 q0 100 38 188 q38 88 105 155 q67 67 155 105 q88 38 188 38 q100 0 188 -38 q88 -38 155 -105 q67 -67 105 -155 q38 -88 38 -188 q0 -100 -38 -188 q-38 -88 -105 -155 q-67 -67 -155 -104.5 Z" /><glyph glyph-name="uni2461" unicode="&#x2461;" d="M317 72 q-19 0 -30.5 14.5 q-11.5 14.5 -11.5 27.5 q0 12 4.5 19 q4.5 7 9 12 q4.5 5 14.5 21.5 q10 16.5 62.5 72.5 q52.5 56 129 115 q76.5 59 107.5 95.5 q31 36.5 31 73.5 q0 35 -28 56.5 q-28 21.5 -80 21.5 q-53 0 -91 -21 q-38 -21 -51 -54 q-11 -25 -32 -25 q-22 0 -31 17.5 q-9 17.5 -9 23.5 q0 7 11 26 q54 97 208 97 q86 0 130.5 -39 q44.5 -39 44.5 -98 q0 -58 -40.5 -108 q-40.5 -50 -107.5 -100.5 q-67 -50.5 -118.5 -97 q-51.5 -46.5 -73.5 -81.5 q20 2 136 2 l131 -1 l53 1 q13 0 23 -16.5 q10 -16.5 10 -32.5 q0 -20 -18 -20 q-8 0 -41 3.5 q-33 3.5 -218 3.5 q-53 0 -124 -9 ZM335 -24 q77 -33 165 -33 q88 0 165 33 q77 33 135.5 91 q58.5 58 91.5 135 q33 77 33 165 q0 176 -124.5 300.5 q-124.5 124.5 -300.5 124.5 q-176 0 -300.5 -124.5 q-124.5 -124.5 -124.5 -300.5 q0 -88 33 -165 q33 -77 91.5 -135 q58.5 -58 135.5 -91 ZM688 -80.5 q-88 -37.5 -188 -37.5 q-100 0 -188 37.5 q-88 37.5 -155 104.5 q-67 67 -105 155 q-38 88 -38 188 q0 100 38 188 q38 88 105 155 q67 67 155 105 q88 38 188 38 q100 0 188 -38 q88 -38 155 -105 q67 -67 105 -155 q38 -88 38 -188 q0 -100 -38 -188 q-38 -88 -105 -155 q-67 -67 -155 -104.5 Z" /><glyph glyph-name="uni2462" unicode="&#x2462;" d="M647.5 111.5 q-67.5 -48.5 -177.5 -48.5 q-110 0 -188 74 q-8 8 -8 23 q0 14 10 30.5 q10 16.5 21 16.5 q10 0 16 -7 q60 -74 143 -74 q84 0 133 35 q49 35 49 99 q0 31 -18.5 54 q-18.5 23 -48 36 q-29.5 13 -73.5 13 q-45 0 -72 -7 q-18 0 -27.5 14.5 q-9.5 14.5 -9.5 28.5 q0 17 16 19 q60 4 107.5 21 q47.5 17 74 42 q26.5 25 26.5 49 q0 77 -121 77 q-80 0 -142 -65 q-13 -13 -22 -13 q-11 0 -22 14.5 q-11 14.5 -11 27.5 q0 13 11 21 q70 75 179 75 q196 0 196 -127 q0 -110 -85 -133 l-1 0 q0 -2 33.5 -19 q33.5 -17 56 -50 q22.5 -33 22.5 -78 q0 -100 -67.5 -148.5 ZM335 -24 q77 -33 165 -33 q88 0 165 33 q77 33 135.5 91 q58.5 58 91.5 135 q33 77 33 165 q0 176 -124.5 300.5 q-124.5 124.5 -300.5 124.5 q-176 0 -300.5 -124.5 q-124.5 -124.5 -124.5 -300.5 q0 -88 33 -165 q33 -77 91.5 -135 q58.5 -58 135.5 -91 ZM688 -80.5 q-88 -37.5 -188 -37.5 q-100 0 -188 37.5 q-88 37.5 -155 104.5 q-67 67 -105 155 q-38 88 -38 188 q0 100 38 188 q38 88 105 155 q67 67 155 105 q88 38 188 38 q100 0 188 -38 q88 -38 155 -105 q67 -67 105 -155 q38 -88 38 -188 q0 -100 -38 -188 q-38 -88 -105 -155 q-67 -67 -155 -104.5 Z" /><glyph glyph-name="uni2E9F" unicode="&#x2e9f;&#x6bcd;" d="M647 -114 q-41 0 -144 69 q-61 41 -61 60 q0 13 18 13 q12 0 24 -4.5 q12 -4.5 33 -11.5 q21 -7 65 -21.5 q44 -14.5 50 -14.5 q13 0 34 123 q-410 -9 -422 -12 q-12 -3 -25 -3 q-16 0 -29.5 14.5 q-13.5 14.5 -13.5 24.5 q0 9 6 26 q6 17 42 236 l-125 -6 q-55 0 -73 53 q-1 3 -1 9 q0 11 11 11 q6 0 17.5 -3 q11.5 -3 46.5 -3 q12 0 134 7 q22 157 27 231 q0 26 -5 42.5 q-5 16.5 -5 23.5 q0 18 22 18 q18 0 66 -29 l397 28 q28 0 44.5 -12 q16.5 -12 16.5 -26 q0 -12 -4 -20 q-4 -8 -4 -12 q-2 -113 -8 -217 q67 4 87 6 l44 10 q24 0 54 -26 q14 -12 14 -24 q0 -22 -23 -25 l-179 -9 q-8 -136 -23 -244 q48 0 61.5 5.5 q13.5 5.5 23.5 5.5 q9 0 24 -6 q39 -17 39 -45 q0 -11 -8 -18 q-8 -7 -18 -7 l-132 -3 q-25 -214 -98 -214 ZM310 456 l395 21 q4 81 7 224 l-376 -26 q-8 -93 -26 -219 ZM584 489 q-11 0 -32 17 q-72 58 -129 95 q-14 7 -14 22 q0 14 14 26.5 q14 12.5 22 12.5 q7 0 34 -15 q27 -15 84.5 -55.5 q57.5 -40.5 57.5 -57.5 q0 -13 -12.5 -29 q-12.5 -16 -24.5 -16 ZM262 156 l416 10 q16 124 24 243 l-402 -21 q-19 -137 -38 -232 ZM579.5 209.5 q-12.5 -16.5 -24.5 -16.5 q-12 0 -24 9 q-75 63 -146 106 q-13 9 -13 21 q0 10 11.5 26 q11.5 16 21.5 16 q8 0 55.5 -28.5 q47.5 -28.5 114.5 -78.5 q17 -14 17 -26 q0 -12 -12.5 -28.5 Z" /><glyph glyph-name="uni2EA0" unicode="&#x2ea0;&#x6c11;" d="M906.5 -80.5 q-11.5 -5.5 -22.5 -5.5 q-11 0 -30 4.5 q-19 4.5 -62 35.5 q-43 31 -92 84 q-112 119 -160 270 l-261 -16 l-2 -248 q120 34 178.5 53 q58.5 19 71.5 19 q18 0 18 -14 q0 -15 -27 -27 q-201 -96 -336 -139 q-37 -12 -48 -12 q-12 0 -26 12 q-14 12 -25 27 q-11 15 -11 25 q0 10 17 12 q46 3 109 21 l4 654 q0 38 -4.5 50.5 q-4.5 12.5 -4.5 20.5 q0 17 21 17 q16 0 64 -24 l472 32 q31 0 47 -13.5 q16 -13.5 16 -25.5 q0 -12 -4 -18.5 q-4 -6.5 -32 -134.5 q22 -28 22 -39 q0 -15 -12 -17.5 q-12 -2.5 -219 -13.5 q11 -67 30 -130 q204 11 214.5 15 q10.5 4 16.5 4 q7 0 20 -9 q37 -23 37 -44 q0 -18 -29 -20 l-238 -14 q48 -129 147 -229 q40 -40 67 -60 q27 -20 29 -20 q7 0 58 172 q14 45 28 45 q14 0 14 -37 q0 -10 -4.5 -59.5 q-4.5 -49.5 -12.5 -100.5 q-8 -51 -17.5 -74 q-9.5 -23 -21 -28.5 ZM280 558 l424 25 l23 121 l-446 -30 l-1 -116 ZM279 360 l241 15 q-18 65 -28 130 l-212 -11 l-1 -134 Z" /><glyph glyph-name="uni2EC4" unicode="&#x2ec4;&#x897f;" d="M787 240 l18 213 l-186 -10 l-3 -135 q0 -28 7 -36 q7 -8 39 -8 q33 0 60 14 q6 3 13 3 q7 0 20 -8 q25 -16 32 -33 ZM226 -78 q-24 0 -43.5 16.5 q-19.5 16.5 -19.5 30.5 q0 11 2.5 24 q2.5 13 2.5 37 q0 18 -29 357 q-8 81 -20 112 q-3 4 -3 8 q0 13 19 13 q14 0 76 -29 l155 9 l1 51 q0 43 -2 85 l-178 -11 q-29 0 -40 10 q-14 13 -22.5 31 q-8.5 18 -8.5 24 q0 11 17 11 q32 -7 54 -7 l567 33 q28 2 41 7 q13 5 20 5 q7 0 21.5 -8 q14.5 -8 26.5 -20.5 q12 -12.5 12 -24.5 q0 -21 -32 -23 l-220 -13 l-3 -137 l213 12 q10 0 24 -8 q34 -17 34 -44 q0 -9 -3.5 -15 q-3.5 -6 -38.5 -365 q40 -34 40 -52 q0 -22 -37 -22 l-607 -12 l4 -53 q0 -32 -23 -32 ZM441 503 l103 6 l3 137 l-104 -7 q0 -76 -2 -136 ZM240 76 l534 15 l11 127 q-19 -23 -121 -23 q-39 0 -65 6 q-59 13 -59 95 l3 144 l-105 -6 q-7 -92 -39 -165 q-32 -73 -104 -131 q-21 -16 -31 -16 q-14 0 -14 15 q0 10 16 31 q86 105 98 263 l-150 -8 l26 -347 Z" /><glyph glyph-name="uni2EC5" unicode="&#x2ec5;&#x89c1;" d="M45 -90 q-18 0 -18 16 q0 16 27 27 q292 133 358 352 l12 47 q17 72 17 180 q0 23 -14 45 q-5 7 -5 15 q0 11 19 11 q13 0 36 -7.5 q23 -7.5 36.5 -17.5 q13.5 -10 13.5 -30 q-3 -110 -19 -199 l-19 -75 q-72 -222 -343 -332 q-80 -32 -101 -32 ZM725 -65 q-57 0 -87.5 2 q-30.5 2 -59.5 11 q-65 23 -65 99 l8 227 q0 26 -8 36 q-8 10 -8 17 q0 14 19 14 q13 0 36 -6.5 q23 -6.5 30 -14 q7 -7.5 7 -22.5 l-8 -234 q0 -35 29 -43.5 q29 -8.5 96 -8.5 q67 0 91.5 5 q24.5 5 34.5 12 q10 7 20 31.5 q10 24.5 30 150.5 q7 48 23 48 q24 0 24 -133 q0 -61 -8 -98.5 q-8 -37.5 -32 -58 q-24 -20.5 -70 -27.5 q-46 -7 -102 -7 ZM300 215 q-21 0 -37.5 14.5 q-16.5 14.5 -16.5 28.5 l4 45 l-10 381 q-1 28 -9 45 q-8 17 -8 27 q0 15 20 15 q15 0 70 -23 l394 23 q25 0 42 -11 q17 -11 17 -25 q0 -14 -2.5 -18.5 q-2.5 -4.5 -3.5 -7.5 l-18 -461 q-2 -26 -23 -26 q-10 0 -24 7 q-31 17 -31 39 q0 8 4 19 q4 16 11 411 l-364 -21 l10 -434 q0 -28 -25 -28 Z" /><glyph glyph-name="uni2ED3" unicode="&#x2ed3;&#x957f;" d="M231 -94 q-24 0 -53 36 q-15 20 -15 30 q0 13 28.5 14.5 q28.5 1.5 95.5 31.5 l0 330 l-176 -9 q-15 0 -23 6 q-30 27 -30 54 q0 14 14 14 q7 0 14.5 -2.5 q7.5 -2.5 24.5 -2.5 l177 9 l0 298 q0 27 -16 50 q-6 9 -6 16 q0 11 19 11 q14 0 39 -8 q40 -14 40 -38 l-1 -326 q478 25 496 31 q11 3 18 3 q8 0 21 -8 q37 -23 37 -44 q0 -22 -32 -23 l-365 -18 q41 -70 106 -138 q133 -139 299 -200 q27 -10 27 -23 q0 -6 -12 -21 q-27 -36 -56 -36 q-109 43 -229 142 q-132 110 -221 271 l-89 -5 l-1 -303 q92 42 154 79 q18 11 29 11 q18 0 18 -14 q0 -22 -57 -62 q-86 -61 -151 -97.5 q-65 -36.5 -89.5 -47.5 q-24.5 -11 -34.5 -11 ZM425 479 q-25 0 -25 14 q0 15 22.5 26.5 q22.5 11.5 84.5 47.5 q192 112 205 170 q7 21 20 21 q21 0 48 -44 q8 -13 8 -23 q0 -22 -78 -76 q-73 -51 -154 -90 q-89 -46 -131 -46 Z" /><glyph glyph-name="uni2ED4" unicode="&#x2ed4;&#x95e8;" d="M190 -90 q-28 0 -49 24 q-12 13 -12 24 q0 16 3.5 37 q3.5 21 4.5 509 q0 29 -12 43 q-6 9 -6 14 q0 13 18 13 q77 -7 77 -40 l2 -590 q0 -34 -26 -34 ZM803 -107 q-9 0 -53.5 22.5 q-44.5 22.5 -113.5 73 q-69 50.5 -69 71.5 q0 13 17 13 q11 0 47 -18 q84 -43 147 -61 l7 679 l-321 -18 q-17 0 -37 7 q-20 7 -36 49 l-2 9 q0 13 12 13 q36 -6 51 -6 q349 21 362 21 q26 0 38.5 -16.5 q12.5 -16.5 12.5 -28.5 q-4 -19 -10 -716 l2 -37 q0 -36 -33 -51 q-13 -6 -21 -6 ZM320 566 q-14 0 -31.5 25 q-17.5 25 -48.5 61 q-31 36 -51.5 55 q-20.5 19 -20.5 30 q0 12 13 25.5 q13 13.5 23 13.5 q28 0 115 -95 q46 -52 46 -69 q0 -6 -7 -17 q-19 -29 -38 -29 Z" /><glyph glyph-name="uni2EDA" unicode="&#x2eda;&#x9875;" d="M858 -78.5 q-15 -17.5 -25 -17.5 q-10 0 -24 10 q-109 79 -248 151 q-19 10 -19 26 q0 13 11 29 q11 16 26 16 q14 0 107 -50 q187 -100 187 -127 q0 -20 -15 -37.5 ZM151 -96 q-19 0 -19 18 q0 16 26 26 q96 34 169.5 86 q73.5 52 102.5 115 q37 86 37 190 l0 41 q0 21 -8 31.5 q-8 10.5 -8 17.5 q0 18 19 18 q14 0 29 -3 q48 -8 48 -39 q-1 -61 -4 -96 q-14 -191 -112 -278 q-73 -63 -176 -99 q-79 -28 -104 -28 ZM312 82 q-22 0 -39 15.5 q-17 15.5 -17 28.5 q6 41 6 53 l-18 321 q-3 38 -10 51 q-7 13 -7 23 q0 13 21 13 q16 0 70 -25 l75 5 q36 58 43.5 77.5 q7.5 19.5 7.5 33.5 l-292 -19 q-21 0 -34 12 q-13 12 -20.5 28 q-7.5 16 -7.5 22 q0 11 12 11 q3 0 13.5 -3 q10.5 -3 31.5 -3 q14 0 648 39 q26 1 39 6.5 q13 5.5 20 5.5 q7 0 22 -9 q39 -25 39 -46 q0 -15 -28 -18 l-365 -22 q11 -7 11 -20 q0 -13 -18 -36 l-40 -54 l233 14 q26 0 45 -12.5 q19 -12.5 19 -25.5 q0 -13 -4 -19 q-7 -12 -26 -393 q0 -26 -23 -26 q-12 0 -26 8 q-30 15 -30 40 q0 5 4 20.5 q4 15.5 7 33.5 l13 305 l-369 -20 l20 -387 q0 -28 -26 -28 Z" /><glyph glyph-name="uni2EDB" unicode="&#x2edb;&#x98ce;" d="M233 22 q-15 0 -15 12 q0 11 17 26 q62 52 122 116.5 q60 64.5 115 157.5 q-80 100 -164 195 q-5 9 -5 14 q0 5 6 15 q16 23 33 23 l10 -2 q18 -3 157 -177 q45 85 66 160 q7 24 7 41 l0 11 q0 18 18 18 q10 0 39.5 -13 q29.5 -13 30.5 -40 q0 -13 -41 -104 q-41 -91 -69 -140 q80 -103 153 -215 q10 -13 10 -25 q0 -18 -21 -32 q-15 -9 -25 -9 q-16 0 -30 22 q-50 86 -129 195 q-26 -40 -57 -78 q-83 -98 -204 -163 q-14 -8 -24 -8 ZM38 -101 q-9 0 -9 15 q0 10 26 49 q95 141 121 330 q18 136 18 371 q0 27 -7 43.5 q-7 16.5 -9.5 22.5 q-2.5 6 -2.5 12 q0 14 19 14 q13 0 77 -24 l461 34 q28 0 47 -12.5 q19 -12.5 19 -26.5 q0 -13 -2.5 -17 q-2.5 -4 -11.5 -316 q0 -279 111 -397 q2 -2 5 -2 q12 0 42 159 q8 37 22 37 q17 0 17 -47 q0 -98 -12 -189 q-8 -52 -48 -52 q-81 0 -149 140 q-66 141 -66 330 l7 321 l-436 -31 q0 -145 -15 -323 q-17 -170 -90 -295 q-48 -86 -107 -131 q-22 -15 -27 -15 Z" /><glyph glyph-name="uni2F00" unicode="&#x2f00;&#x4e00;" d="M127 313 q-28 0 -40 8 q-18 15 -26 36.5 q-8 21.5 -8 27.5 q0 11 10 11 q4 0 16 -3.5 q12 -3.5 31 -3.5 l727 37 q23 2 33 6 q10 4 17 4 q8 0 23 -9 q15 -9 27.5 -23 q12.5 -14 12.5 -26 q0 -22 -29 -24 l-794 -41 Z" /><glyph glyph-name="uni2F06" unicode="&#x2f06;&#x4e8c;" d="M256 528 q-40 0 -52 9.5 q-12 9.5 -20.5 29 q-8.5 19.5 -8.5 28.5 q0 13 13 13 q4 0 14.5 -3 q10.5 -3 35.5 -3 q13 0 434 25 q20 2 33 6.5 q13 4.5 20 4.5 q8 0 23 -10 q39 -25 39 -50 q0 -20 -32 -22 l-499 -28 ZM127 65 q-33 0 -41 6.5 q-8 6.5 -24 24.5 q-16 18 -16 33 q0 18 12 18 q6 0 17 -3 q11 -3 33 -3 l713 30 q26 2 40.5 6.5 q14.5 4.5 22.5 4.5 q8 0 24 -9.5 q16 -9.5 29 -24 q13 -14.5 13 -26.5 q0 -22 -31 -24 l-792 -33 Z" /><glyph glyph-name="uni2F08" unicode="&#x2f08;&#x4eba;" d="M34 -78 q-15 0 -15 13 q0 13 23 31 q171 124 273 283 q126 194 141 462 q0 21 -8 37 q-8 16 -8 21 q0 15 20 15 q15 0 37 -8 q22 -8 35.5 -19 q13.5 -11 13.5 -37 q-7 -119 -38 -233 q80 -153 202 -286 q122 -133 243 -198 q23 -12 23 -22 q0 -10 -15 -22 q-36 -29 -59 -29 q-8 0 -39 21 q-76 51 -175 155 q-127 130 -212 281 q-66 -181 -204 -310 q-106 -99 -198 -139 q-35 -16 -40 -16 Z" /><glyph glyph-name="uni2F0A" unicode="&#x2f0a;&#x5165;" d="M56 -76 q-15 0 -15 17 q0 14 28 39 q175 164 284 337 q62 99 108 218 q-30 80 -41.5 116.5 q-11.5 36.5 -19.5 56.5 q-8 20 -16.5 28 q-8.5 8 -21.5 16 q-13 5 -13 16 q0 21 42 21 q37 0 54.5 -8 q17.5 -8 24.5 -27.5 q7 -19.5 14 -44.5 q50 -165 117 -287 q67 -122 161.5 -227.5 q94.5 -105.5 227.5 -205.5 q9 -7 9 -17 q0 -11 -16 -22 q-33 -22 -50 -22 q-17 0 -24 7 q-274 232 -401 494 q-110 -217 -254 -357 q-74 -72 -164 -133 q-23 -15 -34 -15 Z" /><glyph glyph-name="uni2F0B" unicode="&#x2f0b;&#x516b;" d="M930 -41 q-7 0 -37 23 q-30 23 -74 69.5 q-44 46.5 -94 121.5 q-121 174 -189 415 q-22 83 -32 94.5 q-10 11.5 -26 22.5 q-16 11 -16 22 q0 14 38 14 q32 0 50 -5.5 q18 -5.5 25 -15.5 q7 -10 11.5 -25 q4.5 -15 11 -38 q6.5 -23 20.5 -70.5 q14 -47.5 45.5 -126 q31.5 -78.5 77.5 -157.5 q101 -175 237 -270 q15 -9 15 -17 q0 -7 -13 -21 q-32 -36 -50 -36 ZM50 -38 q-16 0 -16 12 q0 14 22 36 q167 162 236 414 q29 99 29 137 q0 5 -4 29 q0 18 16 18 q11 0 28.5 -8 q17.5 -8 32.5 -21 q15 -13 15 -25 q0 -11 -2 -19 q-84 -389 -325 -558 q-21 -15 -32 -15 Z" /><glyph glyph-name="uni2F0F" unicode="&#x2f0f;&#x51e0;" d="M53 -72 q-14 0 -14 14 q0 10 22 30 q117 110 156.5 242.5 q39.5 132.5 39.5 408.5 l0 55 q0 36 -14 57 q-4 8 -4 14 q0 11 20 11 q15 0 74 -20 l293 20 q16 0 33.5 -12.5 q17.5 -12.5 17.5 -32.5 q-4 -22 -10 -629 q0 -30 20 -36.5 q20 -6.5 64 -6.5 q134 0 146 38 q24 89 31.5 142.5 q7.5 53.5 25.5 53.5 q23 0 23 -111 q0 -106 -11 -132 q-11 -26 -34 -41 q-45 -29 -180 -29 q-73 0 -103 11 q-30 11 -45 33 q-15 22 -15 61 l5 616 l-257 -14 q0 -235 -19.5 -377.5 q-19.5 -142.5 -100.5 -239.5 q-62 -76 -129 -111 q-26 -15 -35 -15 Z" /><glyph glyph-name="uni2F12" unicode="&#x2f12;&#x529b;" d="M729 -90 q-23 0 -44.5 13.5 q-21.5 13.5 -64.5 43 q-43 29.5 -93 73.5 q-50 44 -50 60 q0 18 17 18 q13 0 44 -18.5 q31 -18.5 98 -52.5 q67 -34 76 -34 q5 0 5 3 q61 213 71 485 l-266 -14 q-41 -190 -151 -335 q-87 -114 -191 -183 q-83 -56 -113 -56 q-15 0 -15 16 q0 12 20 26 q281 194 361 528 q-196 -11 -227 -12 q-28 0 -43 24 q-19 31 -19 42 q0 14 14 14 q6 0 18 -3 q12 -3 31 -3 l243 10 q16 91 16 190 q0 27 -4 36.5 q-4 9.5 -4 16.5 q0 16 18 16 q12 0 30 -6 q48 -16 48 -36 q-2 -117 -19 -213 l288 16 q19 0 36.5 -14 q17.5 -14 17.5 -27 q0 -12 -3 -19 q-3 -7 -4 -11 q-8 -174 -28.5 -299.5 q-20.5 -125.5 -30 -164.5 q-9.5 -39 -15.5 -66 q-6 -27 -25.5 -45.5 q-19.5 -18.5 -41.5 -18.5 Z" /><glyph glyph-name="uni2F17" unicode="&#x2f17;&#x5341;" d="M519 -92 q-14 0 -31 11 q-36 21 -36 39 q0 14 4 33 q4 19 4 385 l-318 -18 q-30 0 -42 8 q-18 17 -25.5 38.5 q-7.5 21.5 -7.5 26.5 q0 10 12 10 q3 0 13.5 -3.5 q10.5 -3.5 35.5 -3.5 q12 0 332 18 l0 287 q0 26 -8.5 37 q-8.5 11 -8.5 19 q0 11 20 11 q14 0 39 -6.5 q25 -6.5 32.5 -14.5 q7.5 -8 7.5 -22 l0 -307 q312 18 321.5 22 q9.5 4 18.5 4 q10 0 25 -10 q15 -10 26.5 -23.5 q11.5 -13.5 11.5 -23.5 q0 -22 -32 -24 l-371 -21 l1 -439 q0 -33 -24 -33 Z" /><glyph glyph-name="uni2F1C" unicode="&#x2f1c;&#x53c8;" d="M71 -81 q-15 0 -15 15 q0 12 27 29 q226 138 366 299 q-137 152 -196 255 q-22 38 -22 47 q0 9 12 17 q21 13 34 13 q13 0 29 -25 q83 -131 191 -249 q106 136 169 318 l-441 -30 q-17 0 -28 10 q-33 31 -33 57 q0 12 12 12 q6 0 17 -2.5 q11 -2.5 42 -2.5 q467 29 479 29 q23 0 36 -15 q13 -15 13 -26 q0 -11 -4 -17.5 q-4 -6.5 -5 -9.5 q-74 -217 -203 -380 q152 -150 408 -275 q18 -8 18 -19 q0 -7 -23.5 -27 q-23.5 -20 -39.5 -20 q-16 0 -83 39 q-204 119 -329 244 q-128 -135 -281 -219 q-61 -34 -101 -50.5 q-40 -16.5 -49 -16.5 Z" /><glyph glyph-name="uni2F1D" unicode="&#x2f1d;&#x53e3;" d="M280 20 l-16 5 q-50 17 -50 47 q5 30 5 51 l-24 418 q-2 38 -12 56 q-10 18 -10 27 q0 16 21 16 q15 0 72 -25 l486 25 q29 0 46 -15 q17 -15 17 -26 q0 -10 -3 -16 q-3 -6 -36 -407 q28 -35 28 -48 q0 -16 -14 -18.5 q-14 -2.5 -491 -16.5 l3 -37 q0 -36 -22 -36 ZM296 166 l402 11 l28 391 l-453 -24 l23 -378 Z" /><glyph glyph-name="uni2F24" unicode="&#x2f24;&#x5927;" d="M45 -79 q-18 0 -18 14 q0 14 25 29 q291 174 358 461 q-216 -12 -247 -13 q-42 0 -60 46 q-6 16 -6 22 q0 11 14 11 q20 -5 48 -5 q13 0 266 15 q16 95 16 220 q0 24 -14 47 q-5 8 -5 16 q0 12 19 12 q13 0 36 -8 q23 -8 36.5 -19 q13.5 -11 13.5 -32 q-4 -136 -18 -232 l284 17 q20 2 31 6.5 q11 4.5 19 4.5 q8 0 22 -10 q40 -26 40 -48 q0 -23 -33 -25 l-333 -18 q95 -189 245 -319 q77 -67 167 -111 q21 -10 21 -20 q0 -8 -14 -22 q-33 -33 -52 -33 q-6 0 -36 18 q-85 47 -176 141 q-127 127 -209 296 q-37 -150 -147 -270 q-85 -92 -190 -147 q-80 -44 -103 -44 Z" /><glyph glyph-name="uni2F26" unicode="&#x2f26;&#x5b50;" d="M510 -108 q-49 0 -173 95 q-71 57 -71 79 q0 12 16 12 q12 0 70 -32.5 q58 -32.5 131 -58.5 q10 64 10 164 q0 100 -12 176 l-386 -21 q-29 0 -36 7 q-31 31 -31 56 q0 13 14 13 q5 0 14 -2.5 q9 -2.5 30 -2.5 q11 0 383 21 q-14 56 -27.5 79 q-13.5 23 -13.5 33 q0 23 47 32 q17 0 25 -15 q109 84 155 146 l-391 -28 q-16 0 -28 11 q-30 28 -30 53 q0 12 12 12 q6 0 15 -2.5 q9 -2.5 27 -2.5 l461 33 q16 0 36 -15 q20 -15 20 -29 q0 -15 -9.5 -22 q-9.5 -7 -14.5 -11 q-105 -118 -225 -210 q8 -28 15 -60 l304 17 q28 2 42.5 6.5 q14.5 4.5 25.5 4.5 q11 0 26 -9.5 q15 -9.5 25.5 -23 q10.5 -13.5 10.5 -23.5 q0 -20 -29 -22 l-393 -22 q15 -110 15 -228 l-1 -44 q-3 -166 -59 -166 Z" /><glyph glyph-name="uni2F28" unicode="&#x2f28;&#x5bf8;" d="M595 -101 q-15 0 -57.5 21 q-42.5 21 -111.5 72 q-69 51 -69 70 q0 13 16 13 q11 0 71.5 -28.5 q60.5 -28.5 123.5 -47.5 l0 482 l-442 -25 q-28 0 -40 9 q-12 9 -23 28.5 q-11 19.5 -11 27.5 q0 12 10 12 q4 0 16 -3.5 q12 -3.5 31 -3.5 l459 26 l0 193 q0 27 -14 48 q-5 8 -5 16 q0 11 15 11 q9 0 29 -5 q57 -15 57 -41 l-1 -219 l186 11 q23 2 33 6 q10 4 18 4 q9 0 24 -11 q15 -11 26.5 -24.5 q11.5 -13.5 11.5 -22.5 q0 -16 -29 -18 l-270 -15 l-1 -486 l2 -40 q0 -27 -19.5 -43.5 q-19.5 -16.5 -35.5 -16.5 ZM414 175 q-14 0 -26 15 q-59 80 -141 157 q-11 9 -11 22 q0 12 14 26 q14 14 27 14 q13 0 26 -12 q13 -12 40 -36 q121 -110 121 -137 q0 -14 -18.5 -31.5 q-18.5 -17.5 -31.5 -17.5 Z" /><glyph glyph-name="uni2F29" unicode="&#x2f29;&#x5c0f;" d="M510 -80 q-16 0 -58 20 q-42 20 -109 66 q-67 46 -67 64 q0 15 18 15 q13 0 64 -22.5 q51 -22.5 117 -41.5 l3 723 q0 22 -9 33.5 q-9 11.5 -9 15.5 q0 12 14 12 q8 0 28 -3 q59 -11 59 -38 l-3 -739 l1 -40 q0 -28 -16 -46.5 q-16 -18.5 -33 -18.5 ZM66 118 q-12 0 -12 14 q0 10 13 30 q56 83 103.5 167 q47.5 84 72.5 185 q4 11 4 22 l-4 24 q0 15 19 15 q14 0 39 -16 q43 -25 43 -45 q0 -6 -2 -10 q-105 -242 -236 -359 q-30 -27 -40 -27 ZM912 153 q-20 0 -28 18 q-104 210 -207 342 q-7 10 -7 21 q0 11 17 25 q17 14 32 14 q15 0 25 -13 q85 -112 154 -229 q69 -117 69 -130 q0 -15 -18.5 -31.5 q-18.5 -16.5 -36.5 -16.5 Z" /><glyph glyph-name="uni2F2F" unicode="&#x2f2f;&#x5de5;" d="M111 11 q-49 0 -67 45 q-6 18 -6 24 q0 11 11 11 q6 0 18.5 -3 q12.5 -3 33.5 -3 l351 13 l2 474 l-206 -13 q-44 0 -61 16 q-27 25 -27 50 q0 12 11 12 q6 0 18.5 -3 q12.5 -3 32.5 -3 l483 31 q30 2 42.5 6 q12.5 4 22.5 4 q10 0 25.5 -10 q15.5 -10 27.5 -24 q12 -14 12 -24 q0 -19 -32 -21 l-267 -17 l-3 -475 l310 11 q27 2 41.5 6 q14.5 4 22.5 4 q8 0 23.5 -9.5 q15.5 -9.5 28.5 -24 q13 -14.5 13 -25.5 q0 -21 -31 -23 l-830 -29 Z" /><glyph glyph-name="uni2F30" unicode="&#x2f30;&#x5df1;" d="M838 -43 q-146 -10 -284 -10 q-138 0 -246 6 q-49 3 -77 29.5 q-28 26.5 -28 72.5 l6 298 q0 48 -9 60 q-9 12 -9 21 q0 13 20 13 q15 0 76 -26 l385 20 l20 218 l-465 -29 q-17 0 -37 7 q-20 7 -36 49 l-2 9 q0 13 12 13 q36 -6 51 -6 l519 32 q19 0 35.5 -13.5 q16.5 -13.5 16.5 -27.5 q0 -12 -3.5 -20 q-3.5 -8 -30.5 -232 q33 -35 33 -47 q0 -16 -10.5 -18.5 q-10.5 -2.5 -486.5 -28.5 l-3 -274 q0 -23 8 -33 q15 -18 249 -18 q305 0 319 41 q26 78 38 141.5 q12 63.5 30 63.5 q19 0 19 -50 q0 -77 -10 -178 q-4 -36 -31.5 -58 q-27.5 -22 -68.5 -25 Z" /><glyph glyph-name="uni2F32" unicode="&#x2f32;&#x5e72;" d="M512 -102 q-14 0 -31 11 q-36 21 -36 39 q0 14 4 33 q4 19 4 43 l0 343 l-330 -16 q-24 0 -36 8 q-33 30 -33 61 q0 11 12 11 q3 0 13.5 -3.5 q10.5 -3.5 35.5 -3.5 q12 0 338 16 l0 216 l-195 -12 q-30 0 -43 9 q-1 2 -8 9 q-24 22 -24 48 q0 12 12 12 q3 0 13.5 -3.5 q10.5 -3.5 47.5 -3.5 q456 28 465.5 32 q9.5 4 18.5 4 q10 0 25 -11 q15 -11 26.5 -24 q11.5 -13 11.5 -21 q0 -18 -32 -20 l-236 -15 l0 -217 q318 16 328 20 q10 4 19 4 q10 0 25 -10 q15 -10 26.5 -23.5 q11.5 -13.5 11.5 -22.5 q0 -20 -32 -22 l-378 -19 l1 -439 q0 -33 -24 -33 Z" /><glyph glyph-name="uni2F34" unicode="&#x2f34;&#x5e7f;" d="M43 -89 q-11 0 -11 14 q0 10 11 28 q106 177 123 394 q7 98 7 234 q0 28 -7.5 55 q-7.5 27 -7.5 32 q0 14 17 14 q12 0 74 -32 l233 14 l-1 102 q0 18 -10.5 30 q-10.5 12 -10.5 20 q0 12 18 12 q12 0 48 -11 q36 -11 36 -31 l-2 -118 l207 13 q25 2 40 7.5 q15 5.5 24 5.5 q10 0 24.5 -9.5 q14.5 -9.5 26 -23 q11.5 -13.5 11.5 -23.5 q0 -21 -33 -23 l-603 -36 q-4 -295 -55.5 -438.5 q-51.5 -143.5 -121.5 -204.5 q-28 -25 -37 -25 Z" /><glyph glyph-name="uni2F3C" unicode="&#x2f3c;&#x5fc3;" d="M586.5 484.5 q-15.5 -14.5 -27.5 -14.5 q-12 0 -24 12 q-87 89 -182 164 q-11 9 -11 20 q0 15 15.5 28.5 q15.5 13.5 27.5 13.5 q11 0 19 -6 q101 -76 185 -156 q13 -11 13 -29 q0 -18 -15.5 -32.5 ZM714 -30 q-13 0 -26 2 q-193 23 -284 124 q-80 85 -100 231 q-10 65 -12 138 q0 22 8 31 q8 9 32 10 q21 0 30.5 -8.5 q9.5 -8.5 10.5 -31.5 q2 -91 17 -164 q26 -134 125 -192 q87 -51 190 -51 q26 0 26 1 l-39 94 q-43 107 -43 143 q0 21 14 21 q18 0 42 -48 q46 -90 112 -188 q21 -30 21 -53 q0 -26 -37.5 -42.5 q-37.5 -16.5 -86.5 -16.5 ZM917 192 q-15 0 -28 18 q-83 121 -170 220 q-9 9 -9 21 q0 13 16 26.5 q16 13.5 29 13.5 q12 0 26 -14 q91 -97 175 -211 q10 -14 10 -26 q0 -13 -17.5 -30.5 q-17.5 -17.5 -31.5 -17.5 ZM92 117 l-12 3 q-39 10 -39 38 q0 8 18 46 q47 97 79 238 q5 26 30 26 q48 0 48 -32 q0 -15 -24 -106 q-24 -91 -71 -191 q-10 -22 -29 -22 Z" /><glyph glyph-name="uni2F40" unicode="&#x2f40;&#x652f;" d="M908 -95 l-37 11 q-192 58 -371 175 q-132 -96 -293 -147 q-65 -20 -104 -27.5 q-39 -7.5 -41 -7.5 q-22 0 -22 14 q0 14 34 29 q92 37 186.5 80.5 q94.5 43.5 175.5 102.5 q-67 46 -152 126 q-14 12 -14 25 q0 12 13.5 24.5 q13.5 12.5 23.5 12.5 q9 0 54.5 -41 q45.5 -41 133.5 -102 q98 81 158 165 l-387 -21 q-25 0 -37.5 8.5 q-12.5 8.5 -30.5 42.5 q-2 7 -2 13 q0 10 12 10 q6 0 15.5 -3 q9.5 -3 32.5 -3 q12 0 195 10 l1 146 l-214 -12 q-20 -2 -34 -2 q-16 0 -24 8 q-34 36 -34 54 q0 12 12 12 q6 0 17 -2.5 q11 -2.5 30 -2.5 q12 0 247 13 l1 137 q0 23 -8.5 38.5 q-8.5 15.5 -8.5 21.5 q0 15 16 15 q24 0 41 -8 q22 -9 30 -17 q8 -8 8 -24 l-3 -160 q234 12 244 16 q10 4 18 4 q8 0 21 -8 q34 -22 34 -43 q0 -19 -29 -21 l-289 -16 l-2 -146 q171 10 186 10 q30 0 42 -18 q12 -18 12 -28 q0 -11 -9.5 -18 q-9.5 -7 -12.5 -12 q-79 -116 -183 -202 q154 -96 384 -157 q26 -7 26 -21 q0 -8 -16 -25 q-30 -29 -46 -29 Z" /><glyph glyph-name="uni2F45" unicode="&#x2f45;&#x65b9;" d="M655 -72.5 q-22 -20.5 -39 -20.5 q-17 0 -57.5 20 q-40.5 20 -106.5 71.5 q-66 51.5 -66 70.5 q0 11 16 11 q11 0 66 -27 q55 -27 129 -50 q1 -1 5 -1 q61 127 80 344 l-238 -13 q-54 -152 -162 -267 q-85 -92 -163 -131 q-32 -16 -43 -16 q-17 0 -17 13 q0 14 22 29 q93 68 177.5 180 q84.5 112 119.5 235 q21 73 33 142 l-278 -17 q-17 0 -34.5 8.5 q-17.5 8.5 -31.5 45.5 q-2 3 -2 8 q0 13 15 13 q25 -5 51 -5 q13 0 327 19 l-1 132 q0 21 -8 32.5 q-8 11.5 -8 18.5 q0 14 17 14 q10 0 27 -2 q50 -7 50 -29 l-1 -162 q323 20 335 23.5 q12 3.5 19 3.5 q7 0 23 -8 q41 -22 41 -45 q0 -18 -25 -21 l-431 -25 q-8 -48 -28 -118 l239 14 q31 0 49 -12.5 q18 -12.5 18 -26.5 q0 -13 -3.5 -21 q-3.5 -8 -4.5 -12 q-22 -222 -78 -372 q-11 -26 -33 -46.5 Z" /><glyph glyph-name="uni2F46" unicode="&#x2f46;&#x65e0;" d="M39 -76 q-19 0 -19 15 q0 15 28 29 q187 95 275 233 q58 91 82 202 l-245 -13 q-21 0 -41 7 q-25 9 -36 54 q0 14 14 14 q5 0 14.5 -2.5 q9.5 -2.5 32.5 -2.5 q15 0 276 13 q13 80 15 194 l-153 -9 l-30 -1 q-35 0 -50.5 22 q-15.5 22 -15.5 34 q0 16 13 16 q4 0 14.5 -3 q10.5 -3 35.5 -3 q13 0 444 25 q26 2 36 6.5 q10 4.5 19 4.5 q9 0 23.5 -11 q14.5 -11 25.5 -24.5 q11 -13.5 11 -21.5 q0 -15 -32 -17 l-262 -15 q-2 -113 -15 -193 l291 15 q30 3 39.5 6.5 q9.5 3.5 17.5 3.5 q8 0 23 -11 q38 -27 38 -45 q0 -18 -31 -20 l-391 -20 q-35 -167 -118 -270 q-83 -103 -205 -164 q-50 -26 -84 -37 q-34 -11 -40 -11 ZM725 -65 q-115 0 -157 13 q-65 23 -65 99 l8 287 q0 26 -8 36 q-8 10 -8 17 q0 14 19 14 q13 0 36 -6.5 q23 -6.5 30 -14 q7 -7.5 7 -22.5 l-8 -294 q0 -35 29 -43.5 q29 -8.5 101 -8.5 q72 0 96.5 5 q24.5 5 34.5 12 q10 7 20 31.5 q10 24.5 30 150.5 q7 48 23 48 q24 0 24 -133 q0 -61 -8 -98.5 q-8 -37.5 -32 -58 q-24 -20.5 -70 -27.5 q-46 -7 -102 -7 Z" /><glyph glyph-name="uni2F47" unicode="&#x2f47;&#x65e5;" d="M294 -88 q-24 0 -43.5 17.5 q-19.5 17.5 -19.5 33.5 q4 28 4 53 q0 20 -16 611 q-2 38 -12.5 57.5 q-10.5 19.5 -10.5 28.5 q0 13 23 13 q17 0 69 -25 l440 23 q23 0 42.5 -12 q19.5 -12 19.5 -32 q0 -7 -2.5 -13 q-2.5 -6 -30.5 -601 q28 -35 28 -47 q0 -16 -13.5 -18.5 q-13.5 -2.5 -456.5 -17.5 l1 -35 q0 -36 -22 -36 ZM303 387 l391 20 l10 244 l-408 -22 l7 -242 ZM313 55 l368 12 l11 267 l-387 -18 l8 -261 Z" /><glyph glyph-name="uni2F49" unicode="&#x2f49;&#x6708;" d="M717 -115 q-35 0 -130 85 q-54 47 -54 66 q0 12 15 12 q11 0 51.5 -24 q40.5 -24 95.5 -43 l-2 273 l-355 -15 q-41 -178 -207 -312 q-37 -29 -49 -29 q-16 0 -16 13 q0 12 18 31 q119 131 160 256 q41 125 41 348 l0 94 q0 55 -6.5 73.5 q-6.5 18.5 -6.5 26.5 q0 13 19 13 q13 0 67 -27 l367 22 q22 0 35.5 -16.5 q13.5 -16.5 13.5 -27.5 l-6 -25 q5 -692 6 -726 q0 -25 -11 -40 q-20 -28 -46 -28 ZM363 518 l329 17 l-1 141 l-326 -21 l-2 -137 ZM350 306 l343 15 l-1 144 l-331 -13 q-2 -89 -11 -146 Z" /><glyph glyph-name="uni2F4C" unicode="&#x2f4c;&#x6b62;" d="M111 -40 q-49 0 -67 45 q-6 18 -6 24 q0 11 11 11 q6 0 18.5 -3 q12.5 -3 33.5 -3 l146 6 l-9 406 q0 27 -14 48 q-5 8 -5 14 q0 13 16 13 q11 0 30 -5 q53 -15 53 -41 l6 -433 l169 7 l-5 672 q0 27 -14 48 q-5 8 -5 14 q0 13 19 13 q13 0 34.5 -7.5 q21.5 -7.5 34 -16 q12.5 -8.5 12.5 -22.5 l1 -289 l151 9 q36 3 47.5 7.5 q11.5 4.5 23.5 4.5 q12 0 27.5 -11.5 q15.5 -11.5 26.5 -25.5 q11 -14 11 -23 q0 -17 -30 -21 l-257 -13 l2 -337 l271 10 q27 2 41.5 6 q14.5 4 22.5 4 q8 0 23.5 -9.5 q15.5 -9.5 28.5 -24 q13 -14.5 13 -25.5 q0 -21 -31 -23 l-830 -29 Z" /><glyph glyph-name="uni2F50" unicode="&#x2f50;&#x6bd4;" d="M743 -55 q-74 0 -118 5.5 q-44 5.5 -66 31 q-22 25.5 -22 81.5 l3 651 q0 25 -17 49 q-6 9 -6 17 q0 12 15 12 q10 0 29 -4 q56 -14 56 -43 l-2 -335 q173 96 191 163 q4 18 18 18 q8 0 22 -13 q37 -31 37 -61 q0 -14 -10 -20 q-61 -43 -122.5 -85.5 q-61.5 -42.5 -135.5 -76.5 l-2 -267 q0 -19 5.5 -29.5 q5.5 -10.5 30 -14.5 q24.5 -4 86.5 -4 q63 0 93 5 q30 5 37.5 9.5 q7.5 4.5 18.5 27 q11 22.5 28 131.5 q9 52 26 52 q14 0 17.5 -24.5 q3.5 -24.5 3.5 -86.5 q0 -63 -4 -100.5 q-4 -37.5 -25 -57 q-21 -19.5 -67.5 -25.5 q-46.5 -6 -119.5 -6 ZM182 -53 q-27 -13 -38 -13 q-11 0 -25 7 q-14 7 -30 25 q-16 18 -16 27 q0 12 30 16 q30 4 94 34 l1 634 q0 26 -16 48 q-6 9 -6 16 q0 11 19 11 q14 0 39 -8 q40 -13 40 -37 l-1 -259 l103 5 q29 3 40 7 q11 4 22 4 q11 0 24 -11 q13 -11 22.5 -24 q9.5 -13 9.5 -21 q0 -19 -33 -21 l-188 -10 l-1 -300 q111 52 182 96 q20 13 33 13 q17 0 17 -13 q0 -21 -61 -64 q-93 -67 -163.5 -108 q-70.5 -41 -97.5 -54 Z" /><glyph glyph-name="uni2F57" unicode="&#x2f57;&#x7236;" d="M97 429 q-14 0 -14 15 q0 11 16 25 q148 128 220 248 q7 11 8 36 q1 25 19 25 q8 0 25 -11 q45 -29 45 -55 q0 -9 -5 -15 q-84 -119 -195 -200 q-46 -33 -78 -50.5 q-32 -17.5 -41 -17.5 ZM861 507 q-16 -17 -30 -17 q-14 0 -25 12 q-82 99 -210 198 q-17 14 -17 26 q0 11 12.5 26 q12.5 15 24.5 15 q18 0 97 -66 q164 -136 164 -162 q0 -15 -16 -32 ZM915 -72 q-9 0 -17 5 q-238 109 -396 266 q-117 -121 -275 -200 q-130 -65 -167 -65 q-19 0 -19 13 q0 14 29 29 q104 52 205 126 q101 74 176 151 q-96 107 -174 224 q-8 10 -8 25 q0 17 17.5 26 q17.5 9 27.5 9 q11 0 22 -17 q79 -119 163 -211 q79 95 128 205 q7 17 10 54 q0 20 16 20 q12 0 27.5 -13 q15.5 -13 28 -29 q12.5 -16 12.5 -26 q0 -9 -21 -51 q-54 -109 -148 -216 q165 -161 399 -251 q17 -7 17 -17 q0 -9 -9 -22 q-25 -35 -44 -35 Z" /><glyph glyph-name="uni2F5A" unicode="&#x2f5a;&#x7247;" d="M690 -100 q-23 0 -46 26 q-12 12 -12 28 q5 30 5 66 l0 243 l-343 -15 q-32 -157 -117 -257 q-34 -40 -60 -60 q-26 -20 -34 -20 q-12 0 -12 14 q0 10 16 33 q73 97 105.5 202 q32.5 105 41.5 220 q9 115 9 296 q0 31 -13 53 q-3 6 -3 10 q0 15 19 15 q14 0 31 -4 q48 -13 48 -45 q-3 -169 -4 -185 l229 14 l3 201 q0 27 -7.5 37 q-7.5 10 -7.5 18 q0 12 19 12 q13 0 37 -7 q24 -7 30.5 -15.5 q6.5 -8.5 6.5 -23.5 l-3 -218 l155 9 q20 2 33 6.5 q13 4.5 21 4.5 q9 0 23.5 -11 q14.5 -11 25.5 -24.5 q11 -13.5 11 -21.5 q0 -17 -31 -19 l-548 -30 l-12 -137 l360 19 q31 0 43.5 -18.5 q12.5 -18.5 12.5 -29.5 l-6 -23 l0 -338 q0 -25 -26 -25 Z" /><glyph glyph-name="uni2F5B" unicode="&#x2f5b;&#x7259;" d="M614 -103 q-16 0 -57 19.5 q-41 19.5 -106.5 68.5 q-65.5 49 -65.5 71 q0 12 15 12 q9 0 64 -27.5 q55 -27.5 126 -46.5 l-2 364 q-192 -220 -491 -352 q-22 -9 -34 -9 q-17 0 -17 13 q0 16 31 34 q269 153 438 342 q-214 -10 -224.5 -13.5 q-10.5 -3.5 -21.5 -3.5 q-12 0 -23 9 q-11 9 -17 19.5 q-6 10.5 -6 16.5 q0 4 1 7.5 q1 3.5 2 7.5 l40 133 q5 14 5 33 q0 9 -3 21 q0 17 22 17 q18 0 46 -16 q16 -10 16 -26 q0 -3 -46 -147 l281 14 l-1 205 l-317 -18 q-38 0 -54.5 11 q-16.5 11 -28.5 43 q-1 3 -1 9 q0 11 11 11 q6 0 22.5 -4 q16.5 -4 42.5 -4 q11 0 469 26 q46 4 59 7.5 q13 3.5 23 3.5 q11 0 25 -8 q14 -8 25 -20.5 q11 -12.5 11 -23.5 q0 -15 -23 -18 l-189 -11 l2 -206 q181 9 193 13.5 q12 4.5 22 4.5 q11 0 24 -12 q30 -25 30 -44 q0 -16 -28 -19 l-240 -11 q3 -389 5 -433 q0 -27 -19 -45 q-19 -18 -36 -18 Z" /><glyph glyph-name="uni2F63" unicode="&#x2f63;&#x751f;" d="M114 -38 q-47 0 -64 69 q0 13 12 13 q6 0 19.5 -3.5 q13.5 -3.5 44.5 -3.5 l332 10 l0 194 l-169 -7 q-23 0 -35 10 q-12 10 -20 28 q-8 18 -8 25 q0 11 11 11 q6 0 18.5 -3 q12.5 -3 29.5 -3 l173 8 l1 158 l-177 -10 q-59 -106 -118 -152 q-22 -17 -28 -17 q-10 0 -10 13 q0 9 33.5 62.5 q33.5 53.5 71 152.5 q37.5 99 37.5 137 q0 12 -2 24 q0 17 16 17 q8 0 32 -9 q48 -18 48 -38 q0 -9 -17.5 -54 q-17.5 -45 -27.5 -65 l142 8 l0 189 q0 27 -14 48 q-5 8 -5 14 q0 13 19 13 q13 0 34.5 -7.5 q21.5 -7.5 34 -16 q12.5 -8.5 12.5 -22.5 l-1 -214 l170 10 q22 2 34 6 q12 4 20 4 q8 0 22 -10 q38 -25 38 -45 q0 -18 -31 -20 l-253 -14 l-1 -159 l134 7 q26 3 33.5 6 q7.5 3 13.5 3 q6 0 19.5 -8.5 q13.5 -8.5 26 -20.5 q12.5 -12 12.5 -26 q0 -17 -25 -21 l-214 -9 l-1 -195 q333 10 344.5 14.5 q11.5 4.5 21.5 4.5 q10 0 25 -12 q36 -29 36 -48 q0 -18 -30 -20 q-782 -24 -820 -26 Z" /><glyph glyph-name="uni2F64" unicode="&#x2f64;&#x7528;" d="M795 -105 q-23 0 -65 30 q-115 84 -115 113 q0 13 16 13 q11 0 53 -23 q42 -23 85 -37 l0 257 l-229 -10 l0 -260 q0 -32 -22 -32 q-5 0 -19 5.5 q-14 5.5 -27 17.5 q-13 12 -13 35 q0 6 4 23 q4 17 4 44 l0 165 l-220 -10 q-26 -130 -95 -236 q-28 -44 -51.5 -68 q-23.5 -24 -35.5 -24 q-12 0 -12 16 q0 11 11 29 q87 148 112 294 q16 99 16 301 q0 84 -0.5 117.5 q-0.5 33.5 -9 51.5 q-8.5 18 -8.5 24 q0 10 19 10 q13 0 67 -24 l533 33 q24 0 39 -11 q15 -11 15 -30 l-3 -23 q1 -703 2 -732 q0 -46 -51 -59 ZM539 524 l229 12 l0 143 l-229 -15 l0 -140 ZM267 510 l200 11 l0 140 l-201 -13 q1 -31 1 -138 ZM540 306 l229 10 l-1 152 l-229 -12 l1 -150 ZM259 295 l208 9 l0 149 l-200 -11 q-2 -110 -8 -147 Z" /><glyph glyph-name="uni2F69" unicode="&#x2f69;&#x767d;" d="M271 -93 q-15 0 -37.5 10 q-22.5 10 -22.5 38 q2 18 2 37 l-28 516 q-2 31 -13 51 q-11 20 -11 29 q0 13 20 13 q14 0 76 -22 l58 4 q86 110 103.5 147.5 q17.5 37.5 17.5 53.5 l-1 11 q0 21 17 21 q8 0 26 -9 q52 -22 52 -48 q0 -12 -35 -63 q-35 -51 -90 -108 l348 20 q39 0 58 -14 q19 -14 19 -27 q0 -13 -4 -20 q-4 -7 -42 -476 q27 -34 27 -47 q0 -16 -12 -20 q-12 -4 -507 -18 l3 -52 q0 -27 -24 -27 ZM274 329 l452 22 l14 183 l-476 -27 l10 -178 ZM289 58 l418 13 l15 208 l-445 -22 l12 -199 Z" /><glyph glyph-name="uni2F6C" unicode="&#x2f6c;&#x76ee;" d="M292 -91 q-24 0 -51 22 q-14 12 -14 29 q5 35 5 59 l-17 622 q-3 40 -11.5 57 q-8.5 17 -8.5 25 q0 13 20 13 q15 0 70 -23 l463 23 q24 0 42 -13.5 q18 -13.5 18 -25.5 q0 -10 -2.5 -16.5 q-2.5 -6.5 -20.5 -609.5 q24 -27 24 -42 q0 -19 -17.5 -21.5 q-17.5 -2.5 -480.5 -19.5 l2 -43 q0 -36 -21 -36 ZM296 498 l425 23 l3 144 l-433 -22 l5 -145 ZM302 291 l414 22 l3 136 l-421 -20 l4 -138 ZM310 58 l401 14 l4 169 l-411 -20 l6 -163 Z" /><glyph glyph-name="uni2F6D" unicode="&#x2f6d;&#x77db;" d="M537 -104 q-15 0 -57.5 19 q-42.5 19 -106.5 60 q-64 41 -64 61 q0 14 18 14 q12 0 58 -18.5 q46 -18.5 123 -37.5 l-1 378 q-169 -232 -409 -352 q-21 -10 -32 -10 q-17 0 -17 13 q0 14 28 34 q213 144 367 350 l-313 -16 q-16 0 -25.5 0.5 q-9.5 0.5 -20.5 12.5 q-24 21 -24 44 q0 14 14 14 q24 -4 45 -4 q13 0 358 18 q-59 50 -124 93 q-21 14 -21 27 q0 11 11 24.5 q11 13.5 22 13.5 q24 0 126 -76 q91 72 151 139 q-380 -29 -389 -29 q-22 0 -34 14.5 q-12 14.5 -22 45.5 q0 14 17 14 q19 -3 35 -3 q448 33 459 33 q34 0 52 -29 q6 -12 6 -20 q0 -10 -9 -17 q-9 -7 -37 -35 q-87 -90 -173 -157 q2 -1 15 -15 q13 -14 13 -17 l296 16 q30 0 45.5 -14 q15.5 -14 15.5 -27 q0 -14 -8 -20 q-8 -6 -10 -10 q-69 -82 -123 -122.5 q-54 -40.5 -66 -40.5 q-17 0 -17 12 q0 17 32 51.5 q32 34.5 76 100.5 l-235 -13 q2 -421 4 -457 q0 -21 -16.5 -41.5 q-16.5 -20.5 -32.5 -20.5 Z" /><glyph glyph-name="uni2F74" unicode="&#x2f74;&#x7acb;" d="M197 498 l-23 0 q-26 3 -39 18 q-13 15 -16 29.5 q-3 14.5 -3 16.5 q0 13 11 13 q6 0 16.5 -3 q10.5 -3 35.5 -3 q13 0 275 14 l-2 150 q0 20 -17 46 q-4 6 -4 11 q0 14 20 14 q14 0 48.5 -9.5 q34.5 -9.5 34.5 -34.5 l-1 -173 l235 13 q24 2 35 6 q11 4 19 4 q9 0 23.5 -11 q14.5 -11 25.5 -24 q11 -13 11 -21 q0 -18 -31 -20 l-654 -36 ZM121 -38 q-49 0 -67 45 q-6 18 -6 24 q0 11 11 11 q6 0 18.5 -3 q12.5 -3 33.5 -3 l395 15 q87 178 123 332 q8 35 8 46 q0 11 -4.5 23 q-4.5 12 -4.5 18 q0 15 17 15 q11 0 32 -6 q58 -18 58 -50 q-15 -63 -63 -181 q-48 -118 -92 -195 l243 10 q27 2 41.5 6 q14.5 4 22.5 4 q8 0 23.5 -9.5 q15.5 -9.5 28.5 -24 q13 -14.5 13 -25.5 q0 -21 -31 -23 l-800 -29 ZM404 81 q-17 0 -22.5 8 q-5.5 8 -21.5 55 q-34 109 -109 253 q-8 16 -8 27 q0 13 18.5 22.5 q18.5 9.5 29.5 9.5 q12 0 25 -21 q79 -135 128 -269 q11 -32 11 -43 q0 -13 -12 -24 q-23 -18 -39 -18 Z" /><glyph glyph-name="uni2F79" unicode="&#x2f79;&#x7f51;" d="M810 -97 q-43 0 -133 79 q-49 43 -49 60 q0 13 15 13 q10 0 57 -22.5 q47 -22.5 81 -30.5 l6 670 l-572 -36 l0 -696 q0 -33 -26 -33 q-2 0 -16 4 q-14 4 -27.5 16 q-13.5 12 -13.5 29 q0 14 3.5 30.5 q3.5 16.5 4.5 652.5 q0 36 -8 49.5 q-8 13.5 -8 24.5 q0 14 21 14 q15 0 68 -23 l591 38 q64 0 64 -44 l-5 -19 l-7 -683 l3 -37 q0 -21 -15.5 -38.5 q-15.5 -17.5 -33.5 -17.5 ZM435 4 q-16 0 -16 14 q0 13 15 33 q99 123 155 306 q-55 76 -82 107 q-27 31 -27 40 q0 9 13.5 21 q13.5 12 21.5 12 q8 0 24 -13.5 q16 -13.5 73 -85.5 q18 76 24 153 q0 16 -2.5 23.5 q-2.5 7.5 -2.5 13.5 q0 11 12 11 q6 0 21 -4 q47 -13 47 -38 q0 -32 -15 -103 q-15 -71 -33 -123 q106 -142 106 -163 q0 -13 -15 -26.5 q-15 -13.5 -28 -13.5 q-14 0 -27 22 q-15 30 -65 103 q-32 -81 -74 -148 q-42 -67 -77 -104 q-35 -37 -48 -37 ZM237 66 q-15 0 -15 15 q0 11 11 28 q66 97 116 236 q-45 71 -90 126 q-3 5 -6 9.5 q-3 4.5 -3 13.5 q0 9 14 19.5 q14 10.5 22 10.5 q19 0 88 -101 q21 70 31 154 q0 14 -3 23.5 q-3 9.5 -3 12.5 q0 13 16 13 q10 0 24 -4 q38 -12 38 -43 q-17 -114 -57 -224 q87 -128 87 -143 q0 -17 -15.5 -30 q-15.5 -13 -27.5 -13 q-14 0 -26 24 q-22 42 -49 87 q-48 -110 -113 -182 q-28 -32 -39 -32 Z" /><glyph glyph-name="uni2F7D" unicode="&#x2f7d;&#x800c;" d="M853.5 -72.5 q-18.5 -16.5 -33.5 -16.5 q-15 0 -45 15 q-30 15 -84 55.5 q-54 40.5 -54 56.5 q0 12 16 12 q11 0 49 -15.5 q38 -15.5 94 -31.5 l5 418 l-169 -10 l0 -394 q0 -27 -25 -27 q-21 0 -39 14.5 q-18 14.5 -18 26.5 q8 48 8 70 l1 307 l-139 -8 l6 -392 q0 -26 -24 -26 q-23 0 -41 14 q-18 14 -18 26 q6 42 6 71 l-2 304 l-155 -9 l7 -422 q0 -38 -28 -38 q-24 0 -41 14.5 q-17 14.5 -17 27.5 q0 11 4 32 q4 21 4 50 l-3 327 q0 35 -8 59 q-8 24 -8 28 q0 13 18 13 q12 0 64 -24 l140 8 q102 123 102 164 q-233 -15 -244 -15 q-47 0 -64 57 q-1 3 -1 7 q0 13 13 13 q30 -6 58 -6 q584 37 600 42 q11 3 18 3 q8 0 23 -9 q37 -24 37 -46 q0 -19 -31 -21 l-330 -21 q10 -7 10 -21 q0 -4 -3 -10 q-53 -85 -99 -132 l403 23 q33 0 49 -16 q16 -16 16 -31 l-6 -30 l-4 -403 l1 -36 q0 -31 -18.5 -47.5 Z" /><glyph glyph-name="uni2F81" unicode="&#x2f81;&#x8089;" d="M186 -99 q-24 0 -47 26 q-12 13 -12 25 q0 10 4 28 q4 18 7 576 q0 29 -6 44.5 q-6 15.5 -8 21 q-2 5.5 -2 10.5 q0 14 18 14 q12 0 71 -25 l241 15 q13 53 15 115 q0 33 -4.5 44.5 q-4.5 11.5 -4.5 14.5 q0 14 23 14 q17 0 45 -13 q18 -8 18 -28 q-3 -88 -15 -143 l282 17 q31 0 47.5 -13 q16.5 -13 16.5 -26 q0 -12 -3.5 -16 q-3.5 -4 -9.5 -600 l3 -36 q0 -23 -15 -39 q-15 -16 -32 -16 q-16 0 -58.5 19 q-42.5 19 -107 65.5 q-64.5 46.5 -64.5 68.5 q0 13 17 13 q12 0 42 -14 q79 -38 140 -55 l5 579 l-283 -16 q-2 -8 -5 -13 q120 -65 242 -145 q15 -9 15 -23 q0 -14 -14.5 -31.5 q-14.5 -17.5 -23.5 -17.5 q-9 0 -48 30 q-80 64 -201 130 q-65 -120 -193 -174 q-25 -12 -33 -12 q-13 0 -13 14 q0 10 22 27 q124 88 174 211 l-218 -12 l-2 -618 q0 -36 -25 -36 ZM250 74 q-15 0 -15 12 q0 16 28 33 q151 87 195 236 q6 20 6 37 l-3 29 q0 15 20 15 q15 0 44 -15 q17 -10 17 -22 q0 -11 -7 -43 q-7 -32 -21 -62 q226 -125 226 -148 q0 -9 -6 -21 q-14 -31 -34 -31 q-8 0 -41 25 q-76 61 -176 118 q-60 -101 -197 -153 q-27 -10 -36 -10 Z" /><glyph glyph-name="uni2F83" unicode="&#x2f83;&#x81ea;" d="M270 -101 q-24 0 -42 14.5 q-18 14.5 -18 35.5 q4 24 4 60 l-16 551 q-2 30 -13 50 q-11 20 -11 29 q0 13 20 13 q14 0 76 -22 l74 4 q97 115 97 156 q0 14 -1 19 q0 20 17 20 q11 0 30 -9 q48 -22 48 -49 q0 -16 -40 -64 q-40 -48 -59 -68 l293 16 q41 0 59.5 -14.5 q18.5 -14.5 18.5 -27.5 q0 -12 -4 -18.5 q-4 -6.5 -32 -539.5 q28 -35 28 -48 q0 -16 -12 -19 q-12 -3 -491 -15 l2 -47 q0 -27 -28 -27 ZM281 439 l430 21 l6 122 l-440 -24 l4 -119 ZM288 250 l415 19 l6 121 l-426 -21 l5 -119 ZM294 44 l400 11 l7 145 l-412 -19 l5 -137 Z" /><glyph glyph-name="uni2F84" unicode="&#x2f84;&#x81f3;" d="M797.5 366.5 q-14.5 -16.5 -29.5 -16.5 q-15 0 -29.5 16 q-14.5 16 -49.5 59 q-122 -21 -449 -51 l-16 -1 q-24 0 -36 15.5 q-12 15.5 -23 47.5 q0 15 17 15 q30 -5 58 -5 l25 2 q88 120 133 202 l-202 -12 q-37 0 -47 15 q-19 27 -19 39 q0 16 11 16 q6 0 13 -2.5 q7 -2.5 20 -2.5 q602 38 615 41.5 q13 3.5 22 3.5 q11 0 21.5 -11 q10.5 -11 17 -23 q6.5 -12 6.5 -17 q0 -18 -29 -20 l-336 -21 q-48 -81 -136 -203 q148 12 289 31 q-20 24 -90 93 q-7 7 -7 13 q0 6 12 22 q12 16 27 16 q14 0 26 -12 q111 -107 188 -196 q12 -15 12 -26 q0 -11 -14.5 -27.5 ZM134 -60 q-44 0 -55.5 10.5 q-11.5 10.5 -18.5 30 q-7 19.5 -7 24.5 q0 10 13 10 q28 -4 59 -4 l326 10 l1 148 l-182 -9 q-32 0 -44.5 9 q-12.5 9 -21 27.5 q-8.5 18.5 -8.5 21.5 q0 12 19 12 q18 -2 30 -2 l207 7 l0 87 q0 24 -6 32.5 q-6 8.5 -6 12.5 q0 14 27 14 q21 0 43.5 -8.5 q22.5 -8.5 22.5 -23.5 l-1 -111 q166 10 178 14 q12 4 28 4 q10 0 21.5 -10.5 q11.5 -10.5 18 -22.5 q6.5 -12 6.5 -18 q0 -20 -31 -22 l-221 -11 l-1 -149 q342 10 352.5 13 q10.5 3 17.5 3 q8 0 19 -8 q28 -23 28 -42 q0 -22 -27 -25 l-787 -24 Z" /><glyph glyph-name="uni2F8A" unicode="&#x2f8a;&#x8272;" d="M531 -60 q-134 0 -236 6 q-48 2 -74.5 30.5 q-26.5 28.5 -26.5 73.5 l3 380 q0 24 -5 34 q-72 -58 -97 -58 q-15 0 -15 12 q0 12 20 29 q186 159 287 323 q10 16 10 37 q0 21 16 21 q9 0 24.5 -8.5 q15.5 -8.5 28.5 -21 q13 -12.5 13 -23.5 q0 -18 -69 -107 l219 15 q33 0 47.5 -15.5 q14.5 -15.5 14.5 -24.5 q0 -16 -57 -75 q-49 -55 -66 -70 l211 9 q30 0 43 -28 q5 -10 5 -15 q0 -6 -3 -10.5 q-3 -4.5 -30 -169.5 q27 -25 27 -39 q0 -17 -38 -19 l-512 -21 l-1 -141 q0 -41 36 -44 q86 -7 232 -7 q334 0 345 42 q17 59 25 117.5 q8 58.5 26 58.5 q16 0 19 -28.5 q3 -28.5 3 -66.5 q0 -38 -3 -100 q-2 -37 -30 -59 q-47 -37 -392 -37 ZM268 483 l204 10 q63 63 106 120 l-228 -14 q-51 -54 -116 -104 l34 -12 ZM535 283 l185 8 l19 149 l-202 -11 l-2 -146 ZM271 272 l192 9 l3 145 l-194 -10 l-1 -144 Z" /><glyph glyph-name="uni2F8F" unicode="&#x2f8f;&#x884c;" d="M83 447 q-13 0 -13 13 q0 8 19 27 q81 81 156 191 q44 66 44 95 l-1 6 q0 20 18 20 q9 0 25.5 -8.5 q16.5 -8.5 30.5 -21 q14 -12.5 14 -22.5 q0 -10 -5 -17 q-110 -175 -262 -272 q-18 -11 -26 -11 ZM511 631 q-18 0 -35 6.5 q-17 6.5 -29 40.5 q-2 7 -2 11 q0 13 18 13 q18 -3 33 -3 l270 17 q21 1 33 5 q12 4 20 4 q9 0 22 -8 q34 -22 34 -43 q0 -18 -28 -21 l-336 -22 ZM254 -100 q-22 0 -40 13.5 q-18 13.5 -18 27.5 q0 11 4.5 29.5 q4.5 18.5 4.5 53.5 l2 251 q-67 -73 -145 -127 q-16 -12 -26 -12 q-14 0 -14 11 q0 11 17 29 q141 148 238 320 q10 19 10 36 q0 31 17 31 q13 0 29 -10 q16 -10 29 -23.5 q13 -13.5 13 -22.5 q0 -22 -100 -152 l5 -423 q0 -32 -26 -32 ZM693 -110 q-42 0 -155 79 q-63 45 -63 60 q0 12 18 12 q12 0 66.5 -21.5 q54.5 -21.5 104.5 -38.5 l3 435 l-237 -14 q-36 0 -47 10 q-11 10 -18.5 26.5 q-7.5 16.5 -7.5 22.5 q0 14 14 14 q5 0 14.5 -2 q9.5 -2 39.5 -2 q466 25 477 29 q11 4 19 4 q9 0 22 -9 q34 -21 34 -42 q0 -19 -28 -22 l-204 -12 l-2 -445 l2 -29 q0 -18 -17 -36.5 q-17 -18.5 -35 -18.5 Z" /><glyph glyph-name="uni2F93" unicode="&#x2f93;&#x89d2;" d="M280 557 l217 12 q76 65 105 100 l-222 -15 q-50 -53 -103 -95 l3 -2 ZM281 230 l194 6 l0 112 l-188 -8 q-3 -77 -6 -110 ZM548 238 l204 8 l-1 112 l-203 -8 l0 -112 ZM287 406 l188 8 l0 89 l-189 -11 l1 -86 ZM547 416 l204 8 l0 93 l-204 -11 l0 -90 ZM784 -105 q-17 0 -51.5 17 q-34.5 17 -94 63.5 q-59.5 46.5 -59.5 68.5 q0 14 16 14 q11 0 38 -15 q79 -45 119 -56 l0 193 l-203 -7 l0 -216 q0 -32 -22 -32 q-5 0 -19 5.5 q-14 5.5 -27 17.5 q-13 12 -13 35 q0 6 4 23 q4 17 4 164 l-206 -7 q-27 -104 -100 -189 q-31 -35 -56 -54 q-25 -19 -35 -19 q-15 0 -15 14 q0 10 15 29 q89 106 115 215 q19 80 19 234 l-1 116 q-69 -49 -82 -49 q-17 0 -17 14 q0 13 13 23 q156 135 261 290 q9 16 9 42 q0 22 15 22 q10 0 27.5 -10.5 q17.5 -10.5 32 -24 q14.5 -13.5 14.5 -25.5 q0 -11 -50 -72 l217 15 q28 0 44.5 -15.5 q16.5 -15.5 16.5 -27.5 q0 -21 -113 -117 l177 10 q22 0 38 -11 q16 -11 16 -28 l-3 -21 q1 -545 2 -573 q0 -15 -14 -35.5 q-14 -20.5 -32 -20.5 Z" /><glyph glyph-name="uni2F94" unicode="&#x2f94;&#x8a00;" d="M629 641 q-9 0 -42 13 q-81 35 -208 66 q-28 7 -28 29 q0 7 7 24 q7 17 24 17 q14 0 109.5 -26 q95.5 -26 137.5 -42 q27 -10 27 -34 q-5 -25 -10 -36 q-5 -11 -17 -11 ZM129 538 q-16 0 -33 9 q-17 9 -28 48 q-1 3 -1 8 q0 10 13 10 q25 -5 48 -5 l695 37 q33 2 44 6.5 q11 4.5 18 4.5 q8 0 22 -9 q36 -23 36 -48 q0 -19 -30 -21 l-784 -40 ZM310 409 q-38 0 -47 10 q-16 20 -24 48 q0 13 17 13 q40 -4 48 -4 q384 23 393.5 27 q9.5 4 15.5 4 q6 0 18 -9 q34 -23 34 -43 q0 -20 -32 -22 l-423 -24 ZM313 278 q-29 0 -45 8 q-16 8 -27 52 q0 13 13 13 q37 -5 53 -5 q379 17 388 19.5 q9 2.5 17 2.5 q8 0 20 -7 q31 -19 31 -41 q0 -21 -30 -23 l-420 -19 ZM328 -109 q-14 0 -35 11.5 q-21 11.5 -21 38.5 q2 18 2 38 q0 11 -16 156 q-3 27 -12 45.5 q-9 18.5 -9 23.5 q0 13 21 13 q16 0 66 -18 l377 16 q35 0 50.5 -14 q15.5 -14 15.5 -26 q0 -11 -3.5 -16 q-3.5 -5 -28.5 -145 q26 -32 26 -44 q0 -14 -12.5 -18 q-12.5 -4 -400.5 -10 l2 -23 q0 -28 -22 -28 ZM341 11 l321 6 l19 129 l-351 -14 l11 -121 Z" /><glyph glyph-name="uni2F95" unicode="&#x2f95;&#x8c37;" d="M837 504.5 q-11 -9.5 -21 -9.5 q-10 0 -23 13 q-113 124 -227 220 q-12 10 -12 17 q0 5 5 16 q14 27 33 27 q28 0 216 -178 q28 -27 42 -41 q14 -14 14 -23 q0 -10 -8 -21 q-8 -11 -19 -20.5 ZM118 448 q-15 0 -15 11 q0 12 14.5 24.5 q14.5 12.5 38.5 37.5 q171 171 171 244 q0 20 16 20 q14 0 42 -21.5 q28 -21.5 28 -37.5 q0 -7 -8 -20 q-74 -105 -171 -186 q-90 -72 -116 -72 ZM321 -106 q-23 0 -41.5 15 q-18.5 15 -18.5 34 q5 35 5 58 q0 8 -14 201 q-2 33 -10 50 q-80 -58 -138.5 -86.5 q-58.5 -28.5 -69.5 -28.5 q-16 0 -16 12 q0 12 25 29 q193 127 318 288 q53 66 78.5 112 q25.5 46 25.5 55 l-4 22 q0 16 17 16 q11 0 28 -7 q46 -20 46 -45 q0 -7 -29 -56 q202 -218 436 -337 q18 -9 18 -18 q0 -9 -9 -16 q-35 -35 -50 -35 q-20 0 -145 89 q-153 112 -286 259 q-82 -123 -203 -221 l40 -14 l352 18 q34 0 53 -17.5 q19 -17.5 19 -29.5 q0 -12 -4.5 -19 q-4.5 -7 -25.5 -192 q29 -26 29 -48 q0 -20 -28 -20 l-374 -8 l2 -33 q0 -27 -26 -27 ZM342 23 l299 9 l15 185 l-327 -15 l13 -179 Z" /><glyph glyph-name="uni2F9C" unicode="&#x2f9c;&#x8db3;" d="M45 -91 q-14 0 -14 15 q0 11 18 30 q107 112 164.5 229.5 q57.5 117.5 57.5 157.5 q0 12 -2 25 q0 18 15 18 q6 0 24 -9 q52 -22 52 -42 q0 -4 -16 -47 q-16 -43 -46 -100 q72 -40 169 -75 l2 342 l-122 -7 l1 -12 q0 -29 -24 -29 q-22 0 -39 14 q-17 14 -17 32 q2 16 2 28 l-17 191 q-3 34 -13.5 49.5 q-10.5 15.5 -10.5 24.5 q0 12 21 12 q15 0 67 -17 l393 26 q27 0 43.5 -13 q16.5 -13 16.5 -25 q0 -12 -3 -16.5 q-3 -4.5 -26 -184.5 q25 -29 25 -40 q0 -14 -12 -16.5 q-12 -2.5 -208 -13.5 l-1 -139 q173 9 183 12.5 q10 3.5 18 3.5 q8 0 21 -9 q36 -23 36 -44 q0 -19 -31 -21 l-227 -13 l-1 -162 q186 -58 416 -77 q26 -1 26 -18 q0 -5 -7 -23 q-16 -36 -42 -36 q-59 0 -182 26 q-315 65 -490 172 q-41 -66 -89 -116 q-48 -50 -84.5 -76.5 q-36.5 -26.5 -46.5 -26.5 ZM340 514 l328 18 l14 164 l-355 -25 q7 -78 13 -157 Z" /><glyph glyph-name="uni2F9D" unicode="&#x2f9d;&#x8eab;" d="M668 -100 q-39 0 -151 72 q-64 42 -64 57 q0 12 16 12 q10 0 58 -16.5 q48 -16.5 111 -27.5 l0 206 q-202 -148 -456 -231 q-118 -37 -140 -37 q-27 0 -27 15 q0 18 42 34 q347 127 554 290 q-151 -37 -422 -78 q-35 -5 -47 -5 q-15 0 -30.5 15 q-15.5 15 -23.5 32 q-8 17 -8 24 q0 11 14 11 l48 -6 q30 2 115 13 q0 316 -8 363 q-3 20 -7.5 29 q-4.5 9 -4.5 15 q0 11 19 11 q14 0 68 -25 l60 2 q81 96 81 123 l-1 24 q0 15 16 15 q11 0 27.5 -7 q16.5 -7 30.5 -18 q14 -11 14 -21 q0 -9 -13 -27 q-33 -46 -75 -84 l193 11 q24 0 42 -10 q18 -10 18 -30 l-4 -23 l1 -262 q10 10 41 50 q63 78 65 113 q3 20 16 20 q6 0 21 -11 q45 -31 45 -59 q0 -14 -63.5 -88 q-63.5 -74 -124.5 -127 q1 -264 3 -305 q0 -21 -15.5 -40 q-15.5 -19 -33.5 -19 ZM330 552 l307 14 l0 57 l-307 -16 l0 -55 ZM331 434 l306 14 l0 56 l-307 -14 l1 -56 ZM331 292 q214 27 306 45 l0 48 l-306 -14 l0 -79 Z" /><glyph glyph-name="uni2FA5" unicode="&#x2fa5;&#x91cc;" d="M144 -48 q-51 0 -62.5 11 q-11.5 11 -20 29.5 q-8.5 18.5 -8.5 24.5 q0 11 11 11 q5 0 18.5 -3.5 q13.5 -3.5 52.5 -3.5 l320 8 l0 121 l-193 -8 q-22 0 -33 10 q-24 26 -28 51 q0 14 10 14 q5 0 20.5 -4.5 q15.5 -4.5 37.5 -4.5 l186 8 l0 108 l-161 -8 l2 -25 q0 -28 -22 -28 q-4 0 -18 5 q-40 18 -40 50 q2 22 2 37 q0 7 -23 302 q-1 26 -10.5 49 q-9.5 23 -9.5 30 q0 12 20 12 q15 0 62 -18 l498 30 q38 0 52.5 -16.5 q14.5 -16.5 14.5 -26.5 q0 -9 -4 -17 q-4 -8 -33 -302 q26 -27 26 -38 q0 -14 -9.5 -18 q-9.5 -4 -272.5 -15 l-1 -108 q201 8 211 12 q10 4 21 4 q11 0 30 -16 q19 -16 19 -33 q0 -20 -25 -23 l-256 -11 l-1 -121 l299 8 q32 2 49.5 6 q17.5 4 25.5 4 q9 0 23 -8 q14 -8 25 -21 q11 -13 11 -26 q0 -20 -20 -20 l-796 -22 ZM530 570 l197 12 l8 112 l-204 -12 l-1 -112 ZM276 555 l179 11 l0 112 l-188 -12 l9 -111 ZM529 392 l185 9 l9 117 l-193 -12 l-1 -114 ZM289 380 l166 9 l0 114 l-175 -11 l9 -112 Z" /><glyph glyph-name="uni2FAF" unicode="&#x2faf;&#x9762;" d="M244 -51 q0 -26 -20 -26 q-20 0 -44 19 q-14 11 -14 38 q2 10 2 35 q0 18 -24 406 q-2 36 -17 61 q-8 16 -8 23 q0 12 21 12 q16 0 73 -24 l118 7 q95 111 95 142 l-286 -18 q-32 0 -49 34 q-11 22 -11 27 q0 10 11 10 l43 -6 q685 42 696 46.5 q11 4.5 19 4.5 q9 0 22 -9 q34 -23 34 -43 q0 -17 -30 -19 l-384 -24 q18 -11 18 -25 q0 -14 -38 -58 q-38 -44 -52 -57 l391 21 q35 0 49.5 -18 q14.5 -18 14.5 -26 q0 -8 -3 -14 q-3 -6 -38 -401 q30 -32 30 -44 q0 -16 -14 -18.5 q-14 -2.5 -607 -19.5 l2 -36 ZM627 61 l132 4 l29 395 l-152 -8 l-9 -391 ZM425 358 l139 7 l2 84 l-142 -8 l1 -83 ZM239 49 l125 4 l-9 385 l-139 -8 l23 -381 ZM428 214 l133 7 l2 84 l-137 -7 l2 -84 ZM431 55 l126 4 l3 104 l-131 -6 l2 -102 Z" /><glyph glyph-name="uni2FB8" unicode="&#x2fb8;&#x9996;" d="M310 -95 q-23 0 -38 14 q-15 14 -15 32 l4 46 l-18 398 q-3 34 -10.5 50 q-7.5 16 -7.5 20 q0 13 20 13 q15 0 68 -20 l50 3 q12 10 22 22 q43 44 51 72 l-298 -17 q-18 -2 -34 -2 q-19 0 -36.5 21 q-17.5 21 -17.5 36 q0 11 17 11 q20 -3 35 -3 l293 17 q-10 5 -23 20 q-44 54 -100 98 q-11 9 -11 21 q0 10 13 23 q13 13 21 13 q7 0 34 -17.5 q27 -17.5 71.5 -57.5 q44.5 -40 44.5 -55 q0 -15 -14 -31 q-7 -9 -13 -13 l83 5 q142 122 145 181 q0 18 17 18 q7 0 24 -8 q17 -8 32 -21 q15 -13 15 -29 q0 -16 -56.5 -68.5 q-56.5 -52.5 -78.5 -67.5 q267 16 279.5 20 q12.5 4 21.5 4 q10 0 24 -10 q31 -22 31 -38 q0 -20 -30 -22 l-418 -24 q6 -6 10 -21 q0 -11 -13 -24 q-28 -32 -47 -48 l264 14 q27 0 43.5 -11.5 q16.5 -11.5 16.5 -28.5 l-6 -19 l-20 -382 q25 -31 25 -42 q0 -15 -12.5 -18 q-12.5 -3 -432.5 -17 l1 -29 q0 -28 -26 -28 ZM320 316 l375 19 l3 79 l-382 -21 l4 -77 ZM326 178 l364 16 l3 76 l-371 -18 l4 -74 ZM332 29 l352 12 l4 87 l-360 -15 l4 -84 Z" /><glyph glyph-name="uni2FBC" unicode="&#x2fbc;&#x9ad8;" d="M152 616 q-35 0 -52 41 l-5 13 q0 13 16 13 q19 -3 36 -3 q11 0 302 16 l-1 60 q0 22 -12 41 q-4 8 -4 13 q0 14 18 14 q13 0 37.5 -8.5 q24.5 -8.5 32 -16 q7.5 -7.5 7.5 -20.5 l-1 -79 q270 15 282.5 19 q12.5 4 21.5 4 q9 0 22 -10 q31 -24 31 -41 q0 -15 -29 -17 l-702 -39 ZM358 357 q-22 0 -38.5 13 q-16.5 13 -16.5 37 q1 6 1 27 q0 15 -5 62 q-5 47 -10 57 q-5 10 -8 15 q-3 5 -3 10 q0 13 20 13 q15 0 67 -13 l280 18 q32 0 45.5 -15 q13.5 -15 13.5 -22 q0 -8 -3.5 -13 q-3.5 -5 -23.5 -87 q27 -26 27 -37 q0 -14 -13 -16.5 q-13 -2.5 -312 -15.5 l0 -2 q0 -31 -21 -31 ZM373 453 l231 12 l14 66 l-250 -16 l5 -62 ZM199 -100 q-19 0 -40.5 14 q-21.5 14 -21.5 32 q11 66 11 321 q0 25 -7 43.5 q-7 18.5 -7 22.5 q0 15 20 15 q15 0 63 -19 l592 27 q55 0 55 -38 q-4 -25 -7 -332 l2 -33 q0 -19 -16 -35 q-16 -16 -27 -16 q-34 0 -127 55 q-61 32 -61 52 q0 12 15 12 q9 0 32.5 -8 q23.5 -8 54.5 -14 q31 -6 51 -11 l4 304 l-563 -25 l-1 -335 q0 -32 -22 -32 ZM382 -3 q-23 0 -38.5 13 q-15.5 13 -15.5 28 q0 23 -9 130 q-3 28 -10 40 q-7 12 -7 19 q0 11 21 11 q16 0 60 -16 l243 14 q18 0 33 -14 q15 -14 15 -25 q0 -10 -2.5 -13.5 q-2.5 -3.5 -20.5 -83.5 q21 -26 21 -36 q0 -14 -12.5 -16.5 q-12.5 -2.5 -258.5 -11.5 l1 -7 q0 -32 -20 -32 ZM397 99 l186 7 l9 68 l-201 -11 l6 -64 Z" /><glyph glyph-name="uni2FCE" unicode="&#x2fce;&#x9f13;" d="M238 51 q18 3 39 8 q2 3 35 62 q33 59 33 86 q0 8 -1 13 q0 12 5 17 q-57 -3 -150 -8 q0 -17 -14 -21 q25 -11 80 -102 q7 -10 7 -18 q0 -10 -16 -25 q-10 -9 -18 -12 ZM918 -86 q-6 0 -45 19 q-102 48 -196 143 q-106 -100 -273 -156 q-20 -6 -32 -6 q-18 0 -18 12 q0 14 35 31 q149 77 241 170 q-54 64 -81.5 110.5 q-27.5 46.5 -27.5 56.5 q0 11 17.5 20 q17.5 9 27.5 9 q13 0 22 -19 q44 -78 87 -128 q66 77 102 173 q-244 -17 -258 -17 q-23 0 -41.5 20.5 q-18.5 20.5 -18.5 41.5 q0 10 10 10 q4 0 15 -2.5 q11 -2.5 38 -2.5 q13 0 113 6 l2 127 l-123 -8 q-49 0 -68 56 q-1 3 -1 8 q0 10 12 10 q30 -6 47 -6 q14 0 134 8 l2 128 q0 33 -17 58 q-4 6 -4 12 q0 10 17 10 q11 0 37 -8 q26 -8 34 -17.5 q8 -9.5 8 -23.5 l-4 -155 q124 9 136 13.5 q12 4.5 19 4.5 q8 0 21 -9.5 q13 -9.5 23.5 -21.5 q10.5 -12 10.5 -24 q0 -15 -23 -18 l-188 -13 l-3 -127 l114 7 q20 0 37.5 -14.5 q17.5 -14.5 17.5 -28.5 q0 -14 -7.5 -20.5 q-7.5 -6.5 -7.5 -8.5 q-56 -129 -137 -220 q87 -83 238 -141 q20 -9 20 -20 q0 -6 -12 -19 q-31 -30 -52 -30 ZM169 461 q-22 0 -32.5 9 q-10.5 9 -22 26 q-11.5 17 -11.5 25 q0 11 11 11 q5 0 14.5 -3.5 q9.5 -3.5 32.5 -3.5 q8 0 87 6 l0 59 q-129 -10 -144 -10 q-13 0 -27 11.5 q-14 11.5 -21 26 q-7 14.5 -7 21.5 q0 11 11 11 q5 0 14.5 -3 q9.5 -3 32.5 -3 l140 10 l0 62 q0 23 -8 34.5 q-8 11.5 -8 19.5 q0 12 15 12 q10 0 26 -4 q49 -10 49 -39 l-2 -81 q92 7 106 11.5 q14 4.5 21 4.5 q7 0 20 -9 q34 -21 34 -41 q0 -15 -25 -19 l-157 -11 l-1 -60 q51 3 63 7 q12 4 19 4 q8 0 21 -8 q35 -21 35 -41 q0 -18 -31 -20 l-255 -15 ZM193 288 l168 11 l7 66 l-181 -10 l6 -67 ZM110 -48 q-34 0 -59 50 q-4 8 -4 12 q0 13 22 13 l14 -1 q35 0 142 22 q-13 1 -22 22 q-24 51 -59 91 q-6 6 -6 16 q0 11 16 22 q7 5 13 8 q-40 3 -40 36 l1 17 q0 6 -7 57 q-7 64 -16 79.5 q-9 15.5 -9 22.5 q0 11 20 11 q14 0 61 -17 l210 14 q29 0 44 -10.5 q15 -10.5 15 -21.5 q0 -9 -3 -17 q-3 -8 -18 -79 q26 -30 26 -40 q0 -14 -13 -16 q-7 -1 -67 -5 q12 -4 27 -16 q23 -20 23 -33 q0 -13 -31 -57 q-31 -44 -42 -56 q50 13 86.5 24 q36.5 11 50.5 11 q18 0 18 -13 q0 -27 -240 -106 q-123 -40 -153 -40 Z" /><glyph glyph-name="uni3001" unicode="&#x3001;" d="M246 -74 q-19 0 -31 18 q-57 80 -141 158 q-9 9 -9 21 q0 12 10.5 21 q10.5 9 22.5 9 q11 0 41 -20 q74 -45 144 -116 q12 -10 12 -30 q0 -20 -15.5 -40.5 q-15.5 -20.5 -33.5 -20.5 Z" /><glyph glyph-name="uni3002" unicode="&#x3002;" d="M215 -27 q32 0 54 22 q22 22 22 55 q0 32 -22 54 q-22 22 -54 22 q-33 0 -55.5 -22.5 q-22.5 -22.5 -22.5 -53.5 q0 -32 22.5 -54.5 q22.5 -22.5 55.5 -22.5 ZM215 -93 q-40 0 -72.5 19.5 q-32.5 19.5 -52 51.5 q-19.5 32 -19.5 72 q0 39 20 71 q20 32 53 51.5 q33 19.5 73 19.5 q39 0 70.5 -19.5 q31.5 -19.5 50.5 -51.5 q19 -32 19 -71 q0 -40 -19.5 -72 q-19.5 -32 -51.5 -51.5 q-32 -19.5 -71 -19.5 Z" /><glyph glyph-name="uni300A" unicode="&#x300a;" d="M754 -84 q-19 0 -23 11 q-27 59 -40 81 l-157 286 q-21 40 -21 69 q0 28 21 68 l158 289 q11 21 23 42.5 q12 21.5 22 44.5 q6 14 23 14 q14 0 30 -14.5 q16 -14.5 16 -24.5 q0 -9 -19 -36 q-15 -21 -188 -339 q-14 -26 -14 -44 q0 -19 14 -45 q174 -319 186 -337 q19 -28 19 -38 q0 -12 -17 -19.5 q-17 -7.5 -33 -7.5 ZM903 -84 q-19 0 -23 11 q-27 59 -40 81 l-163 286 q-21 40 -21 69 q0 28 21 68 q193 340 209 376 q6 14 23 14 q14 0 30 -14 q16 -14 16 -24 q0 -10 -28 -51 q-10 -16 -185 -325 q-14 -26 -14 -44 q0 -19 14 -45 q180 -317 202 -351 q9 -14 9 -24 q0 -12 -17 -19.5 q-17 -7.5 -33 -7.5 Z" /><glyph glyph-name="uni300B" unicode="&#x300b;" d="M241 -85 q-14 0 -30.5 14.5 q-16.5 14.5 -16.5 24.5 q0 9 15.5 30.5 q15.5 21.5 191.5 344.5 q14 26 14 45 q0 18 -14 44 q-175 320 -186 337 q-19 29 -19 35 q0 15 17.5 22.5 q17.5 7.5 33.5 7.5 q18 0 22 -11 q33 -68 197 -367 q21 -35 21 -67 q0 -33 -21 -70 l-158 -289 q-11 -21 -23 -42.5 q-12 -21.5 -22 -44.5 q-6 -14 -22 -14 ZM92 -85 q-14 0 -30.5 14.5 q-16.5 14.5 -16.5 24.5 q0 9 27 50 q15 22 186 325 q14 26 14 45 q0 18 -14 44 q-180 318 -193 338 q-18 28 -18 34 q0 15 17.5 22.5 q17.5 7.5 33.5 7.5 q18 0 22 -11 q24 -52 40 -81 l163 -286 q21 -35 21 -67 q0 -33 -21 -70 q-193 -341 -209 -376 q-6 -14 -22 -14 Z" /><glyph glyph-name="uni3010" unicode="&#x3010;" d="M975 -81 l-260 0 l0 899 l260 0 q-109 -103 -147 -299 q-19 -95 -19 -199 q0 -104 18.5 -174 q18.5 -70 53.5 -120.5 q35 -50.5 94 -106.5 Z" /><glyph glyph-name="uni3011" unicode="&#x3011;" d="M285 -81 l-261 0 q109 100 148 298 q19 95 19 199 q0 104 -19 174 q-19 70 -53.5 121 q-34.5 51 -94.5 107 l261 0 l0 -899 Z" /><glyph glyph-name="uni306E" unicode="&#x306e;" d="M281 177 q26 0 94 163 q39 94 56 157 q18 71 18 88 q0 13 -1 16 q-113 -29 -186 -129 q-62 -83 -62 -143 q0 -61 38 -110 q15 -21 28 -31.5 q13 -10.5 15 -10.5 ZM488 -11 q-20 0 -20 13 q0 13 39 33 q97 48 173 121 q104 102 104 208 q0 249 -241 249 l-25 0 l-2 1 q0 -1 5.5 -6 q5.5 -5 5.5 -20 q-13 -105 -71 -254 q-97 -245 -170 -245 q-31 0 -54 19 q-105 95 -105 214 q0 65 34 128 q34 63 92 114.5 q58 51.5 132.5 84 q74.5 32.5 162.5 32.5 q210 0 286 -154 q34 -70 34 -144 q0 -133 -85 -229 q-68 -77 -170 -125 q-84 -40 -125 -40 Z" /><glyph glyph-name="uni4E03" unicode="&#x4e03;" d="M609 -45 q-71 0 -115 8 q-86 14 -103 85 q-9 35 -9 90 q0 96 2 185 q-266 -44 -278 -44 q-18 0 -40 24.5 q-22 24.5 -22 35.5 q0 14 18 14 q6 -1 17 -1 q23 0 306 45 l3 303 q0 27 -13 49 q-4 6 -4 10 q0 14 19 14 q14 0 35 -7 q44 -14 44 -36 l-3 -320 l337 54 q33 5 55 16 q22 11 31 11 q9 0 25.5 -8 q16.5 -8 30.5 -20.5 q14 -12.5 14 -26.5 q0 -19 -30 -24 l-464 -76 l-2 -180 q0 -63 11 -86.5 q11 -23.5 46 -31.5 q35 -8 111 -8 q76 0 137.5 10 q61.5 10 79 18 q17.5 8 24.5 8 q8 0 25 -9.5 q17 -9.5 32.5 -23 q15.5 -13.5 15.5 -25.5 q0 -21 -36 -27 q-154 -26 -300 -26 Z" /><glyph glyph-name="uni4E07" unicode="&#x4e07;" d="M665 -66 q-23 -34 -46 -34 q-23 0 -50 17 q-56 31 -117.5 88 q-61.5 57 -61.5 77 q0 12 15 12 q10 0 40 -19 q81 -51 155 -77 q1 -1 5 -1 q59 134 83 403 l-252 -13 q-62 -201 -173 -324 q-80 -90 -154 -122 q-27 -13 -30 -13 q-14 0 -14 15 q0 12 23 32 q269 229 303 629 l-218 -14 q-17 -2 -30 -2 q-14 0 -35.5 7 q-21.5 7 -35.5 45 q-2 3 -2 8 q0 13 15 13 q25 -5 64 -5 q693 43 705 46.5 q12 3.5 21 3.5 q9 0 24 -9 q15 -9 26.5 -21.5 q11.5 -12.5 11.5 -21.5 q0 -17 -25 -20 l-432 -26 q-7 -76 -25 -150 l257 14 q31 0 49 -12.5 q18 -12.5 18 -26.5 q0 -13 -3.5 -21 q-3.5 -8 -4.5 -12 q-34 -357 -106 -466 Z" /><glyph glyph-name="uni4E09" unicode="&#x4e09;" d="M221 588 q-25 0 -37 11 q-12 11 -19.5 32.5 q-7.5 21.5 -7.5 23.5 q0 13 13 13 q4 0 13.5 -3 q9.5 -3 36.5 -3 q13 0 494 28 q20 2 33 6.5 q13 4.5 22 4.5 q9 0 23.5 -11.5 q14.5 -11.5 25.5 -25 q11 -13.5 11 -22.5 q0 -21 -33 -23 q-544 -30 -575 -31 ZM292 320 q-24 0 -33.5 8 q-9.5 8 -21 26.5 q-11.5 18.5 -11.5 31.5 q0 17 13 17 q4 0 16 -3.5 q12 -3.5 37 -3.5 l376 18 q20 2 33 6.5 q13 4.5 21 4.5 q8 0 23 -11 q15 -11 26.5 -25 q11.5 -14 11.5 -25 q0 -21 -33 -23 l-458 -21 ZM130 8 q-30 0 -44.5 11.5 q-14.5 11.5 -24 31 q-9.5 19.5 -9.5 28.5 q0 14 12 14 q6 0 17 -3 q11 -3 33 -3 l713 24 q15 1 35 5.5 q20 4.5 28 4.5 q8 0 24 -9.5 q16 -9.5 29 -24 q13 -14.5 13 -26.5 q0 -24 -32 -26 l-794 -27 Z" /><glyph glyph-name="uni4E0A" unicode="&#x4e0a;" d="M114 -31 q-49 0 -66 45 q-7 18 -7 24 q0 11 11 11 q6 0 18.5 -3 q12.5 -3 33.5 -3 l328 12 l-5 663 q0 27 -14 48 q-5 8 -5 14 q0 13 18 13 q12 0 36 -7 q48 -17 48 -39 l1 -285 l175 10 q36 3 47.5 7.5 q11.5 4.5 23.5 4.5 q12 0 27.5 -11.5 q15.5 -11.5 26.5 -25 q11 -13.5 11 -21.5 q0 -17 -30 -21 l-281 -17 l2 -330 l319 12 q27 2 41.5 6 q14.5 4 22.5 4 q8 0 23.5 -9.5 q15.5 -9.5 28.5 -24 q13 -14.5 13 -25.5 q0 -21 -31 -23 l-816 -29 Z" /><glyph glyph-name="uni4E0B" unicode="&#x4e0b;" d="M494 -98 q-14 0 -30 10 q-35 18 -35 44 q0 9 4 29 q4 20 4 43 l0 608 l-291 -17 q-30 0 -41.5 9 q-11.5 9 -22.5 26.5 q-11 17.5 -11 29.5 q0 16 12 16 q3 0 13.5 -3.5 q10.5 -3.5 47.5 -3.5 q692 40 701.5 44 q9.5 4 18.5 4 q10 0 25 -10 q15 -10 26.5 -23.5 q11.5 -13.5 11.5 -23.5 q0 -20 -32 -22 l-378 -22 l0 -148 q0 -2 15.5 -2 q15.5 0 101.5 -51 q176 -105 176 -132 q0 -8 -7 -22 q-15 -32 -35 -32 q-10 0 -26 12 q-110 89 -226 152 l1 -1 l1 -481 q0 -33 -24 -33 Z" /><glyph glyph-name="uni4E0D" unicode="&#x4e0d;" d="M496 -98 q-8 0 -22.5 6 q-14.5 6 -27 19 q-12.5 13 -12.5 26 q0 12 4 30 q4 18 4 44 l0 365 q-99 -113 -234 -202 q-57 -38 -97.5 -58.5 q-40.5 -20.5 -51.5 -20.5 q-17 0 -17 13 q0 13 22 28 q237 167 375 362 q-2 10 -11 21 q-9 11 -9 16 q0 13 21 13 q15 0 31 -5 q19 29 50 85 l-363 -19 q-47 0 -64 57 q-1 3 -1 7 q0 13 13 13 q30 -6 58 -6 q652 35 663.5 39 q11.5 4 18.5 4 q8 0 23 -10 q37 -23 37 -45 q0 -17 -30 -21 l-256 -14 q-43 -79 -98 -157 l1 -558 q0 -32 -27 -32 ZM880 149 q-13 0 -26 11 q-146 123 -274 200 q-18 11 -18 24 q0 11 11 28 q11 17 24 17 q12 0 56 -27 q115 -69 250 -171 q18 -14 18 -26 q0 -10 -4.5 -22.5 q-4.5 -12.5 -13.5 -23 q-9 -10.5 -23 -10.5 Z" /><glyph glyph-name="uni4E0E" unicode="&#x4e0e;" d="M680 -109 q-12 0 -56 20 q-44 20 -112.5 67.5 q-68.5 47.5 -68.5 69.5 q0 14 18 14 q12 0 57 -22 q45 -22 143 -55 q5 0 7 3 q35 69 66 214 q22 119 27 186 q-450 -22 -459 -25 q-9 -3 -21 -3 q-12 0 -30 8 q-18 8 -18 30 q0 7 19.5 87.5 q19.5 80.5 36 167.5 q16.5 87 16.5 102 q0 15 -3.5 27.5 q-3.5 12.5 -3.5 18.5 q0 14 16 14 q10 0 30 -8 q44 -18 44 -43 l-30 -153 l298 16 q62 5 74 10 q12 5 23 5 q11 0 26 -8.5 q15 -8.5 26.5 -21.5 q11.5 -13 11.5 -24 q0 -17 -27 -20 l-446 -24 l-27 -110 l464 23 q26 0 46 -12 q20 -12 20 -27 q0 -14 -2.5 -21 q-2.5 -7 -5.5 -34 q-6 -55 -25 -160 q-40 -201 -78 -267 q-25 -45 -56 -45 ZM106 171 q-19 0 -34 13.5 q-15 13.5 -22.5 28.5 q-7.5 15 -7.5 21 q0 11 17 11 q26 -7 57 -7 q14 0 408 18 q26 1 52 7 q26 6 35 6 q9 0 23 -9 q36 -22 36 -45 q0 -17 -21 -20 l-502 -22 q-24 -2 -41 -2 Z" /><glyph glyph-name="uni4E13" unicode="&#x4e13;" d="M649 -110 q-9 0 -25 12 q-109 89 -244 170 q-22 12 -22 27 q0 39 33 39 q28 0 132 -71 q82 82 139 168 q-293 -16 -302 -19 q-9 -3 -21 -3 q-12 0 -30 8 q-18 8 -18 30 q0 7 2 14 q29 78 49 137 l-176 -9 q-24 -2 -39 -2 q-18 0 -33 11.5 q-15 11.5 -23 27.5 q-8 16 -8 25 q0 14 13 14 l55 -6 l233 12 l4 13 q16 54 27 97 l-149 -9 q-29 0 -38 6 q-35 24 -35 57 q0 13 11 13 q6 0 16.5 -3 q10.5 -3 35.5 -3 q13 0 177 10 l3 15 q20 87 20 102 q0 14 -3.5 26.5 q-3.5 12.5 -3.5 18.5 q0 14 15 14 q10 0 31 -8 q44 -18 44 -43 l-27 -121 q253 16 266 20.5 q13 4.5 21 4.5 q8 0 22 -10 q38 -25 38 -46 q0 -19 -31 -21 l-335 -20 q-15 -54 -33 -110 l382 20 q26 2 36.5 6.5 q10.5 4.5 17.5 4.5 q8 0 23.5 -10 q15.5 -10 28.5 -24 q13 -14 13 -23 q0 -19 -30 -21 l-495 -25 q-17 -53 -40 -118 q342 22 355 22 q26 0 38 -15.5 q12 -15.5 12 -26.5 q0 -11 -6 -18 q-10 -10 -42 -54.5 q-32 -44.5 -143 -172.5 q80 -50 90 -61 q10 -11 10 -20 q0 -8 -6 -19 q-15 -33 -35 -33 Z" /><glyph glyph-name="uni4E14" unicode="&#x4e14;" d="M129 -33 q-40 0 -53.5 13 q-13.5 13 -24.5 48 q-1 3 -1 8 q0 9 11 9 q5 0 17 -3.5 q12 -3.5 41 -3.5 l139 4 l-5 607 q0 35 -7.5 49 q-7.5 14 -7.5 22 q0 11 21 11 q16 0 64 -19 l369 23 q22 0 37.5 -15.5 q15.5 -15.5 15.5 -25.5 q0 -11 -3 -16 q-3 -5 -7 -623 q130 3 145 7 q15 4 23 4 q9 0 23 -9 q30 -24 30 -46 q0 -20 -33 -22 l-794 -22 ZM329 499 l332 18 l0 147 l-333 -20 l1 -145 ZM330 289 l330 16 l0 143 l-331 -18 l1 -141 ZM332 44 l327 9 l1 183 l-329 -15 l1 -177 Z" /><glyph glyph-name="uni4E16" unicode="&#x4e16;" d="M265 -34 q-15 0 -32.5 16 q-17.5 16 -17.5 30 q0 12 5 32 q5 20 5 44 l-3 325 l-106 -5 q-29 0 -39 7 q-10 7 -24.5 24.5 q-14.5 17.5 -14.5 29.5 q0 15 12 15 q6 0 16.5 -3 q10.5 -3 42.5 -3 q12 0 112 6 l-1 143 q0 34 -9.5 43.5 q-9.5 9.5 -9.5 18.5 q0 12 16 12 q11 0 28 -3 q52 -9 52 -35 l1 -176 l151 9 l0 190 q0 34 -16 52 q-5 5 -5 11 q0 13 16 13 q79 0 79 -46 l2 -217 l141 8 l5 192 q0 35 -15 54 q-5 7 -5 13 q0 13 16 13 q10 0 28 -4 q57 -12 57 -46 l-9 -218 l91 5 q31 3 45.5 8.5 q14.5 5.5 22.5 5.5 q8 0 23.5 -9.5 q15.5 -9.5 28 -23.5 q12.5 -14 12.5 -25 q0 -21 -31 -23 l-195 -10 l-7 -176 q33 -36 33 -47 q0 -15 -13.5 -18 q-13.5 -3 -225.5 -13 l0 -23 q0 -30 -22 -30 q-8 0 -22.5 6 q-14.5 6 -26.5 17 q-12 11 -12 27 q6 30 6 53 l0 190 l-151 -8 l3 -370 l456 15 q40 2 58.5 8 q18.5 6 29.5 6 q11 0 27 -11 q16 -11 27.5 -25 q11.5 -14 11.5 -24 q0 -20 -35 -22 l-555 -17 q-21 -1 -32.5 -6 q-11.5 -5 -24.5 -5 ZM526 257 l134 6 l5 173 l-140 -8 l1 -171 Z" /><glyph glyph-name="uni4E1A" unicode="&#x4e1a;" d="M357 48 l-6 669 q-1 6 -9 16 q-8 10 -8 22.5 q0 12.5 17 12.5 q17 0 41.5 -6.5 q24.5 -6.5 31 -17 q6.5 -10.5 6.5 -23.5 l0 -4 l2 0 l4 -667 l112 4 l9 657 q-2 14 -10 24 q-8 10 -8 22.5 q0 12.5 17 12.5 q17 0 41.5 -6.5 q24.5 -6.5 31 -17 q6.5 -10.5 6.5 -23.5 l0 -4 l3 0 l-10 -664 l207 4 q21 0 35 5.5 q14 5.5 22 5.5 q8 0 23 -11 q40 -28 40 -50 q0 -18 -32 -22 l-777 -18 l-34 -1 q-45 0 -64 47 q-7 18 -7 21 q0 14 17 14 l7 0 q24 -6 55 -6 l240 4 l-3 0 ZM294 242 q-19 -14 -34 -14 q-15 0 -26 25 q-29 99 -87 212 q-20 38 -20 47 q0 9 17 20 q17 11 29.5 11 q12.5 0 28 -23.5 q15.5 -23.5 34 -59.5 q18.5 -36 36.5 -73.5 q18 -37.5 29.5 -72 q11.5 -34.5 11.5 -46.5 q0 -12 -19 -26 ZM716 254 q-26 -24 -37 -24 q-12 0 -12 13.5 q0 13.5 15.5 38 q15.5 24.5 56.5 117.5 q41 93 41 143 l0 9 q0 20 13 20 q13 0 30 -11 q17 -11 30.5 -26.5 q13.5 -15.5 13.5 -26.5 q0 -11 -13.5 -43 q-13.5 -32 -35 -66.5 q-21.5 -34.5 -48 -75.5 q-26.5 -41 -54.5 -68 Z" /><glyph glyph-name="uni4E1C" unicode="&#x4e1c;" d="M923 44 q0 -16 -15.5 -32.5 q-15.5 -16.5 -29 -16.5 q-13.5 0 -24.5 13 q-86 81 -203 157 q-11 7 -11 15.5 q0 8.5 7 19.5 q15 28 33 28 q18 0 99 -58 q144 -101 144 -126 ZM103 -26 q-13 0 -13 13 q0 13 22 31 q175 133 175 188 q0 26 14 26 q8 0 26 -9 q47 -24 47 -49 q0 -8 -5 -15 q-65 -72 -123 -112 q-58 -40 -97 -56.5 q-39 -16.5 -46 -16.5 ZM567.5 -41.5 q0.5 -24.5 -12.5 -42.5 q-13 -18 -31.5 -18 q-18.5 0 -53 16 q-34.5 16 -83 51 q-48.5 35 -48.5 51 q0 12 14 12 q14 0 59 -18 q45 -18 79 -25 l-2 295 q-224 -14 -233.5 -16.5 q-9.5 -2.5 -21.5 -2.5 q-12 0 -27.5 7.5 q-15.5 7.5 -15.5 20.5 q0 13 6 25 q85 123 138 249 l-140 -7 q-32 0 -48 13 q-16 13 -21.5 28 q-5.5 15 -5.5 22 q0 12 13 12 q7 0 18.5 -3 q11.5 -3 31.5 -3 l181 10 q45 111 47.5 123.5 q2.5 12.5 2.5 21.5 l-1 18 q0 5 1.5 12.5 q1.5 7.5 14 7.5 q12.5 0 30.5 -9 q37 -15 37 -37 l0 -6 q-4 -6 -50 -127 q350 19 363.5 23 q13.5 4 22 4 q8.5 0 23.5 -9 q36 -22 36 -45 q0 -17 -32 -21 l-441 -23 q-52 -124 -120 -230 l6 0 q15 0 185 9 l-1 102 q0 22 -8 35 q-8 13 -8 20 q0 15 21 15 q21 0 52 -14 q19 -8 19 -26 l1 -128 q187 10 197 14 q10 4 17 4 q7 0 19 -9 q31 -24 31 -44 q0 -15 -25 -19 l-239 -14 q2 -300 2.5 -324.5 Z" /><glyph glyph-name="uni4E24" unicode="&#x4e24;" d="M199 70 q3 7 10 17 q118 159 143 349 l-155 -8 l2 -358 ZM179 -101 q-24 0 -47 22 q-12 13 -12 24 q0 17 2 37.5 q2 20.5 2 410.5 q0 70 -18 110 l-1 9 q0 13 18 13 q12 0 74 -28 l162 9 q5 61 7 143 l-197 -10 q-20 -2 -30 -2 q-11 0 -22 3 q-32 7 -45 54 q-1 3 -1 8 q0 9 13 9 q30 -5 44 -5 l461 25 q4 3 13 3 q7 0 15 -2 q210 11 224 15 q14 4 24 4 q10 0 23.5 -11.5 q13.5 -11.5 22.5 -24 q9 -12.5 9 -18.5 q0 -18 -28 -21 l-224 -12 q-3 -67 -8 -142 l158 9 q16 0 30 -5 q36 -17 36 -41 q0 -9 -4 -15.5 q-4 -6.5 -6 -466.5 l1 -37 q0 -33 -20 -48.5 q-20 -15.5 -35 -15.5 q-15 0 -59.5 24 q-44.5 24 -74.5 49.5 q-30 25.5 -43 44 q-13 18.5 -13 25.5 q0 10 16 10 q11 0 36 -15 q54 -31 114 -44 l1 462 l-143 -7 q-4 -46 -10 -73 q37 -37 127 -150 q8 -12 8 -22 q0 -10 -12.5 -25.5 q-12.5 -15.5 -27.5 -15.5 q-16 0 -28 19 q-43 71 -85 121 q-29 -107 -97 -191 q-68 -84 -91 -84 q-14 0 -14 15 q0 10 13 28 q126 173 145 375 l-159 -9 q-3 -29 -7 -48 q34 -34 54 -59.5 q20 -25.5 46 -58.5 q8 -12 8 -22 q0 -10 -13 -25.5 q-13 -15.5 -28 -15.5 q-15 0 -30.5 24.5 q-15.5 24.5 -28.5 46.5 q-13 22 -26 37 q-29 -107 -97 -191 q-68 -84 -91 -84 q-7 0 -11 4 l1 -118 q0 -30 -21 -30 ZM431 509 l157 10 q4 61 6 142 l-154 -8 q-4 -79 -9 -144 Z" /><glyph glyph-name="uni4E25" unicode="&#x4e25;" d="M56 -94 q-14 0 -14 16 q0 11 13 29 q36 49 66 129 q46 113 46 258 q0 28 -7 49 q-7 21 -7 27 q0 11 19 11 q14 0 69 -25 l139 8 l-8 274 l-159 -9 q-30 -3 -45 -3 q-17 0 -30.5 13.5 q-13.5 13.5 -19.5 27 q-6 13.5 -6 16.5 q0 12 12 12 q6 0 17 -2.5 q11 -2.5 29 -2.5 l583 33 q20 2 38.5 7 q18.5 5 25.5 5 q8 0 22 -9 q14 -9 25.5 -21.5 q11.5 -12.5 11.5 -21.5 q0 -16 -26 -19 l-233 -13 l-11 -275 q222 12 236 16.5 q14 4.5 21 4.5 q8 0 28 -16 q20 -16 20 -33 q0 -19 -25 -22 l-641 -33 q-10 -129 -26 -187 q-16 -58 -40 -102.5 q-24 -44.5 -49 -76 q-25 -31.5 -45 -48.5 q-20 -17 -29 -17 ZM312 440 q-16 0 -28 24 q-31 66 -83 137 q-9 13 -9 23 q0 10 15.5 21 q15.5 11 26.5 11 q11 0 25.5 -17.5 q14.5 -17.5 31 -42.5 q16.5 -25 31.5 -48.5 q15 -23.5 25 -41.5 q10 -18 10 -29 q0 -13 -17.5 -25 q-17.5 -12 -27.5 -12 ZM638 443 q-12 0 -12 15 q0 11 19 39 q39 57 74 144 q4 9 4 40 q0 17 13 17 q7 0 25 -9 q46 -27 46 -49 q0 -21 -36 -67 q-102 -130 -133 -130 ZM454 411 l78 5 l10 275 l-95 -5 l7 -275 Z" /><glyph glyph-name="uni4E2A" unicode="&#x4e2a;" d="M43 253 q-14 0 -14 12 q0 12 24 33 q184 154 293 293 q67 84 113 182 q9 20 9 39 q0 19 17 19 q12 0 29 -10 q44 -24 44 -46 q0 -8 -22 -48 q118 -157 267 -258 q76 -53 169 -102 q19 -10 19 -20 q0 -9 -23.5 -30 q-23.5 -21 -40.5 -21 q-7 0 -47.5 22.5 q-40.5 22.5 -103.5 67.5 q-158 113 -280 274 q-86 -135 -220 -251 q-106 -92 -189 -137 q-34 -19 -44 -19 ZM515 -107 q-9 0 -25 8 q-39 21 -39 48 q0 7 4 27 q4 20 4 43 l0 420 q0 19 -17 40 q-6 9 -6 14 q0 14 23 14 q17 0 41 -8.5 q24 -8.5 31.5 -16.5 q7.5 -8 7.5 -23 l1 -533 q0 -33 -25 -33 Z" /><glyph glyph-name="uni4E2D" unicode="&#x4e2d;" d="M505 -120 q-24 0 -40.5 14.5 q-16.5 14.5 -16.5 32.5 q6 42 6 69 l1 252 l-205 -9 l2 -24 q0 -28 -25 -28 q-13 0 -34.5 10 q-21.5 10 -21.5 35 l0 8 q2 16 2 30 l-20 245 q-2 30 -13.5 48.5 q-11.5 18.5 -11.5 27.5 q0 13 20 13 q15 0 68 -21 l241 15 l1 166 q0 20 -7.5 34.5 q-7.5 14.5 -7.5 22.5 q0 13 14 13 q8 0 25 -3 q54 -10 54 -43 l-1 -186 l286 17 q39 0 51 -31 q4 -11 4 -17 q0 -8 -4 -14.5 q-4 -6.5 -33 -225.5 q28 -32 28 -45 q0 -16 -14 -18.5 q-14 -2.5 -320 -16.5 l-2 -340 q0 -31 -26 -31 ZM533 321 l233 11 l22 214 l-253 -15 l-2 -210 ZM244 308 l212 10 l1 209 l-230 -14 l17 -205 Z" /><glyph glyph-name="uni4E32" unicode="&#x4e32;" d="M505 -113 q-24 0 -40.5 14.5 q-16.5 14.5 -16.5 32.5 q6 42 6 69 l1 134 l-213 -10 l1 -14 q0 -27 -26 -27 q-22 0 -39 13.5 q-17 13.5 -17 35.5 q2 16 2 28 q0 9 -15 131 q-3 25 -12.5 40.5 q-9.5 15.5 -9.5 23.5 q0 15 24 15 q19 0 63 -14 l243 13 l0 86 l-168 -9 l0 -4 q0 -27 -25 -27 q-22 0 -39.5 13 q-17.5 13 -17.5 36 q2 18 2 29 q0 11 -14 103 q-5 32 -22 62 q-3 4 -3 9 q0 14 22 14 q16 0 67 -17 l200 12 l0 85 q0 20 -7.5 34.5 q-7.5 14.5 -7.5 22.5 q0 13 14 13 q8 0 25 -3 q54 -10 54 -43 l-1 -105 l244 15 q29 0 44 -28 q6 -10 6 -16 q0 -7 -4 -12 q-4 -5 -29 -112 q20 -26 20 -37 q0 -14 -12 -16.5 q-12 -2.5 -270 -15.5 l0 -86 q280 15 294 15 q25 0 38 -16.5 q13 -16.5 13 -24.5 q0 -9 -3.5 -13 q-3.5 -4 -30.5 -126 q20 -26 20 -37 q0 -14 -11.5 -17 q-11.5 -3 -321.5 -16 l-1 -222 q0 -31 -26 -31 ZM534 525 l189 10 l20 97 l-208 -13 l-1 -94 ZM280 512 l177 10 l0 94 l-188 -12 l11 -92 ZM533 205 l240 11 l20 109 l-260 -14 l0 -106 ZM234 191 l221 11 l1 106 l-232 -12 l10 -105 Z" /><glyph glyph-name="uni4E3A" unicode="&#x4e3a;" d="M382 582 q-9 0 -30 20 q-28 28 -124 92 q-19 12 -19 25 q0 11 11.5 25.5 q11.5 14.5 22.5 14.5 q10 0 21 -7 q159 -95 159 -122 q0 -15 -15.5 -31.5 q-15.5 -16.5 -25.5 -16.5 ZM652 191 q-14 0 -26 15 q-51 71 -108 122 q-23 20 -23 33 q0 12 14 26 q14 14 27 14 q12 0 25.5 -12 q13.5 -12 40 -35.5 q26.5 -23.5 43.5 -38.5 q17 -15 37 -38.5 q20 -23.5 20 -36.5 q0 -14 -18.5 -31.5 q-18.5 -17.5 -31.5 -17.5 ZM729 -90 q-23 0 -44.5 13.5 q-21.5 13.5 -64.5 43 q-43 29.5 -93 73.5 q-50 44 -50 60 q0 18 17 18 q13 0 44 -18.5 q31 -18.5 98.5 -52.5 q67.5 -34 76.5 -34 q4 0 4 3 q61 214 71 485 l-266 -14 q-40 -190 -151 -336 q-87 -113 -191 -182 q-83 -56 -113 -56 q-15 0 -15 16 q0 12 20 26 q182 126 276 302 q57 111 85 226 q-196 -11 -227 -12 q-28 0 -47 31 q-15 25 -15 35 q0 14 14 14 q6 0 18 -3 q12 -3 31 -3 l243 10 q16 91 16 190 q0 27 -4 36.5 q-4 9.5 -4 16.5 q0 16 18 16 q12 0 30 -5 q48 -17 48 -37 q-3 -121 -19 -213 l288 16 q19 0 36.5 -14 q17.5 -14 17.5 -27 q0 -12 -3 -19 q-3 -7 -4 -11 q-8 -173 -28.5 -299 q-20.5 -126 -30 -165 q-9.5 -39 -15.5 -66 q-6 -27 -25.5 -45.5 q-19.5 -18.5 -41.5 -18.5 Z" /><glyph glyph-name="uni4E3B" unicode="&#x4e3b;" d="M599 628 q-11 0 -22 8 q-109 73 -222 120 q-21 9 -21 25 q0 14 9 27.5 q9 13.5 21 13.5 q29 0 151 -63 q64 -31 97 -51 q23 -12 23 -29 q0 -15 -12 -33 q-12 -18 -24 -18 ZM116 -48 q-41 0 -57 35 q-11 24 -11 34 q0 15 13 15 q5 0 20 -3.5 q15 -3.5 35 -3.5 l339 12 l0 221 l-193 -9 q-23 0 -35 10 q-12 10 -20 28 q-8 18 -8 25 q0 11 11 11 q6 0 18.5 -3 q12.5 -3 29.5 -3 l198 9 l0 197 l-223 -12 l-31 -1 q-21 0 -30 6 q-35 24 -35 57 q0 13 11 13 q6 0 16.5 -3 q10.5 -3 48.5 -3 q543 31 556.5 35.5 q13.5 4.5 21.5 4.5 q8 0 22 -10 q38 -25 38 -46 q0 -19 -31 -21 l-283 -16 l0 -198 l167 8 q26 3 33.5 6 q7.5 3 14.5 3 q8 0 21.5 -9 q13.5 -9 24.5 -22 q11 -13 11 -23 q0 -17 -28 -20 l-245 -11 l0 -222 l298 11 q24 2 35.5 6 q11.5 4 17.5 4 q7 0 22 -11 q43 -27 43 -50 q0 -20 -30 -22 l-806 -29 Z" /><glyph glyph-name="uni4E3E" unicode="&#x4e3e;" d="M491 616 q-17 0 -25 19 q-28 71 -70 130 q-7 10 -7 21 q0 12 17 20 q17 8 27 8 q20 0 76 -96 q31 -54 31 -66 q0 -11 -17 -23.5 q-17 -12.5 -32 -12.5 ZM36 224 q-14 0 -14 14 q0 11 24 27 q180 124 278 262 l-189 -8 q-23 0 -31 8 q-31 25 -31 52 q0 13 13 13 q29 -6 46 -6 l173 8 q-5 4 -10 12 q-22 42 -87 117 q-7 10 -7 19 q0 10 13.5 21 q13.5 11 25.5 11 q12 0 19 -7 q7 -7 23 -24.5 q16 -17.5 35 -40 q19 -22.5 33.5 -43.5 q14.5 -21 14.5 -32 q0 -13 -17 -27 q-4 -2 -8 -5 l233 11 q106 135 106 193 q0 17 15 17 q10 0 26 -10 q41 -28 41 -47 q0 -9 -30.5 -53.5 q-30.5 -44.5 -82.5 -95.5 q185 8 196.5 12.5 q11.5 4.5 21.5 4.5 q10 0 33 -18 q23 -18 23 -35 q0 -17 -29 -19 l-235 -11 q110 -128 309 -224 q22 -10 22 -21 q0 -6 -9 -18 q-25 -30 -48 -30 q-10 0 -23 8 q-205 118 -331 281 l-156 -8 q-105 -144 -245 -236 q-56 -37 -94 -54.5 q-38 -17.5 -47 -17.5 ZM507 -111 q-4 0 -17 4 q-36 15 -36 45 q5 33 5 163 l-222 -9 q-37 0 -51.5 9.5 q-14.5 9.5 -24.5 42.5 q-1 3 -1 8 q0 10 14 10 q37 -6 49 -6 l237 8 l1 115 l-118 -6 q-34 0 -49 7.5 q-15 7.5 -27 42.5 q-1 3 -1 7 q0 9 12 9 q23 -6 43 -6 q15 0 141 6 l0 53 q0 36 -12 56 q-4 6 -4 12 q0 10 16 10 q11 0 33 -7 q22 -7 29 -16 q7 -9 7 -25 l0 -80 q110 5 124 8.5 q14 3.5 23 3.5 q9 0 29.5 -14 q20.5 -14 20.5 -30 q0 -18 -26 -21 l-171 -8 l0 -115 q220 7 237.5 10.5 q17.5 3.5 23.5 3.5 q6 0 19 -6 q32 -15 32 -35 q0 -22 -23 -25 l-290 -11 l0 -188 q0 -26 -23 -26 Z" /><glyph glyph-name="uni4E45" unicode="&#x4e45;" d="M54 -95 q-18 0 -18 12 q0 12 24 27 q172 99 323 264 q151 165 204 337 l-193 -15 q-50 -80 -102.5 -137 q-52.5 -57 -91.5 -87.5 q-39 -30.5 -50 -30.5 q-15 0 -15 12 q0 12 17 30 q119 123 201 287 q33 67 50 116 q17 49 17 58 q0 15 -2 25 q0 19 18 19 q14 0 41.5 -17 q27.5 -17 27.5 -35 q0 -5 -15 -51.5 q-15 -46.5 -51 -112.5 l183 16 q31 0 47.5 -13.5 q16.5 -13.5 16.5 -27.5 q0 -14 -5 -21.5 q-5 -7.5 -14.5 -37 q-9.5 -29.5 -36 -84.5 q-26.5 -55 -56.5 -103 q151 -239 379 -355 q19 -8 19 -19 q0 -6 -19.5 -28 q-19.5 -22 -35.5 -22 q-16 0 -46 18 q-74 45 -173 138 q-99 93 -166 203 q-100 -139 -235 -239 q-108 -79 -195 -113 q-36 -13 -48 -13 Z" /><glyph glyph-name="uni4E48" unicode="&#x4e48;" d="M80 214 q-15 0 -15 16 q0 12 18 30 q129 130 221 280 q92 150 92 193 q0 5 -2 13 q0 17 17 17 q9 0 25.5 -8.5 q16.5 -8.5 31 -21.5 q14.5 -13 14.5 -24 q0 -9 -4 -17 q-71 -155 -176 -277.5 q-105 -122.5 -180 -177.5 q-32 -23 -42 -23 ZM884 -56 q-21 -20 -38 -20 q-17 0 -29 19 q-15 23 -31.5 48.5 q-16.5 25.5 -32.5 46.5 q-268 -49 -504 -76 q-41 -4 -53 -4 q-32 0 -47 19 q-25 32 -25 49 q0 11 16 11 q22 -2 44 -2 q15 0 22 1 l3 0 q196 219 296 444 q6 14 6 32 q0 11 -1 15 q0 24 17 24 q9 0 26 -10 q48 -23 48 -46 q0 -5 -3 -11 q-122 -247 -291 -440 q221 22 403 51 q-41 56 -84 103 q-14 19 -14 29 q0 10 16 23 q16 13 27 13 q13 0 75 -72 q62 -72 109 -135 q56 -74 56 -91 q0 -10 -11 -21 Z" /><glyph glyph-name="uni4E49" unicode="&#x4e49;" d="M547 575 q-12 0 -22 12 q-62 76 -119 124 q-11 10 -11 21 q0 9 12 23 q12 14 26 14 q13 0 63 -48 q50 -48 70.5 -70.5 q20.5 -22.5 20.5 -35.5 q0 -14 -15 -27 q-15 -13 -25 -13 ZM57 -76 q-17 0 -17 14 q0 19 27 32 q234 125 385 306 q-96 114 -186 287 q-46 87 -46 103 q0 18 19 25.5 q19 7.5 29 7.5 q19 0 32 -32 q21 -52 82 -155 q61 -103 119 -173 q66 89 120 209.5 q54 120.5 54 172.5 q0 13 -1 18 q0 17 15 17 q7 0 26 -10 q51 -24 51 -53 q0 -4 -13 -42 q-69 -208 -199 -373 q109 -114 232 -189 q72 -43 165 -81 q21 -8 21 -21 q0 -5 -13 -19 q-30 -35 -56 -35 q-5 0 -13 4 q-218 103 -386 280 q-132 -155 -334 -249 q-94 -44 -113 -44 Z" /><glyph glyph-name="uni4E4B" unicode="&#x4e4b;" d="M913 -70 l-9 0 q-314 27 -612 145 q-54 21 -103 21 q-49 0 -90 -16 q-7 -3 -18 -3 q-14 0 -23 16.5 q-9 16.5 -9 28.5 q0 22 27 31 q54 17 88 17 q32 0 47 -2 q245 133 480 334 l-473 -39 q-38 0 -59 51 q-3 9 -3 16 q0 11 12 11 q7 0 18 -3 q11 -3 30 -3 l235 19 l-3 154 q0 21 -6.5 32.5 q-6.5 11.5 -6.5 20.5 q0 13 19 13 q13 0 35.5 -8 q22.5 -8 29.5 -15 q7 -7 7 -21 l0 -170 l223 18 q32 0 50 -16 q18 -16 18 -31 q0 -15 -7 -22.5 q-7 -7.5 -12 -12.5 q-219 -200 -487 -352 q345 -126 628 -133 q28 -1 28 -17 l-5 -16 q-18 -48 -49 -48 Z" /><glyph glyph-name="uni4E4E" unicode="&#x4e4e;" d="M496 -107 q-25 0 -83 34 q-151 89 -151 122 q0 14 15 14 q10 0 63 -25.5 q53 -25.5 128 -48.5 l3 0 q15 60 15 192 q0 46 -2 88 l-362 -20 q-20 -2 -36 -2 q-18 0 -32 14 q-14 14 -20 29.5 q-6 15.5 -6 22.5 q0 11 11 11 q6 0 17 -3 q11 -3 32 -3 q12 0 393 22 q-11 182 -43 304 q-149 -28 -266 -33 q-43 0 -43 17 q0 15 40 22 q92 18 190 42 q313 73 339 110 q7 8 19 8 q11 0 30 -21 q19 -21 19 -40 q0 -31 -256 -89 q32 -132 45 -317 l294 17 q25 2 39.5 6.5 q14.5 4.5 24.5 4.5 q10 0 24 -10 q37 -24 37 -46 q0 -19 -32 -21 l-383 -21 q4 -64 4 -103 q0 -195 -22 -237 q-18 -40 -45 -40 ZM593 364 q-10 0 -10 12 q0 8 26.5 45.5 q26.5 37.5 68.5 110.5 q42 73 42 106 q0 24 18 24 q14 0 29 -9 q39 -24 39 -45 q0 -6 -2.5 -9.5 q-2.5 -3.5 -25 -41.5 q-22.5 -38 -58 -81.5 q-35.5 -43.5 -59.5 -66.5 q-24 -23 -38 -31 q-14 -8 -19 -11 q-5 -3 -11 -3 ZM384 382 q-16 -16 -27 -16 q-11 0 -17 5.5 q-6 5.5 -12 14.5 q-39 60 -117 146 q-11 14 -11 25 q0 11 14 23 q14 12 24 12 q10 0 34.5 -22 q24.5 -22 76 -83.5 q51.5 -61.5 51.5 -74.5 q0 -14 -16 -30 Z" /><glyph glyph-name="uni4E58" unicode="&#x4e58;" d="M510 -110 q-16 0 -38 14.5 q-22 14.5 -22 36.5 q0 6 4.5 26 q4.5 20 4.5 47 l1 201 q-153 -163 -354 -238 q-40 -15 -50 -15 q-16 0 -16 13 q0 16 31 34 q222 129 389 307 l1 220 l-298 -16 q-53 0 -70 58 q0 13 11 13 q5 0 13 -3 q8 -3 32 -3 q13 0 312 17 l0 69 q-117 -21 -246 -28 q-38 0 -38 16 q0 18 37 25 q285 50 461 113 q13 5 23.5 18 q10.5 13 20.5 13 q10 0 21 -15 q11 -15 18.5 -32.5 q7.5 -17.5 7.5 -25.5 q0 -9 -6 -15 q-6 -6 -35 -14.5 q-29 -8.5 -191 -40.5 l0 -80 q289 17 303.5 21.5 q14.5 4.5 22.5 4.5 q8 0 21 -8 q36 -22 36 -43 q0 -16 -28 -20 l-355 -20 l0 -226 q130 -128 263 -201 q71 -38 158 -70 q18 -7 18 -21 q0 -13 -38 -41 q-12 -9 -19 -9 q-7 0 -43 15 q-182 76 -338 239 l0 -305 q0 -31 -25 -31 ZM756 234 q-46 0 -74.5 5.5 q-28.5 5.5 -44.5 26 q-16 20.5 -16 63.5 l0 159 q0 20 -6 30.5 q-6 10.5 -6 13.5 q0 13 18 13 q12 0 26 -3 q43 -11 43 -32 l-1 -89 q9 3 54 26 q45 23 56 46 q7 15 19 15 q10 0 19 -15 q15 -29 15 -45 q0 -34 -163 -89 l0 -30 q0 -17 6.5 -22 q6.5 -5 26.5 -6 q97 0 132 20 q7 5 15 5 q6 0 18 -6 q33 -15 33 -35 q0 -21 -22 -30 q-22 -9 -62.5 -15 q-40.5 -6 -85.5 -6 ZM150 187 q-20 0 -46 44 l-5 13 q0 14 20 14 q25 0 89.5 17.5 q64.5 17.5 91.5 27.5 l-2 70 l-102 -8 q-27 0 -40 11 q-26 22 -26 46 q0 12 14 12 l42 -6 l112 4 l-1 27 q0 19 -9.5 32 q-9.5 13 -9.5 20 q0 11 14 11 q76 0 76 -35 l2 -159 q43 19 53 19 q15 0 15 -12 q0 -26 -134 -89 q-123 -59 -154 -59 Z" /><glyph glyph-name="uni4E5D" unicode="&#x4e5d;" d="M54 -77 q-15 0 -15 13 q0 12 25 29 q110 74 175.5 154 q65.5 80 101 167 q35.5 87 52.5 172 q-180 -16 -190 -17 q-10 -1 -23 -1 q-17 0 -30.5 14.5 q-13.5 14.5 -19 28 q-5.5 13.5 -7 15.5 q-1.5 2 -1.5 9 q0 11 13 11 q24 -6 54 -6 q15 0 217 19 q12 83 15 186 q0 25 -7 47 q-7 22 -7 26 q0 15 18 15 q13 0 36 -8.5 q23 -8.5 35.5 -18 q12.5 -9.5 12.5 -26.5 q-4 -112 -19 -213 l198 18 q20 0 36.5 -13 q16.5 -13 16.5 -27 q0 -12 -2.5 -20 q-2.5 -8 -24.5 -209 q-22 -212 -22 -226 q0 -12 5 -22 q11 -19 68 -19 q60 0 81.5 5.5 q21.5 5.5 30.5 18 q9 12.5 22.5 50 q13.5 37.5 22 93.5 q8.5 56 27.5 56 q19 0 20 -57 q0 -100 -8 -145.5 q-8 -45.5 -30.5 -67 q-22.5 -21.5 -61 -26.5 q-38.5 -5 -111.5 -5 q-76 0 -110.5 25.5 q-34.5 25.5 -34.5 83.5 q0 16 41 430 l-176 -16 q-41 -210 -131 -328 q-80 -105 -182 -165 q-84 -50 -111 -50 Z" /><glyph glyph-name="uni4E5F" unicode="&#x4e5f;" d="M605 -64 q-236 0 -305.5 29 q-69.5 29 -69.5 137 q0 139 2 268 l-100 -36 q-13 -4 -23 -7.5 q-10 -3.5 -17 -3.5 q-30 0 -59 34 q-4 7 -4 12 q0 12 20.5 14.5 q20.5 2.5 51.5 13.5 l131 48 l1 117 q0 35 -15 64 q-3 9 -3 15 q0 10 15 10 q10 0 37.5 -8.5 q27.5 -8.5 34.5 -17.5 q7 -9 7 -25 l-1 -127 l159 58 l1 195 q0 33 -13 58 q-4 6 -4 13 q0 11 19 11 q13 0 33 -8 q20 -8 29.5 -16 q9.5 -8 9.5 -27 l-1 -198 q203 73 209 73 q8 0 19.5 -2 q11.5 -2 24 -11 q12.5 -9 12.5 -28 l-5 -32 q-5 -343 -56 -388 q-21 -18 -39 -18 q-30 0 -90 58 q-60 58 -60 80 q0 14 14 14 q9 0 39.5 -19 q30.5 -19 57 -31.5 q26.5 -12.5 28.5 -12.5 q3 0 3 6 q27 125 27 299 l-184 -65 l-2 -363 q0 -28 -22 -28 q-7 0 -20.5 6 q-13.5 6 -26 17.5 q-12.5 11.5 -12.5 23.5 q0 10 3.5 26 q3.5 16 4.5 290 l-158 -56 l-2 -277 q0 -45 8 -63.5 q8 -18.5 27 -25.5 q60 -23 244 -23 q106 0 215 18 q60 10 75 33 q22 35 37 166 q6 44 24 44 q26 0 26 -136 q0 -46 -2.5 -75.5 q-2.5 -29.5 -15.5 -50.5 q-44 -72 -339 -72 Z" /><glyph glyph-name="uni4E66" unicode="&#x4e66;" d="M493 373 l136 8 l22 176 l-158 -10 l0 -174 ZM471 -113 q-14 0 -30 11 q-36 21 -36 36.5 q0 15.5 4 35.5 q4 20 4 42 l0 283 l-263 -16 q-30 0 -41 8 q-18 17 -25.5 38 q-7.5 21 -7.5 26 q0 9 11 9 q3 0 13.5 -3.5 q10.5 -3.5 29 -3.5 q18.5 0 283.5 16 l0 174 l-140 -10 q-45 0 -54 12 q-19 23 -26 54 q0 14 16 14 q29 -9 50 -9 l154 10 l0 132 q0 26 -8.5 37 q-8.5 11 -8.5 18 q0 11 16.5 11 q16.5 0 41 -6.5 q24.5 -6.5 32 -14 q7.5 -7.5 7.5 -21.5 l0 -152 l183 12 q38 0 50.5 -15 q12.5 -15 12.5 -24 q0 -9 -3.5 -15 q-3.5 -6 -29.5 -191 l134 8 q35 0 49.5 -15.5 q14.5 -15.5 14.5 -24 q0 -8.5 -2 -14 q-2 -5.5 -8.5 -73.5 q-6.5 -68 -21 -141 q-14.5 -73 -41 -96.5 q-26.5 -23.5 -42.5 -23.5 q-29 0 -95.5 52 q-66.5 52 -66.5 80 q0 14 14.5 14 q14.5 0 68.5 -27.5 q54 -27.5 68 -27.5 q6 0 18.5 57 q12.5 57 20.5 166 l-324 -20 l1 -380 q0 -32 -23 -32 ZM860 585 q-15 -18 -29 -18 q-14 0 -35 25 q-58 63 -113 112 q-16 13 -16 25 q0 12 13 26.5 q13 14.5 23 14.5 q10 0 45 -26 q35 -26 81 -71.5 q46 -45.5 46 -57.5 q0 -12 -15 -30 Z" /><glyph glyph-name="uni4E70" unicode="&#x4e70;" d="M94 -102 q-16 0 -16 17 q0 19 28 30 q130 47 229 120 q68 49 100 96 l-289 -12 q-13 0 -33.5 8 q-20.5 8 -34.5 49 q-2 7 -2 11 q0 9 10 9 q5 0 16 -4 q11 -4 37 -4 l335 15 q28 68 44 195 q3 28 3 91 q0 31 -16 53 q-4 6 -4 14 q0 18 20 18 q34 0 64 -15 q19 -9 19 -35 q-2 -89 -16 -182 q-14 -93 -30 -136 l245 12 q22 2 33 6.5 q11 4.5 17 4.5 q6 0 20 -9 q40 -25 40 -48 q0 -17 -28 -21 l-358 -16 q-60 -106 -188 -177 q-113 -62 -245 -90 ZM713 498 q-13 0 -13 16 q0 12 30 62 q30 50 44 92 l-612 -38 q-25 0 -39.5 11 q-14.5 11 -27.5 46 q-1 3 -1 8 q0 10 11 10 q6 0 15 -3 q9 -3 43 -3 l656 43 q31 0 45.5 -13 q14.5 -13 14.5 -23 q0 -29 -95 -147 q-50 -61 -71 -61 ZM352 262 q-10 0 -61 32.5 q-51 32.5 -133 70.5 q-18 9 -18 22 q0 11 10 26.5 q10 15.5 23 15.5 q11 0 67 -24 q56 -24 127 -65 q25 -15 25 -30 q0 -15 -14.5 -31.5 q-14.5 -16.5 -25.5 -16.5 ZM426 406 q-11 0 -56 37 q-45 37 -119 80 q-15 10 -15 22 q0 10 10.5 25.5 q10.5 15.5 23.5 15.5 q10 0 65.5 -32 q55.5 -32 109.5 -72 q21 -15 21 -26 q0 -8 -7 -21 q-15 -29 -33 -29 ZM829 -91 q-13 0 -26 12 q-54 41 -112.5 80.5 q-58.5 39.5 -133.5 73.5 q-13 9 -13 18 q0 7 5 17 q12 29 32 29 q9 0 56 -22 q99 -47 221 -133 q15 -12 15 -27 q0 -14 -15 -31 q-15 -17 -29 -17 Z" /><glyph glyph-name="uni4E71" unicode="&#x4e71;" d="M776 -60 q-64 0 -90 15.5 q-26 15.5 -38 43 q-12 27.5 -12 74.5 l3 655 q0 28 -12 50 q-3 4 -3 10 q0 13 16 13 q11 0 28 -5 q48 -15 48 -38 l-3 -677 q0 -26 5 -40 q7 -23 71 -23 q66 0 90 15 q16 11 24.5 61 q8.5 50 15 105 q6.5 55 23.5 55 q26 0 26 -148 q0 -44 -3.5 -76 q-3.5 -32 -21.5 -52 q-33 -38 -167 -38 ZM218 -88 q-21 0 -48 19 q-14 11 -14 26 l4 44 q0 17 -9 117 q-11 126 -19 144 q-8 18 -8 23 q0 13 19 13 q13 0 66 -20 l76 7 l1 141 l-190 -12 q-25 0 -37.5 14 q-12.5 14 -17.5 28 q-5 14 -5 19 q0 9 10 9 l32 -4 q26 1 209 14 l1 126 q-123 -38 -161 -38 q-22 0 -22 14 q0 16 36 29 q154 51 272 130 q20 14 29.5 29 q9.5 15 19.5 15 q10 0 28.5 -26 q18.5 -26 18.5 -49 q0 -7 -9 -17 q-84 -40 -138 -62 l-2 -147 q177 11 187 14.5 q10 3.5 17 3.5 q8 0 29 -16 q21 -16 21 -34 q0 -21 -32 -23 l-222 -14 l-2 -141 l119 7 q14 0 32.5 -14 q18.5 -14 18.5 -27 q0 -13 -3.5 -18.5 q-3.5 -5.5 -30.5 -193.5 q27 -34 27 -45 q0 -14 -14.5 -16 q-14.5 -2 -269.5 -6 l3 -31 q0 -32 -22 -32 ZM231 43 l190 4 l18 175 l-223 -11 l15 -168 Z" /><glyph glyph-name="uni4E86" unicode="&#x4e86;" d="M506 -110 q-49 0 -174 99 q-71 59 -71 81 q0 12 15 12 q11 0 65.5 -32 q54.5 -32 137.5 -63 l2 0 q11 74 11 153 q0 250 -55 345 q-10 16 -10 27 q0 11 14 22 q14 11 32 11 q19 0 30 -23 q98 72 175 164 l-452 -29 q-16 0 -28 11 q-30 28 -30 53 q0 12 12 12 q6 0 15 -2.5 q9 -2.5 27 -2.5 q517 33 529 33 q20 0 38.5 -15 q18.5 -15 18.5 -29 q0 -14 -9.5 -21 q-9.5 -7 -14.5 -11 q-130 -139 -253 -228 q38 -122 38 -348 l-1 -49 q0 -170 -62 -170 Z" /><glyph glyph-name="uni4E88" unicode="&#x4e88;" d="M499 -100 q-35 0 -154 78 q-68 44 -68 64 q0 14 17 14 q11 0 60.5 -20.5 q49.5 -20.5 119.5 -38.5 l-1 405 q-320 -18 -350 -19 q-22 0 -29 5 q-26 23 -33 51 q0 14 18 14 q18 -3 34 -3 l373 20 q-63 54 -132 99 q-21 14 -21 27 q0 11 11 24.5 q11 13.5 22 13.5 q24 0 124 -75 q93 74 154 142 q-358 -28 -380 -28 q-35 0 -54 46 q-3 4 -3 11 q0 14 18 14 q19 -3 35 -3 q438 33 449 33 q34 0 52 -29 q6 -12 6 -20 q0 -10 -9 -17 q-9 -7 -37 -35 q-80 -83 -173 -157 q28 -23 28 -31.5 q0 -8.5 1 -8.5 l304 16 q16 0 32 -13 q16 -13 16 -27 q0 -14 -8 -20 q-8 -6 -10 -10 q-77 -86 -126 -123.5 q-49 -37.5 -61 -37.5 q-16 0 -16 14 q0 13 21 39 q45 51 82 106 l-260 -14 q2 -408 4 -442 q0 -42 -34 -57 q-12 -7 -22 -7 Z" /><glyph glyph-name="uni4E8B" unicode="&#x4e8b;" d="M468 -111 q-17 0 -48 15.5 q-31 15.5 -79.5 54.5 q-48.5 39 -48.5 53 q0 16 17 16 q11 0 55 -20 q44 -20 89 -30 l0 132 l-211 -9 q-39 0 -56 45 q-4 7 -4 12 q0 10 10 10 q4 0 12.5 -3 q8.5 -3 31.5 -3 l217 8 l0 51 l-333 -15 q-21 0 -41.5 6 q-20.5 6 -31.5 42 q-1 3 -1 8 q0 10 11 10 q5 0 17 -3 q12 -3 25 -3 l354 15 l0 43 l-193 -10 q-43 0 -58 13 q-23 20 -23 40 q0 11 11 11 l42 -6 l220 13 l0 46 l-163 -8 l0 -2 q0 -23 -23 -23 l-13 2 q-39 4 -39 32 q0 40 -4 71 q-6 55 -16.5 70 q-10.5 15 -10.5 23 q0 12 21 12 q16 0 66 -18 l182 11 l0 46 l-302 -17 q-44 0 -58 41 l-5 15 q0 12 11 12 q6 0 17.5 -3 q11.5 -3 31.5 -3 q9 0 305 18 l0 44 q0 30 -14 47 q-4 6 -4 10 q0 12 17 12 q12 0 35 -6.5 q23 -6.5 30.5 -17 q7.5 -10.5 7.5 -26.5 l0 -59 l249 15 q16 1 31.5 6.5 q15.5 5.5 23.5 5.5 q9 0 33 -17.5 q24 -17.5 24 -35.5 q0 -15 -27 -19 l-334 -19 l0 -46 l215 13 q14 0 31 -9 q17 -9 17 -22 q0 -12 -5 -18.5 q-5 -6.5 -20 -68.5 q24 -23 24 -35 q0 -14 -14.5 -16.5 q-14.5 -2.5 -246.5 -13.5 l0 -46 l227 14 q12 0 31 -10.5 q19 -10.5 19 -33.5 q0 -9 -3.5 -15 q-3.5 -6 -11.5 -48 q80 3 92 7 q29 10 37 10 q7 0 21 -9 q36 -22 36 -41 q0 -18 -33 -20 l-163 -7 l-10 -57 q24 -25 24 -36 q0 -14 -12 -17 q-12 -3 -253 -13 q0 -101 2 -147 q0 -36 -21 -56 q-21 -20 -39 -20 ZM525 491 l167 9 l10 59 l-177 -11 l0 -57 ZM282 479 l170 9 l0 57 l-176 -11 l6 -55 ZM525 284 l189 8 l6 46 l-195 -11 l0 -43 ZM526 172 l173 7 l7 53 l-181 -9 l1 -51 Z" /><glyph glyph-name="uni4E8E" unicode="&#x4e8e;" d="M512 -97 q-17 0 -46 13 q-58 26 -128.5 75.5 q-70.5 49.5 -70.5 69.5 q0 15 16 15 q11 0 25 -7 q91 -46 170 -64 l-3 380 l-352 -17 q-24 0 -36 8 q-33 30 -33 61 q0 11 12 11 q3 0 13.5 -3.5 q10.5 -3.5 35.5 -3.5 q12 0 360 17 l-2 210 l-205 -12 q-30 0 -43 9 q-1 2 -8 9 q-24 22 -24 48 q0 12 12 12 q3 0 13.5 -3.5 q10.5 -3.5 47.5 -3.5 q458 27 467.5 31 q9.5 4 18.5 4 q10 0 25 -11 q15 -11 26.5 -24 q11.5 -13 11.5 -21 q0 -18 -32 -20 l-226 -14 l1 -210 q295 14 305 18 q10 4 19 4 q10 0 25 -10 q15 -10 26.5 -23.5 q11.5 -13.5 11.5 -22.5 q0 -20 -32 -22 l-355 -17 q2 -388 4 -424 q0 -5 -4.5 -19.5 q-4.5 -14.5 -15.5 -28.5 q-11 -14 -30 -14 Z" /><glyph glyph-name="uni4E92" unicode="&#x4e92;" d="M104 -45 q-44 0 -62 35 l-11 31 q0 13 11 13 q6 0 18.5 -3 q12.5 -3 33.5 -3 l442 14 q31 105 43 156 q-245 -12 -256.5 -14.5 q-11.5 -2.5 -22.5 -2.5 q-14 0 -25.5 12 q-11.5 12 -19 27 q-7.5 15 -7.5 25 q0 10 7.5 19.5 q7.5 9.5 22.5 55.5 q67 206 97 321 q-170 -11 -184 -11 q-30 0 -47 16 q-27 25 -27 50 q0 12 11 12 q6 0 18.5 -3 q12.5 -3 32.5 -3 l562 35 q30 2 42.5 6 q12.5 4 22.5 4 q10 0 25.5 -10 q15.5 -10 27.5 -24 q12 -14 12 -23 q0 -20 -32 -22 l-382 -23 q-20 -73 -43 -144 l249 15 q35 0 52 -13 q17 -13 17 -24 q0 -11 -3 -16 q-3 -5 -14.5 -50.5 q-11.5 -45.5 -38.5 -156 q-27 -110.5 -57 -212.5 l224 7 q27 2 41.5 6 q14.5 4 24.5 4 q10 0 25 -12 q15 -12 26.5 -26 q11.5 -14 11.5 -23 q0 -18 -31 -20 l-837 -25 ZM338 258 l259 13 q12 45 22.5 92 q10.5 47 18.5 80 l-245 -15 q-20 -69 -55 -170 Z" /><glyph glyph-name="uni4E94" unicode="&#x4e94;" d="M142 -29 q-57 0 -68 10 q-38 33 -38 50 q0 16 12 16 q6 0 17 -3 q11 -3 33 -3 l231 7 l54 296 l-106 -5 q-20 -2 -37 -2 q-20 0 -32.5 12.5 q-12.5 12.5 -20 28.5 q-7.5 16 -7.5 21 q0 14 13 14 q4 0 14 -3.5 q10 -3.5 35 -3.5 l153 7 l39 212 l-211 -13 q-39 0 -51 9.5 q-12 9.5 -21 25 q-9 15.5 -9 26.5 q0 14 13 14 q4 0 14.5 -3 q10.5 -3 35.5 -3 q13 0 524 31 q20 2 33 6.5 q13 4.5 20 4.5 q8 0 23 -9.5 q15 -9.5 27 -23 q12 -13.5 12 -22.5 q0 -19 -32 -21 l-295 -18 l-40 -212 l240 12 q29 0 46 -12 q17 -12 17 -27 q0 -13 -7 -31 l-31 -299 l89 3 q15 1 35 5.5 q20 4.5 29 4.5 q10 0 25.5 -11.5 q15.5 -11.5 27 -25 q11.5 -13.5 11.5 -22.5 q0 -18 -27 -21 l-790 -22 ZM407 50 l258 8 l27 301 l-228 -11 l-57 -298 Z" /><glyph glyph-name="uni4E9B" unicode="&#x4e9b;" d="M720 266 q-55 0 -89 4.5 q-34 4.5 -54 25.5 q-20 21 -20 68 l4 353 q0 23 -8 37 q-8 14 -8 19 q0 13 15 13 q9 0 17 -2 q43 -8 49.5 -19 q6.5 -11 6.5 -23 l-2 -207 q107 54 139 85 q16 16 26 32 q6 15 15 15 q18 0 38 -41 q8 -16 8 -26 q0 -21 -80 -65 q-72 -37 -147 -67 l-1 -95 q0 -24 13 -28 q13 -4 66 -4 q54 0 128 10 q9 2 18 10 q24 20 38 136 q6 39 22 39 q20 0 20 -44 q0 -144 -23 -183 q-18 -33 -96 -39 q-41 -4 -95 -4 ZM131 229 q-20 0 -33.5 10.5 q-13.5 10.5 -32.5 52.5 q-3 4 -3 13 q0 12 14 12 l38 -4 q25 0 63 5 l-6 249 q0 21 -9 33 q-9 12 -9 21 q0 12 18 12 l11 -1 q59 -6 59 -41 l3 -263 q29 4 67 12 l0 366 q0 19 -16 45 q-2 4 -2 8 q0 13 14 13 q7 0 24 -2 q52 -9 52 -41 l0 -163 l50 4 q20 1 32 7 q12 6 19 6 q8 0 21 -8 q32 -17 32 -41 q0 -22 -32 -24 l-123 -11 l0 -144 q22 5 74 17.5 q52 12.5 70 12.5 q23 0 23 -13 q0 -25 -270 -105 q-130 -38 -148 -38 ZM296 120 q-16 0 -30 12 q-14 12 -21.5 29 q-7.5 17 -7.5 20 q0 13 14 13 l37 -6 q17 0 20 1 q349 13 370 19 q8 3 17 3 q10 0 23.5 -10.5 q13.5 -10.5 23 -22.5 q9.5 -12 9.5 -20 q0 -19 -30 -21 l-391 -15 q-20 -2 -34 -2 ZM165 -53 q-44 0 -66 61 q0 13 12 13 q7 0 19.5 -3 q12.5 -3 40.5 -3 q644 21 657 25 q13 4 18 4 q6 0 21 -9 q40 -24 40 -46 q0 -18 -30 -20 l-712 -22 Z" /><glyph glyph-name="uni4EA4" unicode="&#x4ea4;" d="M173 558 q-17 0 -34.5 8.5 q-17.5 8.5 -31.5 45.5 q-2 3 -2 8 q0 13 15 13 q25 -5 51 -5 q13 0 287 17 l-1 97 q0 21 -8 32.5 q-8 11.5 -8 18.5 q0 14 17 14 q10 0 27 -2 q50 -7 50 -29 l-1 -127 q273 18 285 21.5 q12 3.5 19 3.5 q8 0 23 -9 q41 -21 41 -44 q0 -18 -25 -21 l-704 -42 ZM801 331 q-11 0 -41 29 q-88 86 -166 140 q-18 13 -18 22 q0 7 5 17 q12 28 32 28 q18 0 151 -102 q83 -65 83 -81 q0 -23 -25 -45 q-11 -8 -21 -8 ZM137 290 q-13 0 -13 13 q0 10 23 30 q178 142 191 209 q4 20 17 20 q9 0 23 -11 q14 -11 26 -25.5 q12 -14.5 12 -25.5 q0 -18 -62 -71 q-56 -51 -123.5 -95 q-67.5 -44 -93.5 -44 ZM909 -94 q-24 0 -148 61 q-146 73 -254 164 q-165 -159 -414 -220 q-11 -3 -22 -3 q-17 0 -17 13 q0 13 26 24 q194 83 300 173 q45 37 72 64 q-143 143 -143 167 q0 11 13.5 26 q13.5 15 28.5 15 q14 0 27 -16 q48 -67 123 -139 q102 116 102 160 q0 26 17 26 q9 0 24 -11 q41 -29 41 -53 q0 -4 -3 -10 q-53 -86 -123 -163 q156 -130 386 -202 q24 -8 24 -20 q0 -7 -10 -21 q-25 -35 -50 -35 Z" /><glyph glyph-name="uni4EA7" unicode="&#x4ea7;" d="M50 -92 q-13 0 -13 15 q0 10 16 32 q48 63 81 146 q47 119 47 286 q0 28 -2 37 q-2 9 -9 23.5 q-7 14.5 -7 20.5 q0 11 12 11 q21 0 77 -27 l137 7 q-9 4 -19 18 q-35 48 -56.5 70 q-21.5 22 -21.5 33 q0 11 16.5 25 q16.5 14 25.5 14 q15 0 62 -53 q47 -53 47 -71 q0 -13 -18 -25 q-10 -7 -18 -10 l114 5 q84 105 84 140 l-3 22 q0 6 2 10 l-361 -21 q-41 0 -51 10 q-10 10 -17 25 q-7 15 -7 22 q0 12 11 12 q5 0 13.5 -2.5 q8.5 -2.5 25.5 -2.5 l233 14 l-2 79 q0 22 -7 32 q-7 10 -7 18 q0 11 15 11 q9 0 26 -2 q51 -8 51 -39 l-2 -95 l203 12 q16 3 26.5 6 q10.5 3 18.5 3 q9 0 22 -8 q33 -20 33 -41 q0 -19 -30 -21 l-158 -9 q4 -2 8 -4 q47 -24 47 -46 q0 -4 -28 -41 q-28 -37 -68 -80 l191 11 l42 9 q8 0 22 -8 q36 -23 36 -45 q0 -19 -29 -21 l-602 -33 q-2 -43 -6 -92 q-4 -49 -19 -111 q-15 -62 -42.5 -112.5 q-27.5 -50.5 -56.5 -85.5 q-29 -35 -52.5 -54 q-23.5 -19 -32.5 -19 Z" /><glyph glyph-name="uni4EAB" unicode="&#x4eab;" d="M132 624 q-26 0 -39 15.5 q-13 15.5 -21 41.5 q0 13 16 13 q18 -3 35 -3 q12 0 335 18 l-1 58 q0 22 -12 41 q-4 8 -4 13 q0 14 18 14 q13 0 37.5 -8.5 q24.5 -8.5 31.5 -16 q7 -7.5 7 -20.5 l-1 -78 q305 17 317.5 21 q12.5 4 19.5 4 q7 0 20 -8 q35 -22 35 -43 q0 -19 -29 -21 l-765 -41 ZM332 372 q-22 0 -38.5 13 q-16.5 13 -16.5 37 l1 13 q0 101 -23 142 q-3 6 -3 10 q0 13 20 13 q15 0 67 -13 l351 21 q32 0 45.5 -15 q13.5 -15 13.5 -22 q0 -8 -3.5 -13 q-3.5 -5 -23.5 -78 q27 -26 27 -37 q0 -14 -13 -16.5 q-13 -2.5 -383 -21.5 l0 -2 q0 -31 -21 -31 ZM346 469 l303 17 l13 57 l-320 -19 l4 -55 ZM505 -125 q-45 0 -160 74 q-68 45 -68 64 q0 11 14 11 q9 0 64.5 -24 q55.5 -24 131.5 -40 l1 2 q9 42 9 88 q0 45 -8 76 q-364 -16 -381 -16 q-25 0 -40 12 q-26 20 -26 45 q0 11 10 11 q28 -4 49 -4 q17 0 367 17 q-18 35 -18 45 q0 12 15.5 21.5 q15.5 9.5 27.5 9.5 q14 0 23 -16 q88 42 116 59 q-330 -23 -342 -23 q-46 0 -60 41 q-6 17 -6 21 q0 9 11 9 q30 -6 56 -6 q407 26 418 26 q34 0 55 -31 q8 -12 8 -21 q0 -18 -230 -131 l0 -1 l294 14 q31 2 45 7 q14 5 24 5 q10 0 23 -11.5 q13 -11.5 21.5 -24.5 q8.5 -13 8.5 -21 q0 -15 -25 -18 l-373 -16 q9 -43 9 -93 q0 -161 -64 -161 Z" /><glyph glyph-name="uni4EC0" unicode="&#x4ec0;" d="M671 -98 q-18 0 -39.5 16.5 q-21.5 16.5 -21.5 38.5 q0 7 4 26 q4 19 4 44 l0 381 l-188 -12 q-47 0 -57 12 q-23 26 -27 55 q0 11 9 11 q4 0 14.5 -4.5 q10.5 -4.5 32.5 -4.5 q12 0 216 13 l0 266 q0 26 -8 36 q-8 10 -8 17 q0 14 20 14 q14 0 36 -7 q22 -7 30 -13.5 q8 -6.5 8 -22.5 l0 -286 l166 10 q31 3 40.5 6.5 q9.5 3.5 15.5 3.5 q6 0 20 -10 q36 -27 36 -47 q0 -11 -10 -14.5 q-10 -3.5 -268 -18.5 l1 -478 q0 -32 -26 -32 ZM262 -90 q-23 0 -40.5 16 q-17.5 16 -17.5 29 q0 11 3 24 q3 13 12 452 q-68 -83 -135 -136 q-28 -21 -37 -21 q-13 0 -13 14 q0 9 13 26 q208 248 257 410 q11 32 11 38 l-1 10 q0 16 14 16 q9 0 25 -6 q44 -20 44 -46 q0 -24 -74 -153 q-18 -31 -30 -50 l-4 -597 q0 -26 -27 -26 Z" /><glyph glyph-name="uni4EC5" unicode="&#x4ec5;" d="M250 -103 q-17 0 -38.5 14.5 q-21.5 14.5 -21.5 36.5 q0 6 3.5 22 q3.5 16 5.5 461 q-27 -38 -69 -78 q-72 -72 -91 -72 q-12 0 -12 13 q0 9 15 30 q95 117 181 276 q72 134 72 167 q0 11 -2 19 q0 21 18 21 q12 0 28 -8 q44 -18 44 -41 q0 -5 -16 -39 q-39 -93 -96 -184 l3 -611 q0 -27 -24 -27 ZM319 -85 q-12 0 -12 16 q0 13 23 34 q156 133 268 306 q-92 134 -138 243 q-17 41 -17 46 q0 16 17.5 23 q17.5 7 29.5 7 q15 0 23 -20 q56 -126 126 -232 q84 147 116 283 l-292 -19 q-33 0 -42 8 q-14 12 -24 29.5 q-10 17.5 -10 25.5 q0 11 15 11 l56 -4 l345 19 q30 0 43 -27 q5 -11 5 -17 q0 -7 -5 -14 q-5 -7 -6 -9 q-49 -185 -155 -351 q126 -170 290 -288 q13 -8 13 -18 q0 -11 -12 -22 q-30 -24 -45 -24 q-16 0 -25 7 q-154 136 -264 282 q-136 -193 -285 -277 q-30 -18 -38 -18 Z" /><glyph glyph-name="uni4EC7" unicode="&#x4ec7;" d="M244 -104 q-17 0 -37 15 q-20 15 -20 34 q4 35 7 93 l8 389 q-66 -88 -131 -142 q-29 -23 -38 -23 q-14 0 -14 14 q0 10 15 29 q111 132 185 278 q74 146 74 184 l0 11 q0 20 15 20 q11 0 27 -9 q44 -26 44 -47 q0 -15 -37.5 -88 q-37.5 -73 -65.5 -118 l-5 -613 q0 -27 -27 -27 ZM328 -71 q-12 0 -12 13 q0 9 13 27 q84 109 129.5 228 q45.5 119 65.5 261 l-104 -13 q-9 -1 -21 -1 q-14 0 -27 9 q-1 2 -2 2.5 q-1 0.5 -8 7 q-7 6.5 -16.5 24 q-9.5 17.5 -9.5 22.5 q0 13 14 13 q5 0 14 -2.5 q9 -2.5 34 -2.5 q11 0 134 14 q9 87 11 195 q0 21 -8.5 35.5 q-8.5 14.5 -8.5 21.5 q0 14 16 14 q10 0 29 -3 q54 -11 54 -37 q-2 -113 -13 -216 l162 19 q30 0 42 -15.5 q12 -15.5 12 -23.5 q0 -8 -2 -14.5 q-2 -6.5 -49 -448.5 q0 -26 11.5 -35 q11.5 -9 48.5 -9 q38 0 53.5 3 q15.5 3 24 17.5 q8.5 14.5 15 49.5 q6.5 35 15 89.5 q8.5 54.5 24.5 54.5 q21 0 21 -121 q0 -49 -2.5 -81.5 q-2.5 -32.5 -16.5 -51.5 q-24 -35 -106 -35 q-81 0 -114 13 q-53 20 -53 89 l44 444 l-139 -17 q-42 -360 -253 -530 q-15 -9 -22 -9 Z" /><glyph glyph-name="uni4ECB" unicode="&#x4ecb;" d="M45 306 q-15 0 -15 12 q0 13 24 28 q184 120 290 252 q80 99 106 172 q10 27 10 43 q0 16 18 16 q9 0 26 -7 q17 -7 32 -18 q15 -11 15 -24 q0 -13 -17 -39 q180 -230 436 -335 q23 -10 23 -21 q0 -10 -13.5 -22.5 q-13.5 -12.5 -28.5 -22 q-15 -9.5 -22 -9.5 q-7 0 -54 26 q-231 128 -380 322 q-100 -156 -237 -260 q-99 -73 -181 -103 q-29 -10 -32 -10 ZM653 -106 q-6 0 -20.5 5.5 q-14.5 5.5 -27.5 17.5 q-13 12 -13 27 q0 12 4 33 q4 21 4 42 l0 395 q0 20 -11.5 33.5 q-11.5 13.5 -11.5 22.5 q0 12 21 12 q16 0 40 -8.5 q24 -8.5 32.5 -16 q8.5 -7.5 8.5 -23.5 l1 -508 q0 -32 -27 -32 ZM125 -94 q-14 0 -14 14 q0 11 25 30 q67 48 111 97 q88 95 88 344 q0 26 -9.5 41 q-9.5 15 -9.5 21 q0 14 18 14 q12 0 30 -5 q52 -12 52 -38 q-2 -182 -23 -257.5 q-21 -75.5 -49.5 -113 q-28.5 -37.5 -63 -65.5 q-34.5 -28 -67 -46 q-32.5 -18 -56.5 -27 q-24 -9 -32 -9 Z" /><glyph glyph-name="uni4ECD" unicode="&#x4ecd;" d="M230 -90 q-15 0 -36 11.5 q-21 11.5 -21 33.5 q0 10 3 26 q3 16 7 451 q-106 -146 -144 -146 q-12 0 -12 15 q0 10 14 29 q93 121 168 276 q29 62 45 106 q16 44 16 54 q0 10 -4 26 q0 16 17 16 q4 0 21 -5 q52 -15 52 -47 q0 -14 -32.5 -90.5 q-32.5 -76.5 -66.5 -132.5 l-1 -598 q0 -25 -26 -25 ZM844 -40 q-30 -36 -60 -36 q-30 0 -86 47.5 q-56 47.5 -81 79 q-25 31.5 -25 40.5 q0 12 15 12 q10 0 53.5 -27.5 q43.5 -27.5 78 -44 q34.5 -16.5 40.5 -16.5 q1 0 1 2 q44 101 68 376 l-87 -5 q-9 -1 -24 -5.5 q-15 -4.5 -31 -4.5 q-18 0 -26 11 q-14 16 -14 29 q0 12 76 243 l-166 -11 q-16 -199 -49.5 -312 q-33.5 -113 -71.5 -185 q-38 -72 -75.5 -118 q-37.5 -46 -65 -68.5 q-27.5 -22.5 -36.5 -22.5 q-13 0 -13 15 q0 10 12 27 q158 208 198 507 q11 83 16 152 l-92 -7 q-22 0 -39.5 23 q-17.5 23 -17.5 40 q0 10 13 10 q28 -4 51 -4 l372 28 q24 0 41 -11.5 q17 -11.5 17 -24.5 q0 -12 -4.5 -20 q-4.5 -8 -79.5 -225 l134 10 q12 0 29 -12.5 q17 -12.5 17 -27.5 q0 -13 -3 -20.5 q-3 -7.5 -4 -12.5 q-35 -374 -81 -431 Z" /><glyph glyph-name="uni4ECE" unicode="&#x4ece;" d="M322 -77 q-13 0 -13 13 q0 8 22 30 q75 75 134 158 q153 221 160 616 q0 24 -13 41 q-6 9 -6 15 q0 14 20 14 q14 0 40 -9.5 q26 -9.5 35.5 -17 q9.5 -7.5 9.5 -19.5 q-2 -145 -25 -276 q112 -320 293 -489 q16 -13 16 -22 q0 -9 -14 -19 q-14 -10 -30 -17 q-16 -7 -25 -7 q-12 0 -43.5 37.5 q-31.5 37.5 -71.5 101.5 q-93 145 -151 296 q-34 -151 -139 -280 q-81 -100 -160 -147 q-31 -19 -39 -19 ZM54 -8 q-14 0 -14 14 q0 10 16 33 q124 170 174 375 q29 119 35 280 q0 19 -7.5 33 q-7.5 14 -7.5 21 q0 15 18 15 q12 0 30 -5 q51 -14 51 -43 q-7 -153 -33 -272 q60 -59 170 -201 q9 -13 9 -24 q0 -11 -9 -22 q-9 -11 -20 -18 q-11 -7 -22 -7 q-12 0 -26 21 q-60 99 -122 172 q-27 -101 -67 -168 q-40 -67 -74.5 -109.5 q-34.5 -42.5 -62.5 -68.5 q-28 -26 -38 -26 Z" /><glyph glyph-name="uni4ED6" unicode="&#x4ed6;" d="M665 -58 q-94 0 -148 5 q-111 9 -111 108 l4 300 l-47 -18 q-17 -6 -30 -6 q-15 0 -27 8 q-12 8 -19 16.5 q-7 8.5 -8 10.5 q-1 2 -3 5 q-2 3 -2 6 q0 12 16 12 q16 0 51 12 l69 27 l2 126 q0 30 -12 44 q-6 9 -6 13 q0 12 17 12 q11 0 38 -7.5 q27 -7.5 31 -18.5 q4 -11 4 -24 l-2 -117 l111 43 l1 228 q0 29 -15 48 q-4 6 -4 11 q0 12 19 12 q13 0 35 -6.5 q22 -6.5 30 -15.5 q8 -9 8 -25 l-1 -223 q171 66 178 66 q10 0 28 -11.5 q18 -11.5 18 -24.5 q0 -11 -2.5 -17 q-2.5 -6 -3.5 -10 q-9 -140 -19 -225 q-10 -85 -27.5 -124 q-17.5 -39 -47.5 -39 q-30 0 -74 50.5 q-44 50.5 -44 68.5 q0 13 13 13 q9 0 33 -16 q24 -16 41 -24 q14 -7 18 -8 l0 1 q27 112 34 282 l-145 -56 l-1 -314 q0 -31 -23 -31 q-3 0 -16 5 q-38 14 -38 44 l0 7 q4 31 5 261 l-111 -43 l-4 -314 q0 -25 9 -33.5 q9 -8.5 36 -11.5 q68 -8 139 -8 q90 0 184 13 q18 3 27.5 7.5 q9.5 4.5 17.5 23 q8 18.5 26 144.5 q7 48 24 48 q17 0 19 -31.5 q2 -31.5 2 -80.5 q0 -50 -3.5 -91.5 q-3.5 -41.5 -23.5 -65.5 q-33 -41 -270 -41 ZM258 -67 q0 -25 -23 -25 q-23 0 -39 14 q-16 14 -16 26 q0 15 3 31 q3 16 7 457 q-54 -76 -111 -127 q-27 -23 -37 -23 q-15 0 -15 15 q0 10 14 29 q94 123 143.5 214.5 q49.5 91.5 68.5 146.5 q19 55 19 66 l-4 25 q0 15 18 15 q12 0 28 -7 q16 -7 29 -18.5 q13 -11.5 13 -25.5 q0 -12 -33.5 -82.5 q-33.5 -70.5 -64.5 -123.5 l0 -607 Z" /><glyph glyph-name="uni4ED8" unicode="&#x4ed8;" d="M246 -79 q-26 0 -42 17.5 q-16 17.5 -16 26.5 q0 14 3.5 29 q3.5 15 7.5 439 q-52 -66 -98.5 -109 q-46.5 -43 -57.5 -43 q-15 0 -15 13 q0 12 14 30 q114 141 189 291 q29 61 43.5 102 q14.5 41 14.5 49 q0 8 -3 26 q0 17 17 17 q11 0 29 -9 q46 -22 46 -44 q0 -16 -37 -91 q-37 -75 -70 -131 l0 -586 q0 -27 -25 -27 ZM723 -94 q-32 0 -145 83 q-63 49 -63 71 q0 13 16 13 q12 0 55.5 -23.5 q43.5 -23.5 112.5 -43.5 l-3 466 l-314 -18 q-26 0 -43 9 q-17 9 -32 50 q-1 3 -1 9 q0 10 12 10 q4 0 15 -4 q11 -4 33 -4 l330 18 l-1 171 q0 27 -16 49 q-8 12 -8 19 q0 15 21 15 q16 0 42 -9 q26 -9 33.5 -19.5 q7.5 -10.5 7.5 -27.5 l1 -194 l91 5 q30 3 39.5 7 q9.5 4 19.5 4 q11 0 25.5 -11.5 q14.5 -11.5 24.5 -25 q10 -13.5 10 -20.5 q0 -17 -33 -19 l-177 -10 q3 -478 5 -511 q0 -23 -12.5 -36 q-12.5 -13 -25 -18 q-12.5 -5 -20.5 -5 ZM557 182 q-15 0 -27 19 q-42 75 -108 151 q-7 10 -7 19 q0 10 16 22.5 q16 12.5 26 12.5 q9 0 26 -16.5 q17 -16.5 38 -40.5 q21 -24 39.5 -49.5 q18.5 -25.5 31.5 -45.5 q13 -20 13 -30 q0 -11 -17.5 -26.5 q-17.5 -15.5 -30.5 -15.5 Z" /><glyph glyph-name="uni4EE3" unicode="&#x4ee3;" d="M924 -69 q-14 -19 -36 -19 q-22 0 -61.5 23 q-39.5 23 -66.5 51 q-135 133 -189 347 q-13 53 -20 87 q-152 -24 -161 -24 q-25 0 -52 47 l-3 7 q0 14 16 14 q6 -1 17 -1 q14 0 171 24 q-23 140 -26 238 q-2 27 -13.5 44 q-11.5 17 -11.5 24 q0 15 19 15 q13 0 30 -3 q51 -9 51 -45 q3 -116 27 -261 q232 35 240.5 39.5 q8.5 4.5 16.5 4.5 q8 0 21 -8 q33 -21 33 -38 q0 -20 -31 -24 l-267 -41 q9 -38 21 -90.5 q12 -52.5 42 -119.5 q69 -147 174 -213 q4 -2 6 -2 q5 0 24.5 62 q19.5 62 29.5 103.5 q10 41.5 26 41.5 q17 0 17 -44 q0 -58 -17 -150 q-13 -70 -27 -89 ZM281 -83 q-25 0 -42.5 17.5 q-17.5 17.5 -17.5 29.5 q0 10 3.5 23.5 q3.5 13.5 7.5 459.5 q-75 -92 -156 -152 q-32 -24 -41 -24 q-13 0 -13 14 q0 10 15 26 q93 100 160.5 198.5 q67.5 98.5 118.5 221.5 q6 13 6 29 q0 9 -1 15 q0 19 16 19 q11 0 28 -10 q44 -26 44 -44 q0 -17 -37.5 -84 q-37.5 -67 -68.5 -113 l1 -599 q0 -27 -23 -27 ZM781 556 q-12 0 -22 12 q-64 77 -119 124 q-11 10 -11 21 q0 9 12 23 q12 14 26 14 q13 0 83.5 -67 q70.5 -67 70.5 -84 q0 -17 -15 -30 q-15 -13 -25 -13 Z" /><glyph glyph-name="uni4EE4" unicode="&#x4ee4;" d="M37 261 q-15 0 -15 16 q0 13 24 33 q173 136 301 299 q65 82 110 168 q8 16 8 38 q0 22 15 22 q23 0 60 -33 q15 -13 15 -25 q0 -12 -22 -47 q181 -223 448 -367 q18 -8 18 -20 q0 -6 -10 -19 q-29 -33 -52 -33 q-7 0 -37 18 q-73 43 -189.5 140 q-116.5 97 -217.5 218 q-136 -197 -333 -339 q-96 -69 -123 -69 ZM613 347 q-10 0 -40 14 q-66 32 -192 73 q-23 8 -23 28 q0 41 31 41 q25 0 115.5 -32.5 q90.5 -32.5 116.5 -43.5 q26 -11 26 -30 q0 -17 -11.5 -33.5 q-11.5 -16.5 -22.5 -16.5 ZM604 -110 q-9 0 -24 12 q-100 90 -222 170 q-19 12 -19 24 q0 11 9.5 26.5 q9.5 15.5 28.5 15.5 q28 0 123 -71 q83 73 170 178 l-402 -18 q-29 0 -37 17 q-23 34 -23 45 q0 14 11 14 q6 0 19 -3 q13 -3 42 -3 q451 23 464 23 q26 0 38 -15.5 q12 -15.5 12 -26.5 q0 -11 -6.5 -18.5 q-6.5 -7.5 -34.5 -41.5 q-64 -76 -191 -195 q73 -52 81 -61.5 q8 -9.5 8 -17.5 q0 -9 -8 -21 q-20 -33 -39 -33 Z" /><glyph glyph-name="uni4EE5" unicode="&#x4ee5;" d="M347 -51 q-16 0 -16 17 q0 14 27 33 q187 133 272 283 q85 150 120 357 q7 41 7 55 q0 12 -3.5 22.5 q-3.5 10.5 -3.5 14.5 q0 14 16 14 q10 0 29 -5 q52 -13 52 -42 q0 -49 -53 -225 q-47 -148 -92 -216 q79 -67 138.5 -128 q59.5 -61 78.5 -85 q19 -24 19 -36 q0 -12 -10 -24 q-10 -12 -21.5 -19.5 q-11.5 -7.5 -19.5 -7.5 q-9 0 -22 16 q-107 143 -202 225 q-75 -105 -194 -185 q-47 -31 -81 -47.5 q-34 -16.5 -41 -16.5 ZM144 19 q-29 0 -58 37 q-17 21 -17 26 q0 10 22 14 q43 9 96 43 l1 502 q0 25 -9.5 37.5 q-9.5 12.5 -9.5 20.5 q0 12 17 12 q12 0 30 -5 q50 -14 50 -40 l-1 -479 q77 49 189 136 q18 14 30 14 q15 0 15 -17 q0 -21 -93 -105.5 q-93 -84.5 -168.5 -140 q-75.5 -55.5 -93.5 -55.5 ZM582 438 q-21 -30 -39 -30 q-18 0 -32 19 q-65 87 -137 150 q-15 13 -15 23 q0 9 11 23 q11 14 27 14 q15 0 24.5 -8 q9.5 -8 27.5 -24 q18 -16 41.5 -37.5 q23.5 -21.5 46 -43.5 q22.5 -22 38 -40.5 q15.5 -18.5 15.5 -26.5 q0 -8 -8 -19 Z" /><glyph glyph-name="uni4EEC" unicode="&#x4eec;" d="M235 -90 q-22 0 -38.5 14.5 q-16.5 14.5 -16.5 31.5 q0 9 3 25 q3 16 7 454 q-61 -79 -112 -125 q-26 -24 -36 -24 q-15 0 -15 15 q0 10 14 29 q102 136 172 275 q59 121 59 151 l-4 26 q0 15 18 15 q12 0 28 -7 q16 -7 29 -18.5 q13 -11.5 13 -23.5 q0 -11 -23 -69.5 q-23 -58.5 -73 -142.5 l0 -601 q0 -25 -25 -25 ZM417 -78 q-11 0 -34.5 12 q-23.5 12 -23.5 36 q0 9 4 30.5 q4 21.5 6 460.5 q0 29 -7.5 42.5 q-7.5 13.5 -7.5 20.5 q0 13 18 13 q12 0 34.5 -8.5 q22.5 -8.5 29 -15.5 q6.5 -7 6.5 -19 l-2 -539 q0 -33 -23 -33 ZM864 -90 q-16 0 -49 18.5 q-33 18.5 -85 65 q-52 46.5 -52 58.5 q0 15 13 15 q8 0 44.5 -17.5 q36.5 -17.5 101.5 -42.5 l-3 637 l-199 -14 q-42 0 -63 54 q-1 3 -1 9 q0 11 12 11 q7 0 18.5 -2.5 q11.5 -2.5 32.5 -2.5 l219 14 q26 0 42.5 -12 q16.5 -12 16.5 -31 l-5 -19 q2 -651 5 -687 q0 -21 -15.5 -37.5 q-15.5 -16.5 -32.5 -16.5 ZM527 521 q-16 0 -27 22 q-58 81 -95 127 q-11 11 -11 22 q0 12 17 26 q12 9 21 9 q14 0 28 -17 q52 -56 98 -122 q11 -15 11 -26 q0 -13 -16 -27 q-16 -14 -26 -14 Z" /><glyph glyph-name="uni4EF6" unicode="&#x4ef6;" d="M646 -109 q-18 0 -38 14 q-20 14 -20 33 q0 5 4 23 q4 18 4 46 l0 253 l-230 -10 q-32 0 -44 23 q-21 31 -21 43 q0 15 10 15 q4 0 17 -5 q13 -5 35 -5 l233 11 l0 175 l-128 -8 q-36 -63 -62.5 -94 q-26.5 -31 -41.5 -39.5 q-15 -8.5 -20 -8.5 q-9 0 -9 14 q0 9 21.5 44 q21.5 35 56.5 123 q35 88 35 142 l-3 17 q0 17 15 17 q11 0 29 -11 q48 -26 48 -49 q0 -9 -16 -44.5 q-16 -35.5 -19 -40.5 l94 6 l0 176 q0 23 -9 36 q-9 13 -9 19 q0 13 18 13 l12 -1 q64 -12 64 -42 l0 -197 q125 8 134 12 q9 4 18 4 q10 0 34 -18 q24 -18 24 -31 q0 -15 -10 -19.5 q-10 -4.5 -200 -15.5 l0 -176 l193 10 q11 1 22.5 1.5 q11.5 0.5 19.5 3 q8 2.5 15 2.5 q7 0 21 -9 q14 -9 25.5 -22.5 q11.5 -13.5 11.5 -24.5 q0 -19 -30 -21 l-278 -12 l0 -339 q0 -33 -26 -33 ZM244 -97 q-23 0 -40.5 17.5 q-17.5 17.5 -17.5 28.5 q0 10 3.5 26 q3.5 16 7.5 445 q-52 -66 -115 -119 q-29 -22 -39 -22 q-15 0 -15 14 q0 9 14 27 q106 129 185 275 q34 62 52 105.5 q18 43.5 18 54.5 q0 11 -3 26 q0 17 16 17 q7 0 24 -6 q50 -20 50 -46 q0 -26 -73 -156 q-20 -37 -42 -71 l0 -590 q0 -26 -25 -26 Z" /><glyph glyph-name="uni4EF7" unicode="&#x4ef7;" d="M303 331 q-11 0 -11 14 q0 10 18 32 q170 190 246 337 q31 60 31 85.5 q0 25.5 17 25.5 q9 0 25 -9 q43 -23 43 -50 q0 -3 -5 -15 q-5 -12 -11 -25.5 q-6 -13.5 -8 -16.5 q110 -129 327 -289 q15 -12 15 -21 q0 -9 -11.5 -19 q-11.5 -10 -25 -18 q-13.5 -8 -20.5 -8 q-18 0 -115 84 q-113 99 -207 211 q-114 -169 -217 -259 q-68 -59 -91 -59 ZM244 -84 q-19 0 -38.5 17 q-19.5 17 -19.5 30 q0 11 3.5 27 q3.5 16 7.5 444 q-57 -76 -99.5 -114.5 q-42.5 -38.5 -53.5 -38.5 q-16 0 -16 12 q0 12 14 31 q102 130 180 276 q71 134 71 166 q0 11 -2 19 q0 21 18 21 q12 0 29 -8 q43 -19 43 -40 q0 -19 -44.5 -103.5 q-44.5 -84.5 -65.5 -118.5 l0 -591 q0 -29 -27 -29 ZM750 -106 q-9 0 -24 7.5 q-15 7.5 -26 20.5 q-11 13 -11 22 q0 14 4 32 q4 18 4 43 l0 385 q0 21 -16 40 q-6 9 -6 14 q0 14 22 14 q17 0 39.5 -8.5 q22.5 -8.5 30 -16.5 q7.5 -8 7.5 -23 l1 -498 q0 -32 -25 -32 ZM314 -88 q-12 0 -12 13 q0 8 21 29 q100 93 129 192 q24 78 24 237 q0 22 -8.5 35 q-8.5 13 -8.5 22 q0 13 20 13 l10 -2 q65 -12 65 -41 l0 -51 q0 -130 -18.5 -202 q-18.5 -72 -52.5 -117 q-34 -45 -70.5 -73 q-36.5 -28 -64.5 -41.5 q-28 -13.5 -34 -13.5 Z" /><glyph glyph-name="uni4EFB" unicode="&#x4efb;" d="M242 -90 q-15 0 -35.5 12.5 q-20.5 12.5 -20.5 35.5 q0 9 3 21 q3 12 7 457 q-62 -83 -120 -132 q-26 -21 -36 -21 q-12 0 -12 15 q0 10 14 29 q161 208 232 402 q5 14 5 25 q0 10 -3 22 q0 17 17 17 q12 0 29 -8 q43 -19 43 -40 q0 -15 -34.5 -85.5 q-34.5 -70.5 -65.5 -122.5 l0 -601 q0 -26 -23 -26 ZM434 -35 q-44 0 -59.5 8.5 q-15.5 8.5 -30.5 48.5 l-1 5 q0 15 13 15 q4 0 18 -5 q14 -5 38 -5 l165 6 l2 275 l-214 -10 q-44 0 -64 57 q-1 3 -1 7 q0 12 14 12 q38 -8 54 -8 l211 10 l2 208 q-144 -41 -219 -41 q-21 0 -21 14 q0 17 51 31 q115 32 240.5 83.5 q125.5 51.5 150.5 83.5 q7 11 15 11 q7 0 20 -10 q34 -28 34 -61 q0 -33 -195 -89 l0 -227 l202 10 q24 2 36.5 6 q12.5 4 24.5 4 q12 0 31.5 -16.5 q19.5 -16.5 19.5 -34.5 q0 -20 -27 -23 l-287 -14 l0 -276 q178 7 188.5 10.5 q10.5 3.5 18.5 3.5 q9 0 21 -9 q32 -22 32 -44 q0 -19 -26 -22 l-457 -14 Z" /><glyph glyph-name="uni4EFD" unicode="&#x4efd;" d="M233 -84 q-11 0 -24 9 q-32 20 -32 42 q0 7 3.5 23 q3.5 16 7.5 442 q-47 -67 -119 -138 q-17 -17 -28 -17 q-13 0 -13 16 q0 12 13 28 q90 118 164 261 q74 143 74 174 q0 11 -2 19 q0 21 18 21 q12 0 29 -8 q43 -19 43 -41 q0 -32 -109 -212 l0 -590 q0 -29 -25 -29 ZM917 324 q-8 0 -29 21 q-47 44 -124 149 q-77 105 -112 194 q-6 17 -11 31.5 q-5 14.5 -18.5 26 q-13.5 11.5 -13.5 20.5 q0 17 30 17 q8 0 27.5 -3 q19.5 -3 28 -11 q8.5 -8 14.5 -25 q16 -53 69 -139 q72 -117 184 -219 q15 -13 15 -21 q0 -8 -12.5 -17.5 q-12.5 -9.5 -26.5 -16.5 q-14 -7 -21 -7 ZM301 295 q-15 0 -15 15 q0 11 13 29 q79 102 134 217 q55 115 55 153 q0 12 -1 18 q0 21 17 21 q4 0 20 -6 q49 -21 49 -49 l-11 -34 q-32 -94 -115 -212 q-47 -68 -121 -137 q-15 -15 -25 -15 ZM288 -87 q-13 0 -13 14 q0 11 25 32 q171 138 231 352 l-66 -4 q-27 0 -38 9 q-30 32 -30 52 q0 11 13 11 q47 -5 56 -5 l322 19 q15 0 31 -10.5 q16 -10.5 16 -22.5 q0 -12 -3 -17.5 q-3 -5.5 -4 -9.5 q-26 -232 -57 -331 q-26 -83 -74 -83 q-14 0 -44 17.5 q-30 17.5 -76.5 62 q-46.5 44.5 -46.5 57.5 q0 15 16 15 q12 0 50 -22 q38 -22 62 -32 q24 -10 26 -10 q2 0 14 25 q32 75 54 293 l-138 -9 q-50 -165 -149 -274 q-75 -85 -142 -116 q-28 -13 -35 -13 Z" /><glyph glyph-name="uni4F17" unicode="&#x4f17;" d="M62 307 q-15 0 -15 12 q0 14 23 29 q172 117 271 247 q75 96 99 167 q10 27 10 43 q0 16 18 16 q8 0 24.5 -7 q16.5 -7 31 -17.5 q14.5 -10.5 14.5 -25.5 q0 -12 -16 -37 q168 -224 407 -328 q22 -9 22 -21 q0 -9 -12.5 -22 q-12.5 -13 -27 -22.5 q-14.5 -9.5 -21.5 -9.5 q-7 0 -52 26 q-216 125 -354 313 q-92 -151 -221 -253 q-94 -71 -170 -101 q-28 -9 -31 -9 ZM60 -91 q-22 0 -22 16 q0 13 18 24 q141 106 198 221 q44 90 56 214 q0 28 -4 36 q-4 8 -4 13 q0 17 24 17 l18 -4 q49 -12 49 -42 q0 -53 -25 -140 q66 -61 98.5 -101 q32.5 -40 32.5 -50 q0 -9 -9 -22 q-21 -22 -39 -22 q-15 0 -26 16 q-42 56 -81 99 q-34 -90 -109.5 -161 q-75.5 -71 -143.5 -101 q-27 -13 -31 -13 ZM908 -84 q-16 0 -85 53 q-115 85 -176 195 q-33 -77 -103.5 -142 q-70.5 -65 -146.5 -95 q-26 -11 -29 -11 q-18 0 -18 16 q0 16 17 26 q93 66 158 151 q91 116 91 285 q-1 14 -6.5 23.5 q-5.5 9.5 -5.5 19.5 q0 13 22 13 q18 0 48 -15 q21 -10 22 -30 l1 -9 q0 -25 -21 -144 q85 -167 272 -268 q16 -6 16 -18 q0 -5 -8 -18 q-26 -30 -48 -32 Z" /><glyph glyph-name="uni4F18" unicode="&#x4f18;" d="M808 543 q-14 0 -23 15 q-38 62 -98 119 q-10 10 -10 20 q0 12 14 25 q14 13 26 13 q11 0 24 -12.5 q13 -12.5 32 -30.5 q19 -18 50.5 -52 q31.5 -34 31.5 -49 q0 -16 -16.5 -31.5 q-16.5 -15.5 -30.5 -16.5 ZM236 -90 q-23 0 -39 14 q-16 14 -16 26 q0 15 3 31.5 q3 16.5 7 452.5 q-60 -87 -115 -136 q-26 -23 -35 -23 q-14 0 -14 15 q0 11 14 30 q110 148 180 303 q27 61 39 98.5 q12 37.5 12 43.5 l-4 29 q0 16 17 16 q9 0 25.5 -8 q16.5 -8 30.5 -20.5 q14 -12.5 14 -23.5 q0 -15 -3 -19 q-37 -100 -93 -203 l0 -601 q0 -25 -23 -25 ZM284 -87 q-14 0 -14 16 q0 12 26 35 q189 178 236 462 l-164 -9 q-29 0 -41 10 q-32 27 -32 53 q0 12 12 12 q3 0 18 -3.5 q15 -3.5 29 -3.5 l189 11 q16 108 16 217 q0 46 -15 74 q-3 4 -3 11 q0 14 16 14 q10 0 30 -5 q55 -14 55 -48 q-2 -162 -17 -259 l204 13 q20 2 33 8 q13 6 20 6 q7 0 21 -10 q38 -26 38 -48 q0 -19 -30 -21 l-297 -18 q-44 -219 -131 -341 q-64 -90 -163 -160 q-3 -1 -3 -3 q-23 -13 -33 -13 ZM803 -61 q-81 0 -114 11.5 q-33 11.5 -49 34 q-16 22.5 -16 62.5 l7 268 q0 35 -4.5 46.5 q-4.5 11.5 -4.5 14.5 q0 14 24 14 q20 0 40 -11 q20 -11 20 -33 l-7 -278 q0 -24 6 -35 q12 -18 98 -18 q85 0 95.5 14 q10.5 14 19.5 60.5 q9 46.5 12 87 q3 40.5 24 40.5 q24 0 24 -126 q0 -42 -3 -71.5 q-3 -29.5 -19 -47.5 q-29 -33 -153 -33 Z" /><glyph glyph-name="uni4F1A" unicode="&#x4f1a;" d="M357 397 q-27 0 -39 8 q-35 31 -35 54 q0 1 0 2 q-106 -83 -225 -135 q0 -1 -26 -7 q-16 0 -16 11 q0 12 25 29 q118 82 229.5 183.5 q111.5 101.5 193.5 233.5 q11 19 11 38.5 q0 19.5 18 19.5 q13 0 41 -21.5 q28 -21.5 28 -33.5 q0 -12 -7 -22 l-24 -33 q138 -128 278 -213 q73 -44 154 -85 q21 -11 21 -21 q0 -8 -12 -21 q-31 -30 -48 -30 q-5 0 -44 21 q-190 103 -390 295 q-91 -116 -196 -200 q1 0 2 0 l45 -6 l258 14 q24 3 32.5 6.5 q8.5 3.5 15.5 3.5 q8 0 22 -9.5 q14 -9.5 25 -22.5 q11 -13 11 -21 q0 -18 -30 -20 l-318 -18 ZM789 -99 q-15 0 -30 22 q-28 45 -65 91 q-73 -12 -149 -25 q-76 -13 -180 -30 q-104 -17 -135 -17 q-33 0 -38.5 5.5 q-5.5 5.5 -14.5 14.5 q-22 30 -22 42 q0 15 19 15 q18 -3 39 -3 q8 0 41 3 q79 114 133 217 l-185 -9 q-9 -1 -21 -1 q-27 0 -39 8 q-35 30 -35 55 q0 11 13 11 l47 -6 l606 30 q29 3 37.5 6.5 q8.5 3.5 13.5 3.5 q6 0 21 -9 q40 -24 40 -47 q0 -18 -30 -20 l-376 -18 q-75 -130 -133 -211 q149 17 305 40 q-18 23 -77 91 q-10 13 -10 22 q0 8 13.5 22.5 q13.5 14.5 27.5 14.5 q14 0 27 -15 q206 -233 206 -256 q0 -15 -17.5 -31 q-17.5 -16 -31.5 -16 Z" /><glyph glyph-name="uni4F20" unicode="&#x4f20;" d="M250 -103 q-17 0 -38.5 14.5 q-21.5 14.5 -21.5 36.5 q0 6 3.5 22 q3.5 16 5.5 461 q-27 -38 -84 -94 q-57 -56 -76 -56 q-12 0 -12 13 q0 9 15 30 q95 117 181 276 q72 134 72 167 q0 11 -2 19 q0 21 18 21 q12 0 28 -8 q44 -18 44 -41 q0 -5 -16 -39 q-39 -93 -96 -184 l3 -611 q0 -27 -24 -27 ZM754 -110 q-9 0 -24 12 q-96 88 -222 170 q-19 12 -19 24 q0 11 9.5 26.5 q9.5 15.5 31.5 15.5 q21 0 94 -53 q64 60 116 126 l-153 -8 l0 2 q-79 -4 -88 -7 q-9 -3 -21 -3 q-12 0 -30 8 q-18 8 -18 30 q0 7 2 14 l53 130 l-120 -6 q-52 0 -71 57 q-1 3 -1 8 q0 10 10 10 q5 0 17 -4 q12 -4 36 -4 l155 8 q25 69 39 115 q-94 -6 -112 -6 q-26 0 -45 37 q-8 16 -8 23 q0 12 10 12 q4 0 15.5 -4 q11.5 -4 37.5 -4 l119 7 q25 111 25 126 q0 15 -3.5 27.5 q-3.5 12.5 -3.5 18.5 q0 14 15 14 q9 0 31 -8 q44 -18 44 -42 q-5 -33 -27 -132 q148 8 159.5 13 q11.5 5 18.5 5 q8 0 32.5 -18 q24.5 -18 24.5 -34 q0 -16 -31 -18 l-224 -13 q-15 -48 -40 -116 l280 15 q28 2 40 6.5 q12 4.5 19 4.5 q8 0 21.5 -11 q13.5 -11 24.5 -23.5 q11 -12.5 11 -19.5 q0 -16 -32 -18 l-389 -21 l-48 -112 q286 16 299 16 q26 0 38 -15.5 q12 -15.5 12 -26.5 q0 -11 -6.5 -18.5 q-6.5 -7.5 -39.5 -48 q-33 -40.5 -132 -136.5 l19 -14 q80 -55 88 -65 q8 -10 8 -18 q0 -9 -8 -21 q-20 -33 -39 -33 Z" /><glyph glyph-name="uni4F2A" unicode="&#x4f2a;" d="M304 -92 q-8 0 -8 15 q0 11 23 31 q93 100 137 192 q80 165 105 315 l-158 -9 q-19 0 -30 7 q-13 12 -22.5 31 q-9.5 19 -9.5 27 q0 12 7 12 q6 0 18.5 -2.5 q12.5 -2.5 36.5 -2.5 q12 0 169 9 q9 93 9 156 q0 63 -1.5 73.5 q-1.5 10.5 -6 21.5 q-4.5 11 -4.5 16 q0 15 18 15 q13 0 34 -7 q21 -7 33.5 -17.5 q12.5 -10.5 12.5 -29.5 q0 -107 -13 -224 l199 11 q63 0 63 -40 l-5 -26 q-9 -270 -49 -461 q-18 -107 -75 -107 q-14 0 -53.5 19 q-39.5 19 -111 70 q-71.5 51 -71.5 70 q0 15 15 15 q9 0 51 -20.5 q42 -20.5 88 -38.5 q46 -18 59 -18 q9 0 9 3 q36 125 51 309 q7 86 7 153 l-189 -10 q-26 -169 -99.5 -305.5 q-73.5 -136.5 -141.5 -193.5 q-73 -59 -97 -59 ZM743 154 q-12 0 -18 8 q-6 8 -26.5 53.5 q-20.5 45.5 -65.5 107.5 q-7 10 -7 19 q0 13 13.5 23.5 q13.5 10.5 25.5 10.5 q27 0 97 -125 q28 -50 28 -60 q0 -12 -18 -24.5 q-18 -12.5 -29 -12.5 ZM500 574 q-18 0 -30 27 q-22 67 -54 111 q-9 13 -9 19 q0 15 18.5 23.5 q18.5 8.5 26.5 8.5 q9 0 25 -18 q16 -18 32.5 -43 q16.5 -25 28 -53 q11.5 -28 11.5 -40 q0 -15 -19.5 -25 q-19.5 -10 -29.5 -10 ZM250 -103 q-17 0 -38.5 14.5 q-21.5 14.5 -21.5 36.5 q0 6 3.5 22 q3.5 16 5.5 461 q-27 -38 -84 -94 q-57 -56 -76 -56 q-12 0 -12 13 q0 9 15 30 q95 117 181 276 q72 134 72 167 q0 11 -2 19 q0 21 18 21 q12 0 28 -8 q44 -18 44 -41 q0 -5 -16 -39 q-39 -93 -96 -184 l3 -611 q0 -27 -24 -27 Z" /><glyph glyph-name="uni4F30" unicode="&#x4f30;" d="M484 -82 q-24 0 -41 15 q-17 15 -17 29 l4 45 q0 8 -18 228 q-3 34 -9 47.5 q-6 13.5 -6 19.5 q0 14 21 14 q16 0 66 -17 l113 5 l-1 169 l-223 -12 q-27 0 -38.5 11.5 q-11.5 11.5 -19 30 q-7.5 18.5 -7.5 24.5 q0 10 11 10 q5 0 17 -4 q12 -4 36 -4 l224 12 l-1 198 q0 18 -7.5 31.5 q-7.5 13.5 -7.5 21.5 q0 11 15 11 q10 0 27 -3 q53 -8 53 -38 l-2 -217 q199 13 214 17 q15 4 24 4 q9 0 23.5 -8 q14.5 -8 26 -20.5 q11.5 -12.5 11.5 -23.5 q0 -20 -30 -22 l-269 -16 l-2 -169 q137 8 144 9 q29 0 43 -16.5 q14 -16.5 14 -25.5 q0 -10 -4 -16 q-4 -6 -30 -208 q25 -31 25 -42 q0 -15 -11.5 -18 q-11.5 -3 -344.5 -12 l2 -30 q0 -30 -25 -30 ZM249 -89 q-2 0 -16 4 q-14 4 -28.5 15 q-14.5 11 -14.5 26 q0 12 3.5 27.5 q3.5 15.5 7.5 443.5 q-62 -85 -123 -137 q-29 -23 -39 -23 q-15 0 -15 12 q0 12 14 30 q104 125 184 283 q71 140 71 171 q0 11 -3 23 q0 16 18 16 q13 0 30.5 -8 q17.5 -8 31 -19.5 q13.5 -11.5 13.5 -24.5 q0 -11 -41.5 -92.5 q-41.5 -81.5 -68.5 -125.5 l0 -594 q0 -27 -24 -27 ZM503 45 l263 9 l18 193 l-296 -14 l15 -188 Z" /><glyph glyph-name="uni4F3C" unicode="&#x4f3c;" d="M228 -92 q-22 0 -38 15 q-16 15 -16 29 q0 11 3 27.5 q3 16.5 6 450.5 q-16 -24 -51 -65 q-69 -79 -92 -79 q-12 0 -12 15 q0 10 14 29 q99 128 167 273 q28 62 43 105 q15 43 15 52 q0 9 -3 24 q0 17 17 17 q11 0 27 -7 q44 -18 44 -39 q0 -18 -35.5 -94 q-35.5 -76 -63.5 -124 l1 -604 q0 -25 -26 -25 ZM463 -68 q-15 0 -15 17 q0 13 34 38.5 q34 25.5 78 73.5 q141 157 186 358 q28 127 33 244 q0 36 -5.5 50 q-5.5 14 -5.5 17 q0 12 17 12 q11 0 36.5 -8.5 q25.5 -8.5 31.5 -18 q6 -9.5 6 -29.5 q-18 -267 -97 -448 q204 -218 204 -251 q0 -17 -19 -33 q-19 -16 -30 -16 q-12 0 -26 21 q-89 130 -164 216 q-58 -97 -147 -170 q-89 -73 -117 -73 ZM369 50 q-18 0 -34.5 10.5 q-16.5 10.5 -28.5 22 q-12 11.5 -12 18.5 q0 9 23 15.5 q23 6.5 52 24.5 l2 455 q0 26 -15 49 q-4 6 -4 10 q0 13 19 13 q37 0 61 -17 q12 -10 12 -26 l-2 -434 q61 43 151 121 q16 13 28 13 q16 0 16 -15 q0 -12 -17 -31 q-17 -19 -61.5 -65 q-44.5 -46 -108.5 -105 q-64 -59 -81 -59 ZM631 431 q-13 0 -26 21 q-36 60 -102 136 q-8 10 -8 22 q0 12 13.5 23 q13.5 11 23.5 11 q21 0 104 -102 q44 -55 44 -71 q0 -12 -12 -21.5 q-12 -9.5 -23.5 -14 q-11.5 -4.5 -13.5 -4.5 Z" /><glyph glyph-name="uni4F46" unicode="&#x4f46;" d="M261 -65 q0 -25 -23 -25 q-23 0 -40 15 q-17 15 -17 28 l6 70 l4 416 q-56 -80 -115 -132 q-25 -21 -34 -21 q-14 0 -14 14 q0 10 15 31 q99 131 162 265 q63 134 63 165 l-4 26 q0 15 18 15 q12 0 28 -7 q16 -7 29 -18.5 q13 -11.5 13 -22.5 q0 -35 -91 -203 l0 -616 ZM471 163 q-21 0 -39 16 q-18 16 -18 29 l3 39 l-18 373 q-3 32 -12.5 51 q-9.5 19 -9.5 26 q0 11 18 11 q13 0 72 -21 l333 20 q34 0 49 -30 q6 -12 6 -18 q0 -7 -3.5 -14 q-3.5 -7 -30.5 -364 q31 -35 31 -47 q0 -15 -12.5 -18 q-12.5 -3 -345.5 -15 l1 -12 q0 -26 -24 -26 ZM481 484 l277 16 l9 137 l-293 -18 l7 -135 ZM491 271 l254 10 l10 150 l-271 -15 l7 -145 ZM341 -14 q-18 0 -31.5 15.5 q-13.5 15.5 -20.5 31.5 q-7 16 -7 20 q0 12 12 12 q7 0 19.5 -3 q12.5 -3 40.5 -3 q531 17 542.5 20.5 q11.5 3.5 18.5 3.5 q7 0 22 -10 q40 -25 40 -47 q0 -19 -30 -21 l-572 -17 q-20 -2 -34 -2 Z" /><glyph glyph-name="uni4F4D" unicode="&#x4f4d;" d="M240 -103 q-24 0 -40 17.5 q-16 17.5 -16 28.5 q0 10 3 22.5 q3 12.5 7 455.5 q-24 -31 -64 -71 q-72 -78 -93 -78 q-14 0 -14 16 q0 12 14 28 q113 139 188 283 q33 62 50 106.5 q17 44.5 17 54.5 q0 17 -3 29 q0 15 17 15 q11 0 28.5 -8.5 q17.5 -8.5 31.5 -20.5 q14 -12 14 -24 q0 -10 -35 -85 q-35 -75 -78 -143 l0 -600 q0 -26 -27 -26 ZM383 490 q-21 0 -29 6 q-35 31 -35 58 q0 12 11 12 q6 0 17 -2.5 q11 -2.5 32 -2.5 q13 0 193 10 l-3 152 q0 20 -17 46 q-4 6 -4 11 q0 14 22 14 q17 0 40.5 -8 q23.5 -8 31 -16 q7.5 -8 7.5 -20 l-1 -176 l154 8 q22 2 35.5 6.5 q13.5 4.5 18.5 4.5 q5 0 20 -9 q42 -23 42 -46 q0 -17 -28 -21 q-477 -26 -507 -27 ZM350 -33 q-48 0 -65 45 q-7 19 -7 24 q0 10 12 10 q7 0 22 -4 q15 -4 38 -4 l264 8 q59 164 88 341 q6 33 6 42 q0 8 -6 20.5 q-6 12.5 -6 17.5 q0 15 20 15 q82 -14 82 -41 q0 -10 -12.5 -65 q-12.5 -55 -41.5 -153.5 q-29 -98.5 -61 -175.5 q203 7 216 11 q13 4 19 4 q7 0 21 -9 q40 -21 40 -46 q0 -22 -32 -24 l-597 -16 ZM534 78 q-23 0 -29 32 q-31 169 -77 296 q-4 10 -4 22 q0 14 19 22.5 q19 8.5 27 8.5 q17 0 28 -27 q59 -160 82 -281 q6 -28 6 -39 q0 -25 -52 -34 Z" /><glyph glyph-name="uni4F4E" unicode="&#x4f4e;" d="M748.5 -98 q-16.5 -15 -26.5 -15 q-10 0 -21 11 q-52 56 -120 110 q-13 9 -13 22 q0 10 11.5 23 q11.5 13 20.5 13 q24 0 113 -77 q52 -46 52 -62 q0 -10 -16.5 -25 ZM882 -108 q-32 0 -81 53 q-49 53 -93.5 157 q-44.5 104 -70.5 245 l-171 -14 l-2 -255 q60 24 105.5 47 q45.5 23 55.5 23 q12 0 12 -14 q-1 -20 -66 -63.5 q-65 -43.5 -129.5 -79 q-64.5 -35.5 -81.5 -35.5 q-14 0 -26.5 12 q-12.5 12 -21 25.5 q-8.5 13.5 -12 18 q-3.5 4.5 -3.5 15.5 q0 12 14 14 l19 -2 q19 0 61 11 l2 520 q0 53 -16 84 l-1 8 q0 13 15 13 q13 0 73 -23 q82 20 181.5 58 q99.5 38 121.5 66 q11 15 18 15 q7 0 23.5 -22.5 q16.5 -22.5 16.5 -41.5 q0 -21 -16 -28 q-79 -32 -139 -51 q10 -133 27 -231 q99 10 116.5 15.5 q17.5 5.5 30.5 5.5 q12 0 33.5 -17 q21.5 -17 21.5 -35 q0 -17 -26 -21 l-165 -12 q24 -107 58.5 -191 q34.5 -84 64 -128 q29.5 -44 39.5 -44 q18 1 69 157 q15 36 26 36 q12 0 12 -31 q0 -62 -49 -216 q-15 -43 -46 -44 ZM239 -90 q-26 0 -42 14 q-16 14 -16 31 l1 13 q5 25 5 55 l4 412 q-44 -58 -90 -103.5 q-46 -45.5 -62 -45.5 q-12 0 -12 14 q0 10 14 30 q112 153 171.5 276.5 q59.5 123.5 59.5 149.5 q0 11 -4 23 q0 18 18 18 q12 0 28 -7 q16 -7 29 -18.5 q13 -11.5 13 -26.5 q0 -13 -29 -77.5 q-29 -64.5 -68 -131.5 l0 -601 q0 -25 -20 -25 ZM466 399 l159 13 q-17 106 -26 211 q-69 -20 -132 -35 l-1 -189 Z" /><glyph glyph-name="uni4F4F" unicode="&#x4f4f;" d="M680 616 q-12 0 -25 13 q-71 72 -157 130 q-17 11 -17 23 q0 10 12 24.5 q12 14.5 27 14.5 q13 0 74 -44 q124 -89 124 -114 q0 -13 -12.5 -30 q-12.5 -17 -25.5 -17 ZM234 -90 q-14 0 -35.5 11 q-21.5 11 -21.5 35 q0 9 2.5 24.5 q2.5 15.5 11.5 451.5 q-49 -63 -92.5 -104.5 q-43.5 -41.5 -55.5 -41.5 q-17 0 -17 13 q0 12 14 30 q87 109 165 246 q78 137 78 192 l-3 14 q0 16 18 16 q12 0 28 -7 q16 -7 29 -18.5 q13 -11.5 13 -23.5 q0 -11 -14 -44 q-37 -88 -95 -177 l-1 -592 q0 -25 -24 -25 ZM342 -50 q-25 0 -38.5 16 q-13.5 16 -19 31.5 q-5.5 15.5 -5.5 17.5 q0 12 12 12 q7 0 18.5 -3 q11.5 -3 41.5 -3 l225 6 l0 228 l-136 -7 q-21 0 -27 5.5 q-6 5.5 -21.5 21 q-15.5 15.5 -15.5 29.5 q0 18 11 18 q6 0 17 -2.5 q11 -2.5 32 -2.5 q13 0 139 6 l0 199 l-171 -10 q-36 0 -46.5 9 q-10.5 9 -21.5 24.5 q-11 15.5 -11 27.5 q0 15 11 15 q6 0 17 -2.5 q11 -2.5 32 -2.5 q13 0 396 21 q23 2 34.5 6 q11.5 4 17.5 4 q7 0 22 -9 q41 -26 41 -47 q0 -16 -28 -19 l-216 -13 l0 -200 l97 5 q22 2 35.5 6.5 q13.5 4.5 18.5 4.5 q6 0 20 -9 q42 -27 42 -45 q0 -16 -28 -20 l-184 -10 l0 -230 q220 6 231.5 9.5 q11.5 3.5 20.5 3.5 q10 0 24 -9 q14 -9 25 -22 q11 -13 11 -24 q0 -22 -30 -22 l-593 -14 Z" /><glyph glyph-name="uni4F53" unicode="&#x4f53;" d="M623 -100 q-21 0 -39 18 q-18 18 -18 29 q8 64 8 89 l0 69 q-67 -4 -82 -4 q-43 0 -61 37 q-8 17 -8 23 q0 11 12 11 l48 -6 l92 5 l1 203 q0 31 1 52 q-15 -57 -94.5 -174 q-79.5 -117 -141.5 -173 q-29 -27 -39 -27 q-15 0 -15 15 q0 11 16 32 q145 184 229 413 l-156 -9 q-20 0 -34.5 12.5 q-14.5 12.5 -21 27 q-6.5 14.5 -6.5 18.5 q0 12 12 12 l49 -5 q13 0 202 11 l1 164 q0 24 -9 36 q-9 12 -9 19 q0 14 17 14 q12 0 28 -4 q45 -11 45 -37 l-1 -189 q174 11 184.5 15 q10.5 4 19.5 4 q9 0 24 -8.5 q15 -8.5 26.5 -21 q11.5 -12.5 11.5 -22.5 q0 -14 -24 -17 l-224 -12 q135 -222 311 -374 q15 -12 15 -20 q0 -8 -8 -19 q-23 -27 -47 -27 q-11 0 -21 9 q-122 119 -240 293 q-15 22 -30 55 q2 -33 2 -56 l-1 -207 q70 4 82.5 9 q12.5 5 21.5 5 q9 0 23 -9 q39 -23 39 -44 q0 -16 -21 -19 l-145 -8 l-1 -174 q0 -34 -24 -34 ZM259 -65 q0 -25 -23 -25 q-23 0 -39 14 q-16 14 -16 26 q0 15 3 31 q3 16 7 454 q-59 -79 -115 -128 q-26 -21 -35 -21 q-14 0 -14 15 q0 10 14 29 q102 136 172 275 q59 121 59 151 l-4 26 q0 15 18 15 q12 0 28 -7 q16 -7 29 -18.5 q13 -11.5 13 -24.5 q0 -11 -14 -45 q-34 -84 -83 -166 l0 -601 Z" /><glyph glyph-name="uni4F55" unicode="&#x4f55;" d="M817.5 -84 q-19.5 -17 -31.5 -17 q-12 0 -45 16 q-77 35 -148 92 q-26 23 -26 35 q0 11 17 11 q11 0 45.5 -15.5 q34.5 -15.5 127.5 -40.5 l-1 609 l-363 -18 q-22 0 -37 13 q-15 13 -21.5 29 q-6.5 16 -6.5 22 q0 1 0 2 q-29 -61 -67 -122 l0 -596 q0 -26 -24 -26 q-23 0 -40 14.5 q-17 14.5 -17 29.5 q0 12 3 24.5 q3 12.5 7 453.5 q-53 -71 -116 -125 q-26 -22 -36 -22 q-12 0 -12 15 q0 10 14 29 q166 215 234 400 q5 14 5 25 q0 10 -3 22 q0 17 17 17 q12 0 29 -8 q43 -19 43 -40 q0 -5 -13 -37 q-10 -24 -21 -47 q3 2 8 2 q5 0 16 -2.5 q11 -2.5 47 -2.5 q485 23 495.5 27 q10.5 4 19.5 4 q9 0 23 -10 q36 -23 36 -43 q0 -17 -30 -21 l-113 -6 q1 -612 4 -650 q0 -26 -19.5 -43 ZM437 172 q-15 0 -36.5 10.5 q-21.5 10.5 -21.5 29.5 q3 21 3 38 q0 15 -13 157 q-3 27 -12 40.5 q-9 13.5 -9 20.5 q0 11 21 11 q16 0 61 -18 l182 10 q29 0 42.5 -12.5 q13.5 -12.5 13.5 -23.5 q0 -10 -3 -14.5 q-3 -4.5 -20 -136.5 q28 -31 28 -42 q0 -15 -14 -17.5 q-14 -2.5 -203 -9.5 l1 -13 q0 -30 -20 -30 ZM452 280 l122 5 l9 119 l-139 -8 l8 -116 Z" /><glyph glyph-name="uni4F59" unicode="&#x4f59;" d="M483 -107 q-14 0 -50.5 16.5 q-36.5 16.5 -88.5 54 q-52 37.5 -52 51.5 q0 14 17 14 q11 0 51 -16 q40 -16 100 -32 l2 288 l-248 -13 q-14 0 -29 7.5 q-15 7.5 -29 43.5 q-2 7 -2 13 q0 10 11 10 q6 0 14.5 -2.5 q8.5 -2.5 25.5 -2.5 q12 0 257 11 l1 100 l-95 -6 q-11 0 -28 6.5 q-17 6.5 -30 40.5 q-1 4 -2 7 q-2 -2 -4 -4 q-105 -84 -234 -155 q-14 -8 -25 -8 q-15 0 -15 13 q0 13 23 29 q172 121 290 259 q60 70 113 147 q9 16 9 45 q0 21 19 21 q9 0 26 -7.5 q17 -7.5 32 -19 q15 -11.5 15 -21.5 q0 -10 -5 -17 l-17 -27 q185 -203 426 -321 q21 -10 21 -19 q0 -7 -12 -20 q-28 -32 -51 -32 q-7 0 -48 24 q-41 24 -104 68 q-156 110 -273 243 q-76 -104 -167 -183 q3 0 7 -1 q8 -3 37 -3 q240 15 250 19 q10 4 18 4 q8 0 21 -7.5 q13 -7.5 23.5 -19.5 q10.5 -12 10.5 -22 q0 -20 -29 -22 l-127 -8 l-1 -100 q227 11 237.5 15 q10.5 4 18.5 4 q9 0 32 -16.5 q23 -16.5 23 -34.5 q0 -18 -26 -21 l-285 -14 l-2 -281 l2 -40 q0 -58 -54 -58 ZM113 -41 q-14 0 -14 14 q0 11 41 46.5 q41 35.5 91 92.5 q54 64 62 99 q4 20 18 20 q5 0 20 -9 q42 -23 42 -50 q0 -8 -6 -14 q-55 -68 -110.5 -112.5 q-55.5 -44.5 -95.5 -65.5 q-40 -21 -48 -21 ZM823 -25 q-10 0 -25 15 q-76 88 -174 172 q-15 12 -15 26 q0 14 13.5 26 q13.5 12 22.5 12 q8 0 35 -19.5 q27 -19.5 88 -75 q61 -55.5 79.5 -75 q18.5 -19.5 18.5 -32.5 q0 -14 -16 -31.5 q-16 -17.5 -27 -17.5 Z" /><glyph glyph-name="uni4F5C" unicode="&#x4f5c;" d="M619 -100 q-26 0 -43 16 q-17 16 -17 34 q5 40 5 68 l2 524 l-47 -4 q-82 -140 -159 -207 q-32 -27 -42 -27 q-12 0 -12 14 q0 10 31 52 q31 42 71 114 q79 142 111 244 q14 45 14 56 l-1 28 q0 17 15 17 q10 0 28 -7.5 q18 -7.5 33.5 -19.5 q15.5 -12 15.5 -24 q0 -28 -67 -169 q329 24 341.5 29 q12.5 5 20.5 5 q8 0 23 -12 q34 -27 34 -44 q0 -16 -28 -19 l-307 -22 l0 -120 l148 9 q17 1 29 6 q12 5 20 5 q9 0 23 -10.5 q14 -10.5 25 -23 q11 -12.5 11 -20.5 q0 -16 -28 -19 l-228 -15 l1 -121 l169 10 q22 2 33.5 6.5 q11.5 4.5 20.5 4.5 q10 0 23.5 -12 q13.5 -12 22.5 -25 q9 -13 9 -19 q0 -17 -28 -20 l-250 -13 l0 -242 q0 -27 -23 -27 ZM251 -86 q-55 14 -55 45 q0 14 3 26.5 q3 12.5 6 437.5 q-60 -80 -127 -135 q-28 -22 -38 -22 q-14 0 -14 15 q0 10 13 27 q106 128 182 270.5 q76 142.5 76 191.5 l-2 15 q0 18 17 18 q11 0 28.5 -8 q17.5 -8 32.5 -20.5 q15 -12.5 15 -24.5 q0 -10 -16 -44 q-36 -83 -97 -180 l2 -582 q0 -30 -26 -30 Z" /><glyph glyph-name="uni4F60" unicode="&#x4f60;" d="M613 -96 q-11 0 -43 19.5 q-32 19.5 -78.5 64 q-46.5 44.5 -46.5 62.5 q0 13 14 13 q10 0 30 -12 q52 -33 108 -52 l-4 545 l-104 -6 q-42 -69 -96 -130.5 q-54 -61.5 -71 -61.5 q-12 0 -12 15 q0 10 11 25 q77 111 129.5 226.5 q52.5 115.5 52.5 156.5 q0 14 -1 20 q0 18 13 18 q21 0 61 -30 q15 -13 15 -24 q0 -29 -63 -146 l347 19 q23 0 41 -11.5 q18 -11.5 18 -26.5 q0 -14 -6.5 -21.5 q-6.5 -7.5 -36.5 -51.5 q-76 -109 -99 -109 q-13 0 -13 16 q0 10 18.5 46.5 q18.5 36.5 37.5 89.5 l-167 -10 q4 -549 6 -584 q0 -34 -37 -53 q-15 -7 -24 -7 ZM249 -84 q-24 0 -41.5 16 q-17.5 16 -17.5 32 q0 9 3.5 22 q3.5 13 8.5 438 q-67 -85 -133 -138 q-17 -13 -26 -13 q-14 0 -14 14 q0 9 26 40.5 q26 31.5 82.5 112.5 q56.5 81 113.5 189 q57 108 57 138 l-1 9 q0 17 15 17 q4 0 20 -6 q48 -20 48 -46 q0 -14 -41.5 -88.5 q-41.5 -74.5 -75.5 -125.5 l-1 -585 q0 -26 -23 -26 ZM312 49 q-15 0 -15 12 q0 12 26.5 51.5 q26.5 39.5 65.5 114.5 q44 91 44 128 q0 13 -1 19 q0 19 13 19 q8 0 25 -9 q17 -9 32.5 -22.5 q15.5 -13.5 15.5 -24.5 q0 -10 -3 -19 q-37 -82 -79.5 -142 q-42.5 -60 -77.5 -93.5 q-35 -33.5 -46 -33.5 ZM909 77 q-19 0 -27 20 q-45 97 -146 235 q-6 9 -6 20 q0 11 18.5 23.5 q18.5 12.5 29.5 12.5 q12 0 23 -15 q89 -120 124 -179.5 q35 -59.5 35 -68.5 q0 -10 -17 -29 q-17 -19 -34 -19 Z" /><glyph glyph-name="uni4F73" unicode="&#x4f73;" d="M389 339 q-19 0 -38.5 9.5 q-19.5 9.5 -32.5 51.5 q-1 3 -1 8 q0 10 10 10 q4 0 16 -4 q12 -4 36 -4 l193 9 l0 113 l-110 -7 q-39 0 -49 10.5 q-10 10.5 -19 28.5 q-9 18 -9 25 q0 12 10 12 q4 0 15.5 -4 q11.5 -4 37.5 -4 l125 8 l0 125 q0 24 -8 38 q-8 14 -8 20 q0 13 15 13 q10 0 33.5 -8 q23.5 -8 32 -13.5 q8.5 -5.5 8.5 -19.5 l0 -152 q113 8 124 12.5 q11 4.5 17 4.5 q7 0 21 -8.5 q14 -8.5 25.5 -21.5 q11.5 -13 11.5 -23 q0 -19 -31 -21 l-169 -11 l0 -114 l164 8 q28 2 39 6.5 q11 4.5 18 4.5 q8 0 22 -10 q37 -27 37 -46 q0 -18 -32 -20 l-504 -26 ZM233 -89 q-2 0 -16 4 q-14 4 -28.5 15 q-14.5 11 -14.5 26 q0 12 3.5 27.5 q3.5 15.5 8.5 432.5 q-112 -135 -146 -135 q-12 0 -12 14 q0 10 14 29 q103 129 181 271 q70 126 70 158 q0 12 -2 20 q0 21 18 21 q12 0 29 -8 q43 -19 43 -41 q0 -3 -14 -38 q-41 -98 -110 -198 l0 -571 q0 -27 -24 -27 ZM370 -52 q-93 0 -93 70 q0 11 11 11 q30 -10 55 -10 l229 6 l1 129 l-135 -6 q-26 0 -38 12 q-28 28 -28 53 q0 11 9 11 q4 0 15 -3.5 q11 -3.5 37 -3.5 l140 7 l0 56 q0 21 -8 33.5 q-8 12.5 -8 18.5 q0 13 14 13 q9 0 25 -3 q50 -8 50 -33 l0 -82 q127 8 135 11.5 q8 3.5 15 3.5 q7 0 21 -9 q39 -26 39 -47 q0 -19 -31 -21 l-179 -8 l-1 -131 q232 7 242.5 10.5 q10.5 3.5 17.5 3.5 q7 0 22 -11 q37 -27 37 -45 q0 -19 -32 -21 l-562 -15 Z" /><glyph glyph-name="uni4F7F" unicode="&#x4f7f;" d="M925 -87 q-8 0 -17 3 q-190 65 -352 170 q-76 -107 -242 -163 q-20 -6 -32 -6 q-18 0 -18 12 q0 16 33 31 q147 77 201 165 q-35 27 -57.5 39 q-22.5 12 -45.5 12 q-24 0 -48 -2 q-19 0 -27 7 q-8 7 -9 27 q0 24 9 28.5 q9 4.5 58 6.5 q31 0 66 -10 q35 -10 83 -46 q21 50 26 96 l-90 -5 l0 -1 q0 -28 -23 -28 q-20 0 -37.5 11.5 q-17.5 11.5 -17.5 28.5 l2 19 q0 15 -17 141 q-5 28 -13.5 43.5 q-8.5 15.5 -8.5 22.5 q0 14 20 14 q14 0 62 -15 l139 8 l0 72 l-166 -10 q-46 0 -60 58 q0 14 15 14 q6 0 17.5 -3 q11.5 -3 28.5 -3 l164 9 l-3 88 q0 19 -7.5 33 q-7.5 14 -7.5 21 q0 10 14 10 q9 0 25 -3 q51 -7 51 -39 l1 -107 q164 9 174 13 q10 4 19 4 q9 0 22 -10.5 q13 -10.5 22 -22.5 q9 -12 9 -18 q0 -17 -32 -19 l-213 -12 l0 -72 l162 9 q28 0 44 -13 q16 -13 16 -24 q0 -11 -3.5 -15.5 q-3.5 -4.5 -28.5 -131.5 q24 -27 24 -38 q0 -14 -12 -16.5 q-12 -2.5 -217 -10.5 q-14 -87 -38 -140 q164 -104 373 -162 q19 -7 19 -16 q0 -4 -8 -17 q-22 -37 -48 -37 ZM233 -88 q-7 0 -22 7 q-35 17 -35 42 q0 6 3 21.5 q3 15.5 6 445.5 q-52 -75 -107 -128 q-27 -25 -37 -25 q-15 0 -15 15 q0 11 14 30 q104 135 173 285 q28 60 42 101.5 q14 41.5 14 49.5 q0 13 -3 25 q0 15 18 15 q12 0 28 -6 q44 -17 44 -39 q0 -4 -10 -35 q-30 -83 -91 -186 l1 -593 q0 -25 -23 -25 ZM635 349 l126 6 l18 117 l-138 -9 q-2 -74 -6 -114 ZM455 341 l107 5 q5 53 7 114 l-128 -8 l14 -111 Z" /><glyph glyph-name="uni4F8B" unicode="&#x4f8b;" d="M838 -105 q-26 0 -124 80 q-54 48 -54 68 q0 12 15 12 q11 0 53.5 -25 q42.5 -25 93.5 -42 l2 762 q0 20 -17 43 q-3 4 -3 10 q0 10 15 10 q9 0 28 -3 q52 -7 52 -37 l-2 -773 l1 -36 q0 -30 -13.5 -45 q-13.5 -15 -27 -19.5 q-13.5 -4.5 -19.5 -4.5 ZM209 -92 q-14 0 -34.5 15 q-20.5 15 -20.5 41 q4 39 11 453 q-54 -96 -101 -137 q-20 -16 -27 -16 q-11 0 -11 14 q0 10 35.5 71 q35.5 61 82.5 166 q86 194 86 280 q0 17 15 17 q11 0 27 -9 q42 -20 42 -45 q0 -6 -10 -32.5 q-10 -26.5 -30 -81.5 q-20 -55 -42 -99 l-1 -608 q0 -29 -22 -29 ZM282 -52 q-11 0 -11 14 q0 9 30 40.5 q30 31.5 72 87.5 q42 56 73 115 q-44 61 -62 78.5 q-18 17.5 -18 28.5 q0 9 13 23 q13 14 24 14 q18 0 74 -75 q31 75 53 167 l-104 -7 q-48 -98 -101 -161 q-25 -30 -37 -30 q-15 0 -15 14 q0 9 19.5 43 q19.5 34 44.5 94 q57 132 80 235 q-53 -3 -66 -3 q-30 0 -45.5 21.5 q-15.5 21.5 -15.5 32.5 q0 15 12 15 q25 -5 46 -5 q14 0 109 7 q120 9 132.5 13.5 q12.5 4.5 17.5 4.5 q6 0 19 -8 q13 -8 24.5 -19 q11.5 -11 11.5 -24 q0 -15 -23 -18 l-141 -11 q-9 -30 -20 -70.5 q-11 -40.5 -22 -63.5 l112 8 q17 0 34 -11.5 q17 -11.5 17 -24.5 q0 -12 -4.5 -20.5 q-4.5 -8.5 -5.5 -12.5 q-51 -212 -150 -342 q-76 -99 -145 -135 q-26 -15 -32 -15 ZM715 126 q-4 0 -17.5 5.5 q-13.5 5.5 -26.5 16 q-13 10.5 -13 22.5 q0 10 3 23.5 q3 13.5 5 371.5 q0 18 -14 43 l-2 7 q0 12 13 12 q72 0 72 -39 l3 -428 q0 -34 -23 -34 Z" /><glyph glyph-name="uni4F9B" unicode="&#x4f9b;" d="M357 221 q-82 0 -82 55 q0 18 11 18 q5 0 13 -3 q8 -3 28 -3 l141 6 l-7 186 l-76 -4 q-48 0 -59 44 l-4 17 q0 13 11 13 q5 0 16.5 -3 q11.5 -3 30.5 -3 l79 4 l-6 157 q-2 26 -14 45 q-4 8 -4 11 q0 12 15 12 q10 0 27 -3 q49 -9 51 -45 l6 -173 l155 9 l6 168 q0 25 -7 37.5 q-7 12.5 -7 19.5 q0 11 19 11 q13 0 34.5 -9 q21.5 -9 30 -17.5 q8.5 -8.5 8.5 -22.5 l-8 -184 q69 5 77.5 8 q8.5 3 15.5 3 q8 0 21 -9 q33 -22 33 -41 q0 -19 -31 -21 l-119 -7 l-9 -191 q128 6 136.5 9 q8.5 3 15.5 3 q6 0 20 -7 q35 -17 35 -43 q0 -20 -30 -22 l-573 -25 ZM223 -92 q-23 0 -39 16 q-16 16 -16 29 q0 11 3 26.5 q3 15.5 6 440.5 q-14 -21 -48 -61 q-69 -81 -91 -81 q-12 0 -12 15 q0 11 14 30 q108 147 173 289 q52 117 52 145 q0 7 -3 22 q0 17 17 17 q11 0 27 -6 q44 -19 44 -40 q0 -18 -42 -103 q-42 -85 -60 -117 l1 -597 q0 -25 -26 -25 ZM542 297 l137 6 l7 190 l-150 -9 l6 -187 ZM319 -80 q-14 0 -14 15 q0 10 35 45 q71 74 123 166 q10 17 10 41 q0 24 17 24 q21 0 54 -33 q14 -14 14 -23 q0 -8 -3 -14 q-58 -92 -139 -160 q-71 -61 -97 -61 ZM857 -72 q-11 0 -24 20 q-67 103 -150 193 q-11 14 -11 26 q0 12 14.5 24 q14.5 12 27.5 12 q23 0 140 -141 q58 -69 58 -87 q0 -11 -10.5 -22.5 q-10.5 -11.5 -22.5 -18 q-12 -6.5 -22 -6.5 Z" /><glyph glyph-name="uni4F9D" unicode="&#x4f9d;" d="M217 -92 q-56 9 -56 42 l6 73 l4 411 q-100 -132 -124 -145 q-9 -4 -15 -4 q-12 0 -12 16 q0 12 13 29 q144 199 205 372 q15 40 15 49 q0 15 -3 30 q0 17 17 17 q12 0 28 -6 q44 -20 44 -46 q0 -23 -63 -147 q-17 -34 -33 -63 l0 -601 q0 -27 -26 -27 ZM420 -76 q-21 0 -36 12 q-15 12 -25.5 26 q-10.5 14 -10.5 23 q0 10 28 14 q28 4 82 20 l3 277 q-65 -76 -135 -117 q-38 -24 -48 -24 q-14 0 -14 11 q0 13 22 33 q163 157 245 335 l-147 -9 q-35 0 -46 11 q-11 11 -18.5 28 q-7.5 17 -7.5 24 q0 11 12 11 q6 0 18.5 -3 q12.5 -3 29.5 -3 l201 12 l-3 115 q0 18 -8 32.5 q-8 14.5 -8 21.5 q0 14 19 14 q13 0 37 -9 q24 -9 31 -16.5 q7 -7.5 7 -20.5 l-1 -133 l162 10 q28 2 41 7.5 q13 5.5 21 5.5 q9 0 23 -9 q37 -23 37 -45 q0 -20 -31 -22 l-281 -17 q-9 -21 -14 -29 q40 -105 80 -179 q101 81 113 123 q5 24 20 24 q8 0 21 -12 q31 -26 31 -49 q0 -24 -102 -109 q-26 -22 -48 -38 q109 -176 263 -266 q16 -8 16 -17 q0 -8 -23 -28.5 q-23 -20.5 -34 -20.5 q-11 0 -20 6 q-240 178 -361 489 q-2 -3 -10.5 -15.5 q-8.5 -12.5 -15.5 -24.5 l-4 -346 q3 2 13 5 q13 6 34.5 15.5 q21.5 9.5 58 25.5 q36.5 16 39.5 19 q17 6 25 6 q12 0 12 -13 q0 -17 -60 -58 q-60 -41 -137 -82 q-77 -41 -96 -41 Z" /><glyph glyph-name="uni4FA7" unicode="&#x4fa7;" d="M284 -86 q-10 -6 -19.5 -6 q-9.5 0 -9.5 13.5 q0 13.5 14 25.5 q101 84 145 193 q23 60 34.5 142 q11.5 82 11.5 244 q0 15 -7 27.5 q-7 12.5 -7 17.5 q0 15 14 15 q14 0 34.5 -8 q20.5 -8 27.5 -15 q7 -7 7 -21 q-3 -157 -12 -244 q-9 -87 -34 -157.5 q-25 -70.5 -72.5 -126 q-47.5 -55.5 -126.5 -100.5 ZM183 600 q26 61 40.5 104 q14.5 43 14.5 53 l0 13 q0 1 -1.5 14.5 q-1.5 13.5 11.5 13.5 q13 0 29 -6 q43 -18 43 -41 q0 -5 -20.5 -59 q-20.5 -54 -66.5 -145 l-1 -620 q0 -28 -21 -28 q-2 0 -16 4 q-40 14 -40 44 q0 8 3 21.5 q3 13.5 3 43.5 l5 418 q-43 -72 -79 -112 q-36 -40 -48.5 -40 q-12.5 0 -12.5 13 q0 13 12 32 q82 134 145 277 ZM711 574 q0 23 -12 47 q-2 4 -2 11 q0 7 13.5 7 q13.5 0 36 -8.5 q22.5 -8.5 28 -17 q5.5 -8.5 5.5 -23.5 l2 -432 q0 -33 -21.5 -33 q-21.5 0 -38 13.5 q-16.5 13.5 -16.5 24 q0 10.5 2.5 28.5 q2.5 18 2.5 56 l0 327 ZM925 -9 l2 -35 q0 -29 -17 -44.5 q-17 -15.5 -31.5 -15.5 q-14.5 0 -35.5 12.5 q-21 12.5 -45 29.5 q-24 17 -45.5 36.5 q-21.5 19.5 -36.5 35.5 q-15 16 -15 25.5 q0 9.5 14 9.5 q14 0 55.5 -21.5 q41.5 -21.5 81.5 -35.5 l2 754 q0 22 -15 44 q-5 7 -5 16 q0 9 16 9 q16 0 42 -10 q26 -10 30.5 -20 q4.5 -10 4.5 -25 l-2 -765 ZM646.5 71.5 q17.5 -24.5 29.5 -44 q12 -19.5 12 -34 q0 -14.5 -19.5 -24.5 q-19.5 -10 -27 -10 q-7.5 0 -12 5 q-4.5 5 -31.5 51.5 q-27 46.5 -52.5 80.5 q-25.5 34 -25.5 46.5 q0 12.5 15 21.5 q15 9 25 9 q10 0 21.5 -15 q11.5 -15 29.5 -38.5 q18 -23.5 35.5 -48 ZM337 200 q5 38 5 54 l0 24 l-7 368 q0 32 -8 47 q-8 15 -8 26 q0 11 13.5 11 q13.5 0 67.5 -18 l199 10 l11 1 q13 0 28.5 -10 q15.5 -10 15.5 -31 l-2 -18 l-11 -464 l0 -6 q-1 -25 -20 -25 q-23 4 -37.5 15.5 q-14.5 11.5 -13.5 27.5 l5 31 l7 414 l-182 -9 l1 -92 l4 -149 l0 -51 l1 -78 l1 -32 l1 -53 l0 -6 q0 -26 -18 -26 q-22 0 -37.5 12 q-15.5 12 -15.5 27 Z" /><glyph glyph-name="uni4FAE" unicode="&#x4fae;" d="M607 484 q62 -58 75.5 -75 q13.5 -17 13.5 -27 q0 -10 -14 -25 q-2 -2 -5 -4 l100 4 l11 137 l-181 -10 ZM571 482 l-87 -5 l-17 -134 l169 8 q-1 2 -3 4 q-27 38 -73 85 q-8 8 -8 17 q0 9 14 21 q3 2 5 4 ZM585 286 q17 -11 51 -46 q49 -52 49 -73 q0 -13 -15 -25 q-3 -1 -5 -3 l92 4 q5 40 15 152 l-187 -9 ZM558 285 l-101 -5 q-15 -96 -27 -150 l198 8 q-5 5 -11 13 q-34 48 -74 89 q-8 8 -8 16 q0 9 15 22 q4 4 8 7 ZM217 -104 q-20 0 -37 13.5 q-17 13.5 -17 35.5 q0 6 3 21.5 q3 15.5 6 456.5 q-49 -66 -97 -109 q-25 -23 -34 -23 q-14 0 -14 14 q0 10 14 30 q134 188 193 347 q23 61 23 72 q0 16 -3 28 q0 16 18 16 q5 0 22 -5 q48 -16 48 -40 q0 -6 -24 -71.5 q-24 -65.5 -79 -159.5 l1 -601 q0 -25 -23 -25 ZM726 -104 q-29 0 -122 57 q-55 34 -55 51 q0 12 16 12 q11 0 62.5 -16 q51.5 -16 86.5 -24 q16 0 33 104 q-305 -13 -352 -16 q-6 0 -16 3 q-29 10 -29 30 q0 7 11.5 54.5 q11.5 47.5 24.5 125.5 l-54 -3 q-26 0 -35 7.5 q-9 7.5 -20 25 q-11 17.5 -11 25.5 q0 12 11 12 q5 0 16.5 -3.5 q11.5 -3.5 33.5 -3.5 l69 3 q11 77 15 138 q0 35 -3 46 q-3 8 -4 14 l-1 -1 q-71 -82 -95 -82 q-14 0 -14 14 q0 10 23 41 q50 63 96 151.5 q46 88.5 46 124.5 q0 26 15 26 q16 0 37.5 -16.5 q21.5 -16.5 27 -24 q5.5 -7.5 5.5 -17.5 q0 -10 -41 -76 l288 19 q26 2 39.5 7 q13.5 5 27.5 5 q14 0 28 -10 q14 -10 23 -21.5 q9 -11.5 9 -19.5 q0 -21 -37 -23 l-422 -25 q-16 -24 -39 -52 q3 0 6 0 q16 0 57 -19 l324 18 q32 0 45 -11.5 q13 -11.5 13 -22.5 q0 -9 -1.5 -14 q-1.5 -5 -4 -37.5 q-2.5 -32.5 -8.5 -111.5 q53 3 68 8 q10 3 17 3 q24 0 40 -18 q16 -18 16 -27 q0 -20 -32 -22 l-116 -6 q-10 -111 -15 -153 q37 3 50 8 q13 5 19 5 q6 0 20 -6.5 q14 -6.5 26.5 -17.5 q12.5 -11 12.5 -25 q0 -21 -30 -23 l-107 -4 l-9 -59 q-10 -61 -32.5 -94 q-22.5 -33 -52.5 -33 Z" /><glyph glyph-name="uni4FB5" unicode="&#x4fb5;" d="M251 -75 q0 -25 -23 -25 q-23 0 -39 14 q-16 14 -16 26 q0 15 3 31.5 q3 16.5 6 456.5 q-58 -77 -114 -125 q-21 -17 -30 -17 q-14 0 -14 15 q0 10 14 29 q98 129 171 280 q60 124 60 156 l-4 26 q0 15 18 15 q12 0 28 -7 q16 -7 29 -18.5 q13 -11.5 13 -26.5 q0 -13 -35.5 -95.5 q-35.5 -82.5 -66.5 -131.5 l0 -603 ZM444 469 q-26 0 -35 6 q-31 26 -31 54 q0 11 10 11 q4 0 15 -3.5 q11 -3.5 31 -3.5 l308 17 l4 47 l-254 -16 q-38 0 -51 14 q-13 14 -22 42 q0 12 11 12 q30 -5 48 -5 q15 0 276 16 l4 49 l-326 -21 q-43 0 -60 60 q0 12 11 12 q6 0 16 -3 q10 -3 48 -3 l346 23 q16 0 33 -13 q17 -13 17 -26 q0 -11 -4 -20 q-4 -9 -26 -167 q28 -31 28 -42 q0 -14 -11 -16 q-11 -2 -195 -13 q-179 -11 -191 -11 ZM320 239 q-10 0 -27.5 11 q-17.5 11 -17.5 21 q0 8 20 47 q20 39 43 131 q6 17 17 17 q8 0 28 -5 q20 -5 20 -22 q0 -5 -3 -18 l489 26 q33 0 51.5 -13 q18.5 -13 18.5 -27 q0 -14 -8 -21 q-8 -7 -11 -12 q-80 -115 -102 -115 q-17 0 -17 14 q0 10 12.5 31.5 q12.5 21.5 20 42.5 q7.5 21 12.5 32 l-484 -23 q-29 -94 -44 -108 q-7 -9 -18 -9 ZM900 -86 q-5 0 -46 13 q-120 40 -241 117 q-125 -87 -253 -116 q-46 -10 -62 -10 q-22 0 -22 14 q0 16 37 30 q142 51 239 123 q-55 37 -90 70.5 q-35 33.5 -35 44.5 q0 10 14 22 q14 12 24 12 q9 0 17 -8 q64 -55 125 -97 q57 51 102 124 q-251 -17 -264 -17 q-42 0 -61 43 q-6 15 -6 21 q0 11 14 11 q30 -6 55 -6 q14 0 298 17 q41 0 56 -16.5 q15 -16.5 15 -28.5 q0 -14 -10.5 -21.5 q-10.5 -7.5 -14.5 -14.5 q-52 -88 -122 -152 q120 -72 274 -108 q18 -5 18 -16 q0 -4 -10 -17 q-29 -34 -51 -34 Z" /><glyph glyph-name="uni4FBF" unicode="&#x4fbf;" d="M225 -94 q-15 0 -36 12.5 q-21 12.5 -21 32.5 q0 7 3 22 q3 15 6 451 q-61 -85 -111 -128 q-20 -16 -29 -16 q-14 0 -14 15 q0 11 14 30 q98 128 162 271 q28 63 43 107 q15 44 15 53 q0 14 -3 26 q0 16 18 16 q5 0 22 -5 q48 -16 48 -40 q0 -15 -34 -92.5 q-34 -77.5 -61 -125.5 l1 -603 q0 -26 -23 -26 ZM937 -92 q-7 0 -61.5 20 q-54.5 20 -145 61.5 q-90.5 41.5 -170.5 88.5 q-90 -118 -248 -158 l-31 -8 q-21 0 -21 14 q0 14 27 26 q156 73 216 161 q-49 33 -76 40.5 q-27 7.5 -86 7.5 q-34 0 -34 33 q0 19 8.5 25 q8.5 6 35.5 6 q44 0 85 -7 q41 -7 100 -46 q19 38 27 97 l-106 -5 q0 -29 -20 -29 q-16 0 -36 12.5 q-20 12.5 -20 28.5 l4 36 l-19 213 q-3 28 -10.5 43 q-7.5 15 -7.5 21 q0 10 22 10 q16 0 63 -14 l149 8 q0 56 -1 69 l-158 -9 q-23 0 -37 3.5 q-14 3.5 -26.5 23.5 q-12.5 20 -12.5 30 q0 13 12 13 q6 0 16 -2.5 q10 -2.5 29 -2.5 q383 23 396 26.5 q13 3.5 23 3.5 q10 0 32.5 -16.5 q22.5 -16.5 22.5 -35.5 q0 -16 -31 -18 l-193 -12 l0 -69 l166 9 q27 0 44 -11.5 q17 -11.5 17 -23.5 q0 -11 -3.5 -16.5 q-3.5 -5.5 -27.5 -214.5 q25 -28 25 -39 q0 -14 -12.5 -16 q-12.5 -2 -225.5 -13 q-16 -95 -42 -137 q183 -108 380 -160 q18 -4 18 -16 q0 -10 -10 -23 q-26 -28 -46 -28 ZM652 469 l142 7 l6 67 l-146 -8 q0 -34 -2 -66 ZM442 459 l138 7 q2 34 2 66 l-146 -8 l6 -65 ZM645 334 l139 7 l6 74 l-140 -7 q-2 -42 -5 -74 ZM452 325 l120 6 q5 51 6 74 l-132 -6 l6 -74 Z" /><glyph glyph-name="uni4FD7" unicode="&#x4fd7;" d="M219 -93 q-22 0 -38.5 16.5 q-16.5 16.5 -16.5 28.5 q0 10 3 25 q3 15 8 459 q-26 -38 -73.5 -91 q-47.5 -53 -67.5 -53 q-12 0 -12 15 q0 11 14 30 q94 118 158 260 q64 142 64 185 q0 9 -2 17 q0 16 17 16 q11 0 27.5 -7 q16.5 -7 30.5 -18 q14 -11 14 -21 q0 -8 -24.5 -69.5 q-24.5 -61.5 -74.5 -151.5 l-1 -616 q0 -25 -26 -25 ZM860 511 q-15 0 -26 16 q-79 107 -170 201 q-9 12 -9 21 q0 8 12 21.5 q12 13.5 25 13.5 q11 0 24 -12 q188 -188 188 -214 q0 -13 -15 -30 q-15 -17 -29 -17 ZM328 471 q-13 0 -13 15 q0 10 16 29 q88 102 129 191 q16 35 16 48 q0 25 15 25 q10 0 26 -8 q43 -22 43 -44 q0 -5 -2 -9 q-60 -111 -140 -183 q-68 -64 -90 -64 ZM504 -94 l-13 3 q-47 10 -47 42 q4 32 4 45 l-12 192 q-2 34 -10 50 q-4 11 -6 18 q-54 -49 -111 -83 q-34 -21 -43 -21 q-14 0 -14 14 q0 10 19 27 q191 172 301 383 q7 13 7 33 l-2 20 q0 17 17 17 q12 0 30.5 -10.5 q18.5 -10.5 33 -23.5 q14.5 -13 14.5 -21 q0 -8 -25 -48 q142 -171 330 -301 q14 -10 14 -18 q0 -9 -13 -19.5 q-13 -10.5 -26.5 -18 q-13.5 -7.5 -21.5 -7.5 q-19 0 -122 99 q-111 103 -197 205 q-80 -123 -170 -208 q17 -1 65 -18 l264 11 q31 0 49 -29 q6 -12 6 -17 q0 -7 -3.5 -12.5 q-3.5 -5.5 -27.5 -179.5 q23 -28 23 -45 q0 -18 -32 -18 l-260 -5 l2 -25 q0 -31 -23 -31 ZM521 30 l200 5 l15 162 l-226 -9 l11 -158 Z" /><glyph glyph-name="uni4FDD" unicode="&#x4fdd;" d="M229 -92 l-12 3 q-41 10 -41 47 q0 6 3 21 q3 15 7 458 q-44 -62 -89 -105.5 q-45 -43.5 -55 -43.5 q-15 0 -15 15 q0 11 14 30 q102 140 168 276 q28 57 42 96.5 q14 39.5 14 49.5 q0 9 -3 24 q0 17 17 17 q11 0 27 -6 q44 -19 44 -40 q0 -18 -35 -92.5 q-35 -74.5 -62 -120.5 l1 -604 q0 -25 -25 -25 ZM489 525 l231 14 l19 146 l-264 -17 l14 -143 ZM626 -109 q-22 0 -38.5 13.5 q-16.5 13.5 -16.5 25.5 q0 10 3.5 25 q3.5 15 3.5 226 q0 45 1 60 q-41 -85 -188 -188 q-80 -55 -108 -55 q-14 0 -14 15 q0 11 26 31 q144 112 232 241 l-121 -6 q-20 -2 -35 -2 q-19 0 -32 15 q-13 15 -19 30.5 q-6 15.5 -6 17.5 q0 12 12 12 q6 0 16 -3.5 q10 -3.5 30 -3.5 q12 0 206 10 l0 41 q0 28 -7.5 41 q-7.5 13 -7.5 21 q0 5 3 8 q-33 -2 -70 -4 l1 -17 q0 -27 -28 -27 q-12 0 -21 5 q-30 11 -30 43 q2 16 2 29 q0 9 -17 173 q-3 37 -12.5 51.5 q-9.5 14.5 -9.5 21.5 q0 11 17 11 q11 0 64 -19 l297 19 q5 1 15 1 q26 0 38 -14.5 q12 -14.5 12 -24.5 q0 -11 -3 -16 q-3 -5 -30 -162 q24 -24 24 -35 q0 -14 -11 -18 q-9 -3 -200 -15 q45 -6 45 -37 l0 -73 l165 8 q25 2 37 6 q12 4 19 4 q7 0 20 -7.5 q13 -7.5 24.5 -20 q11.5 -12.5 11.5 -25.5 q0 -16 -21 -19 l-214 -10 q121 -127 272 -213 q19 -12 19 -21 q0 -8 -10 -20 q-25 -29 -41 -29 q-16 0 -60 31 q-109 78 -222 205 l1 -323 q0 -33 -24 -33 Z" /><glyph glyph-name="uni4FE1" unicode="&#x4fe1;" d="M242 -100 q-2 0 -16 4 q-14 4 -28.5 15 q-14.5 11 -14.5 26 q0 12 3 24 q3 12 7 463 q-26 -38 -68.5 -83 q-42.5 -45 -61 -60.5 q-18.5 -15.5 -27.5 -15.5 q-14 0 -14 15 q0 10 14 29 q98 127 195 319 q52 102 52 139 q0 7 -3 19 q0 17 21 17 q17 0 42.5 -17.5 q25.5 -17.5 25.5 -28.5 q0 -17 -37.5 -96.5 q-37.5 -79.5 -66.5 -129.5 l0 -613 q0 -26 -23 -26 ZM715 645 q-10 0 -54.5 21.5 q-44.5 21.5 -137.5 53.5 q-23 9 -23 26 q0 7 3 17 q9 24 28 24 q15 0 83 -24 q68 -24 99.5 -38 q31.5 -14 31.5 -30 q0 -13 -8.5 -31.5 q-8.5 -18.5 -21.5 -18.5 ZM381 534 q-17 0 -35 9.5 q-18 9.5 -32 48.5 q-1 3 -1 9 q0 10 11 10 q5 0 19 -3.5 q14 -3.5 42 -3.5 q481 29 491.5 33.5 q10.5 4.5 18.5 4.5 q9 0 24 -11 q34 -27 34 -45 q0 -18 -29 -20 l-511 -30 q-17 -2 -32 -2 ZM467 407 q-14 0 -32 8 q-18 8 -33 47 q-1 3 -1 9 q0 10 11 10 q5 0 19 -3.5 q14 -3.5 42 -3.5 q293 16 306 20 q13 4 21 4 q9 0 23 -9 q34 -24 34 -44 q0 -17 -27 -20 l-330 -17 l-33 -1 ZM467 281 q-14 0 -32 8 q-18 8 -33 47 q-1 3 -1 9 q0 10 11 10 q5 0 19 -3.5 q14 -3.5 42 -3.5 q293 16 306 20 q13 4 21 4 q8 0 21 -9 q37 -23 37 -44 q0 -16 -27 -20 l-331 -17 l-33 -1 ZM496 -94 q-23 0 -40.5 14.5 q-17.5 14.5 -17.5 35.5 q3 36 3 46 l-15 151 q-3 27 -11 43.5 q-8 16.5 -8 19.5 q0 15 24 15 q18 0 63 -18 l299 12 q43 0 55 -29 q5 -10 5 -15 q0 -6 -2.5 -10.5 q-2.5 -4.5 -29.5 -148.5 q29 -29 29 -42 q0 -17 -14.5 -19.5 q-14.5 -2.5 -314.5 -10.5 l1 -14 q0 -30 -26 -30 ZM514 21 l232 5 l17 129 l-259 -10 l10 -124 Z" /><glyph glyph-name="uni4FEE" unicode="&#x4fee;" d="M405 308 q-23 0 -23 13 q0 13 25 25 q135 70 222 153 q-45 36 -85 82 q-100 -108 -133 -108 q-15 0 -15 12 q0 11 23 34 q49 47 106 135.5 q57 88.5 57 122.5 q0 9 -1 15 q0 17 15 17 q24 0 56 -27 q13 -11 13 -20 q0 -8 -20 -41 q-13 -23 -13 -26 l2 2 l146 9 q43 0 58 -15 q15 -15 15 -21 q0 -6 -15 -30 q-40 -67 -109 -136 q99 -65 242 -107 q14 -5 14 -18 q0 -4 -15 -25 q-15 -21 -34 -21 q-18 0 -101 37.5 q-83 37.5 -155 88.5 q-76 -65 -166.5 -108 q-90.5 -43 -108.5 -43 ZM674 543 q49 51 79 102 l-164 -10 l-7 -8 q46 -50 92 -84 ZM206 -97 q-23 0 -37.5 15.5 q-14.5 15.5 -14.5 27.5 q0 11 3 27 q3 16 7 456 q-10 -15 -44 -59 q-34 -44 -55 -65.5 q-21 -21.5 -33 -21.5 q-16 0 -16 15 q0 11 12 29 q141 212 198 362 q24 60 24 74 q0 14 -2 22 q0 16 18 16 l10 -3 q28 -5 44.5 -17.5 q16.5 -12.5 16.5 -23.5 q0 -37 -105 -225 l0 -604 q0 -25 -26 -25 ZM357 65 l-13 4 q-43 14 -43 39 q8 40 8 72 l-1 324 q0 19 -9 33.5 q-9 14.5 -9 19.5 q0 12 16 12 q10 0 34.5 -7.5 q24.5 -7.5 30.5 -16 q6 -8.5 6 -24.5 l3 -431 q0 -25 -23 -25 ZM452 199 q-19 0 -19 13 q0 16 27 28 q71 33 131 73 q89 57 100 94 q7 15 18 15 q8 0 21 -10 q29 -26 29 -52 q0 -22 -133 -99 q-62 -36 -146 -58 q-14 -4 -28 -4 ZM475 69 q-28 0 -28 14 q0 17 34 31 q240 113 263 178 q6 17 17 17 q22 0 42 -40 q8 -16 8 -24 q0 -10 -8 -15 q-103 -82 -204 -121.5 q-101 -39.5 -124 -39.5 ZM406 -93 q-21 0 -21 15 q0 15 33 27 q238 82 393 215 q13 10 17.5 27.5 q4.5 17.5 17.5 17.5 q10 0 22 -11.5 q12 -11.5 20.5 -26.5 q8.5 -15 8.5 -24 q0 -9 -7 -16 q-143 -115 -285 -171 q-78 -31 -174 -51 q-10 -2 -25 -2 Z" /><glyph glyph-name="uni5012" unicode="&#x5012;" d="M879 -97.5 q-17 -13.5 -30 -13.5 q-13 0 -36 13 q-48 27 -105.5 73 q-57.5 46 -57.5 63 q0 13 14 13 q9 0 65 -26.5 q56 -26.5 93 -40.5 l2 755 q0 22 -14 42 q-5 8 -5 15 q0 14 18 14 q13 0 37.5 -9 q24.5 -9 30.5 -17 q6 -8 6 -21 l-2 -787 l1 -30 q0 -30 -17 -43.5 ZM198 -94 q-22 0 -37.5 15.5 q-15.5 15.5 -15.5 34.5 q0 6 3 17 q3 11 9 446 q-31 -58 -81 -128 q-20 -26 -32 -26 q-12 0 -12 16 q0 10 41.5 88.5 q41.5 78.5 98.5 221.5 q57 143 57 175 l-1 10 q0 21 14 21 q9 0 24 -6 q42 -18 42 -39 q0 -13 -39.5 -102 q-39.5 -89 -45.5 -101 l-2 -617 q0 -26 -23 -26 ZM600 378 q-17 0 -28 29.5 q-11 29.5 -15 36.5 q-99 -24 -162.5 -34.5 q-63.5 -10.5 -70.5 -10.5 q-34 0 -51 48 l-1 6 q0 16 14 16 q19 -2 39 -2 q44 79 78 168 l-39 -2 q-37 0 -51 14.5 q-14 14.5 -20 41.5 q0 12 11 12 q40 -5 50 -5 q212 15 223.5 18 q11.5 3 20.5 3 q9 0 21 -9 q26 -21 26 -40 q0 -16 -29 -18 l-136 -9 q-38 -97 -76 -166 q54 7 126 23 q-12 21 -26.5 38 q-14.5 17 -14.5 30 q0 14 15 22 q15 8 25 8 q11 0 23 -17 q93 -139 93 -163 q0 -15 -15 -26.5 q-15 -11.5 -30 -11.5 ZM729 126 q-8 0 -24 7 q-29 15 -29 38 q0 9 3 22 q3 13 3 47 l-1 328 q0 21 -8.5 34.5 q-8.5 13.5 -8.5 21.5 q0 12 16 12 q11 0 34.5 -8.5 q23.5 -8.5 28 -15.5 q4.5 -7 4.5 -20 l3 -436 q0 -30 -21 -30 ZM314 -17 q-13 0 -22 8 q-16 12 -25.5 32 q-9.5 20 -9.5 27 q0 12 18 12 q14 -2 25 -2 q10 0 51 7 q41 7 72 16 l1 141 l-78 -4 q-26 0 -40.5 21 q-14.5 21 -14.5 31 q0 13 11 13 l32 -4 l91 4 l0 65 q0 16 -7 28.5 q-7 12.5 -7 17.5 q0 14 16 14 q9 0 24 -2 q45 -8 45 -35 l-1 -86 q18 2 41 2 l43 9 q10 0 30.5 -15.5 q20.5 -15.5 20.5 -32.5 q0 -17 -30 -19 l-105 -5 l-2 -125 q59 15 95 26.5 q36 11.5 50 11.5 q19 0 19 -14 q0 -14 -30 -27 q-150 -68 -225.5 -91.5 q-75.5 -23.5 -87.5 -23.5 Z" /><glyph glyph-name="uni501F" unicode="&#x501f;" d="M344 388 q-21 0 -32 10 q-29 33 -29 54 q0 11 13 11 q28 -7 53 -7 l127 7 l-6 119 l-70 -4 q-25 0 -43 19 q-18 19 -18 44 q0 11 10 11 q5 0 18 -3.5 q13 -3.5 36 -3.5 q9 0 65 4 l-4 83 q-2 31 -8.5 40.5 q-6.5 9.5 -6.5 17.5 q0 12 18 12 q12 0 36.5 -7.5 q24.5 -7.5 29.5 -16 q5 -8.5 9 -125.5 l132 8 l4 84 q0 28 -6.5 40 q-6.5 12 -6.5 17 q0 13 15 13 q10 0 27 -5 q48 -13 48 -35 l-7 -110 q76 5 87.5 9.5 q11.5 4.5 19.5 4.5 q8 0 20 -9 q32 -22 32 -42 q0 -19 -27 -22 l-135 -8 l-8 -121 q151 9 159.5 13 q8.5 4 16.5 4 q8 0 22 -10 q31 -24 31 -42 q0 -22 -29 -24 l-593 -30 ZM236 -94 q-16 0 -37 13.5 q-21 13.5 -21 35.5 q0 7 3 19.5 q3 12.5 7 449.5 q-44 -66 -88.5 -111 q-44.5 -45 -57.5 -45 q-16 0 -16 13 q0 12 20.5 38.5 q20.5 26.5 52 78 q31.5 51.5 62.5 107.5 q31 56 56 108 q25 52 40.5 91.5 q15.5 39.5 15.5 51.5 q0 12 -3 24 q0 17 21 17 q17 0 42.5 -17.5 q25.5 -17.5 25.5 -29.5 q0 -11 -25.5 -68.5 q-25.5 -57.5 -74.5 -144.5 l0 -605 q0 -26 -23 -26 ZM549 467 l116 7 l6 120 l-127 -8 l5 -119 ZM478 -94 l-15 4 q-43 11 -43 47 q4 32 4 58 q0 11 -13 242 q-2 33 -9.5 49.5 q-7.5 16.5 -7.5 21.5 q0 13 18 13 q13 0 69 -23 l300 14 q20 0 38 -14.5 q18 -14.5 18 -27.5 q0 -12 -3.5 -18 q-3.5 -6 -25.5 -245 q29 -32 29 -43 q0 -14 -11 -18 q-11 -4 -325 -12 l1 -22 q0 -26 -24 -26 ZM490 174 l256 10 l6 77 l-266 -12 l4 -75 ZM498 24 l238 7 l7 87 l-250 -10 l5 -84 Z" /><glyph glyph-name="uni503C" unicode="&#x503c;" d="M365 -46 q-44 0 -56.5 12 q-12.5 12 -18.5 28.5 q-6 16.5 -6 21.5 q0 10 13 10 q28 -4 59 -4 l88 3 l-7 440 q-2 39 -9.5 52.5 q-7.5 13.5 -7.5 22.5 q0 12 21 12 q15 0 60 -15 l96 5 l5 61 l-145 -11 q-39 0 -53.5 9.5 q-14.5 9.5 -22.5 26 q-8 16.5 -8 22.5 q0 10 12 10 q6 0 17.5 -2.5 q11.5 -2.5 32.5 -2.5 q11 0 172 11 l7 75 q0 22 -7.5 35 q-7.5 13 -7.5 21 q0 11 13 11 q7 0 25 -2 q53 -9 53 -40 l-10 -96 l141 9 q12 1 29 6.5 q17 5.5 26 5.5 q9 0 21 -8 q31 -19 31 -39 q0 -18 -26 -22 l-229 -15 l-5 -62 l137 7 q18 0 33 -12.5 q15 -12.5 15 -28.5 q-4 -18 -15 -475 q96 3 106.5 6 q10.5 3 19.5 3 q9 0 20 -11 q25 -22 25 -39 q0 -19 -27 -22 l-617 -19 ZM262 -61 q0 -26 -24 -26 q-24 0 -41.5 16 q-17.5 16 -17.5 29 q0 11 3.5 27 q3.5 16 7.5 442 q-66 -85 -124 -132 q-23 -18 -33 -18 q-14 0 -14 15 q0 10 15 26 q107 126 184 275 q67 130 67 164 q0 11 -2 19 q0 21 18 21 q9 0 25 -7 q46 -19 46 -45 q0 -19 -45 -101.5 q-45 -82.5 -65 -114.5 l0 -590 ZM514 26 l255 8 l0 68 l-256 -6 l1 -70 ZM513 157 l257 7 l0 74 l-258 -10 l1 -71 ZM512 289 l260 9 l2 68 l-264 -11 l2 -66 ZM509 413 l266 12 l2 66 l-270 -13 l2 -65 Z" /><glyph glyph-name="uni503E" unicode="&#x503e;" d="M706 415 q0 19 -7 33 q-7 14 -7 24.5 q0 10.5 11.5 10.5 q11.5 0 23.5 -3 q51 -11 51 -38 q-2 -223 -24.5 -299 q-22.5 -76 -53 -113.5 q-30.5 -37.5 -67 -65.5 q-36.5 -28 -71 -46 q-34.5 -18 -58 -26 q-23.5 -8 -30.5 -8 q-7 0 -7 13.5 q0 13.5 27 32.5 q71 49 118.5 96.5 q47.5 47.5 63.5 107.5 q30 109 30 269 l0 12 ZM226 680 q22 61 22 76.5 q0 15.5 -2 24.5 q0 16 17 16 q7 0 23 -6 q46 -17 46 -39 q0 -6 -11 -37 q-25 -77 -82 -179 l0 -604 q0 -25 -24 -25 q-17 0 -36 13 q-19 13 -19 34 l0 5 q0 4 3 19 q3 15 3 40 l6 410 q-9 -15 -49.5 -64 q-40.5 -49 -56.5 -64.5 q-16 -15.5 -27 -15.5 q-11 0 -11 13.5 q0 13.5 12 31.5 q134 203 186 351 ZM742 694 q27 -19 27 -31.5 q0 -12.5 -44 -69.5 l132 9 q7 1 11 1 l7 0 q12 0 27.5 -12.5 q15.5 -12.5 15.5 -22.5 q0 -10 -3.5 -14.5 q-3.5 -4.5 -3.5 -7.5 l-13 -378 l0 -18 q0 -21 -27 -21 q-23 2 -37.5 18.5 q-14.5 16.5 -8.5 33.5 q1 8 2 15 q1 7 2 15 l8 328 l-199 -14 l12 -355 l1 -16 l0 -2 q0 -22 -23.5 -22 q-23.5 0 -36.5 14 q-13 14 -13 26 l3 39 l0 13 l-12 300 q-2 39 -8 52 q-6 13 -6 21 q0 8 15.5 8 q15.5 0 62.5 -17 l16 1 q36 55 40 68.5 q4 13.5 4 21.5 q0 8 0 9 l-101 -8 q-7 -1 -12 -1 l-9 0 q-23 0 -37 9 q-14 9 -25 39 q-1 3 -1 11 q0 8 13 8 q16 -4 35 -4 l295 20 q19 1 29.5 5.5 q10.5 4.5 18.5 4.5 q8 0 21 -9 q34 -24 34 -42 q0 -15 -23 -16 l-156 -12 q-35 7 -33 3 ZM967 -50.5 q0 -12.5 -14 -28.5 q-14 -16 -27.5 -16 q-13.5 0 -26.5 19 q-64 89 -122 148 q-13 13 -13 21.5 q0 8.5 12 22.5 q12 14 23.5 14 q11.5 0 36.5 -23 q25 -23 78 -84 q53 -61 53 -73.5 ZM415 165 q59 40 111 83 q47 34 47 8.5 q0 -25.5 -67 -91.5 q-67 -66 -112.5 -97.5 q-45.5 -31.5 -53.5 -32.5 q-8 -1 -18 -1 q-10 0 -26 12 q-16 12 -23 16 q-26 23 3.5 30 q29.5 7 58.5 23 l1 524 q0 19 -9 33.5 q-9 14.5 -9 19.5 q0 13 14.5 13 q14.5 0 33.5 -6.5 q19 -6.5 30.5 -15.5 q11.5 -9 11.5 -26 l-1 -174 l35 3 q21 1 34 6.5 q13 5.5 21.5 5.5 q8.5 0 21.5 -8 q13 -8 23 -20 q10 -12 10 -22 q0 -18 -31 -22 l-114 -9 l0 -64 l-1 -194 l9 6 Z" /><glyph glyph-name="uni5047" unicode="&#x5047;" d="M216 -93 q-22 0 -38 13 q-16 13 -16 36 q0 6 3 20.5 q3 14.5 10 470.5 q-54 -84 -111 -139 q-19 -18 -29 -18 q-12 0 -12 15 q0 11 13 30 q94 145 152 280.5 q58 135.5 58 163.5 q0 9 -3 24 q0 16 16 16 q10 0 26 -8 q44 -18 44 -37 q0 -17 -31.5 -94.5 q-31.5 -77.5 -55.5 -123.5 l-3 -624 q0 -25 -23 -25 ZM686 483 q-26 0 -38 13 q-12 13 -16 27 q-4 14 -4 17 q0 12 11 12 q6 0 16.5 -3 q10.5 -3 32.5 -3 l128 7 l12 130 l-141 -10 q-29 0 -36 6 q-7 6 -18 22 q-11 16 -11 28 q0 15 12 15 l46 -5 q9 0 176 11 q27 0 40 -10.5 q13 -10.5 13 -21.5 q0 -9 -3 -15 q-3 -6 -21 -153 q22 -29 22 -39 q0 -13 -11 -15 q-11 -2 -24 -3 l-186 -10 ZM380 -90 q-16 0 -34.5 12.5 q-18.5 12.5 -18.5 31.5 q0 5 3.5 20 q3.5 15 5.5 693 q0 29 -6.5 46.5 q-6.5 17.5 -6.5 22.5 q0 13 18 13 q12 0 60 -21 l152 9 q23 0 41 -11 q18 -11 18 -23 q0 -11 -3.5 -16.5 q-3.5 -5.5 -19.5 -148.5 q23 -30 23 -40 q0 -13 -12.5 -15 q-12.5 -2 -195.5 -10 l0 -94 l95 4 q26 3 34.5 5.5 q8.5 2.5 15.5 2.5 q7 0 20 -8 q32 -20 32 -41 q0 -17 -30 -19 l-167 -7 l0 -98 q130 6 144 10 q9 3 18 3 q9 0 20.5 -9.5 q11.5 -9.5 19.5 -20.5 q8 -11 8 -18 q0 -17 -28 -20 l-182 -8 l-1 -216 q0 -29 -23 -29 ZM405 535 l118 6 l10 131 l-128 -8 l0 -129 ZM985.5 -65 q-18.5 -17 -32.5 -17 q-14 0 -46 23 q-73 55 -148 142 q-83 -96 -184 -146 q-39 -19 -50 -19 q-16 0 -16 11 q0 12 28 34 q107 77 179 171 q-49 68 -83 147 q-10 20 -10 25 q0 17 17 23 q17 6 28 6 q13 0 21 -19 q42 -90 68 -124 q57 90 77 162 l-183 -11 q-19 0 -30.5 14.5 q-11.5 14.5 -16.5 29 q-5 14.5 -5 16.5 q0 13 11 13 q6 0 16.5 -3 q10.5 -3 30.5 -3 l208 13 q30 0 45 -13.5 q15 -13.5 15 -25.5 q0 -11 -3.5 -16 q-3.5 -5 -4.5 -8 q-37 -118 -116 -225 q90 -96 187 -157 q16 -8 16 -19 q0 -7 -18.5 -24 Z" /><glyph glyph-name="uni505A" unicode="&#x505a;" d="M214 -90 q-15 0 -34.5 11.5 q-19.5 11.5 -19.5 34.5 q0 9 3 24 q3 15 7 454 q-23 -36 -70.5 -92.5 q-47.5 -56.5 -65.5 -56.5 q-12 0 -12 14 q0 10 29 54 q72 112 135 248.5 q63 136.5 63 179.5 q0 9 -2 17 q0 15 16 15 q11 0 27 -8 q44 -18 44 -38 q0 -9 -31 -84 q-31 -75 -65 -139 l0 -609 q0 -25 -24 -25 ZM373 8 q-19 0 -36.5 14.5 q-17.5 14.5 -17.5 27.5 l4 46 l-10 203 q-2 29 -10 45 q-8 16 -8 23 q0 11 18 11 q13 0 62 -17 l37 2 l1 142 l-69 -4 q-85 0 -85 58 q0 11 11 11 q5 0 13 -3 q8 -3 32 -3 l99 5 l1 146 q0 14 -7.5 30 q-7.5 16 -7.5 21 q0 13 18 13 q12 0 33 -5 q38 -10 38 -36 l-3 -166 q43 2 60 6.5 q17 4.5 27 4.5 q11 0 25 -9 q14 -9 24 -20.5 q10 -11.5 10 -19.5 q0 -16 -27 -19 l-120 -7 l-3 -143 l64 4 q15 0 27 -11 q-1 4 -1 8 q0 9 10 31 q77 166 109 313 q12 55 12 63 q0 20 -2 25 q0 22 18 22 q26 0 49.5 -14.5 q23.5 -14.5 23.5 -25.5 q0 -40 -57 -180 l120 8 q21 2 34.5 6.5 q13.5 4.5 22.5 4.5 q9 0 23 -9 q34 -22 34 -41 q0 -14 -25 -16 q-25 -2 -51 -4 q-28 -199 -87 -330 q73 -138 180 -236 q14 -12 14 -21 q0 -10 -11 -15 q-35 -24 -48 -24 q-15 0 -35.5 22.5 q-20.5 22.5 -60.5 76.5 q-40 54 -78 124 q-58 -94 -136 -162 q-78 -68 -102 -68 q-11 0 -11 14 q0 9 36 48 q119 130 174 243 q-23 50 -38.5 113 q-15.5 63 -29.5 111 q-52 -94 -77 -94 q-2 0 -3 0 q13 -14 13 -23 q0 -10 -4 -15.5 q-4 -5.5 -21 -175.5 q25 -31 25 -41 q0 -14 -13.5 -16 q-13.5 -2 -187.5 -7 l3 -35 q0 -30 -22 -30 ZM764 307 q32 94 47 237 l-102 -7 l-4 -7 q17 -64 31.5 -126.5 q14.5 -62.5 27.5 -96.5 ZM389 136 l111 5 l11 163 l-132 -5 l10 -163 Z" /></font>
</defs>
</svg>
