<svg xmlns="http://www.w3.org/2000/svg" width="32" height="32" viewBox="0 0 24 24"><path d="M2 1h8a1 1 0 0 1 1 1v8a1 1 0 0 1-1 1H2a1 1 0 0 1-1-1V2a1 1 0 0 1 1-1zm1 2v6h6V3H3z"/><path fill-rule="evenodd" d="M5 5h2v2H5z"/><path d="M14 1h8a1 1 0 0 1 1 1v8a1 1 0 0 1-1 1h-8a1 1 0 0 1-1-1V2a1 1 0 0 1 1-1zm1 2v6h6V3h-6z"/><path fill-rule="evenodd" d="M17 5h2v2h-2z"/><path d="M2 13h8a1 1 0 0 1 1 1v8a1 1 0 0 1-1 1H2a1 1 0 0 1-1-1v-8a1 1 0 0 1 1-1zm1 2v6h6v-6H3z"/><path fill-rule="evenodd" d="M5 17h2v2H5z"/><path d="M23 19h-4v4h-5a1 1 0 0 1-1-1v-8v5h2v2h2v-6h-2v-2h-1h3v2h2v2h2v-4h1a1 1 0 0 1 1 1v5zm0 2v1a1 1 0 0 1-1 1h-1v-2h2z"/></svg>