<svg xmlns="http://www.w3.org/2000/svg" width="875.9" height="797.48" viewBox="0 0 875.9 797.48">
  <g id="图层_2" data-name="图层 2">
    <g id="图层_1-2" data-name="图层 1">
      <g>
        <path d="M836.83,708.73h0c-19.65-22.5-47.45-60.4-44.83-90.79,97.22-125.11,111.6-322.16,34.48-462.74a24,24,0,0,0-27.74-11.4C692.76,174.29,603.51,254.11,554,352c-9.92,20.11-19.79,41.17-43.64,45.58-28.23,5.21-77.78,44.83-97,73.53l.07.17c-8.42,8.13-2,23.79,9.92,23.37,2.41-.2,78-7.07,80.48-7.28C528.67,699.77,214.53,725.1,205.43,511c-1.64-84.67,63.15-99,40.4-132.37-21.56-30.34-58.76,9.57-80.37,19.78-54.46,41-84.75.06-85.53-61.28-4.66-37.44,2.85-68.17-16.38-97.55C51.72,223.17,26,225.45,18,244.08-100.92,639.75,395.76,968.61,714.24,699.39c30.91,15.46,75.42,32.26,110.08,32.08,12.38,2.44,21-13.68,12.49-22.71ZM774.11,397.8c-45.94,8.93-59.53-59.72-14.14-69.23C805.78,319.78,819.32,388.16,774.11,397.8Z"/>
        <path d="M95.13,182.74c53.66,55-6.34,184.12,46.61,182.42a20.8,20.8,0,0,0,16.67-11.46c29.93-36.34,60.36-53.3,110.13-60.13,21.18-2.42,39,26.18,76.36,15.35,46.47-13.47,35.93-69,12.82-81.42-31.29-23.88-100.41-22.34-129,0,68.32-62.8,195.94-75.18,222.83,34.26,15.81,57.58,74.29,61,94,4.11,23.89-125.52-130.86-225.32-243.82-185,27.59-14,59.2-18,86.55-31.84,17.9-11.44,21.52-36.91.13-47.69C297-12.09,200.23,81.1,169.08,161.67c-13.24-33.28-56.69-72.13-95.33-68.21-20.22,4.3-27.83,29.12-13.85,44.2C73.26,153.81,83.39,165.61,95.13,182.74Z"/>
        <path d="M457.82,48.2a2.61,2.61,0,0,0,.48-.05l0,0c67.46-7.76,76.29,39.75,117.55,33.23,38.59-7.57,35.62-58.66-1-67.33-37.12-11.56-89.29,1.76-119.19,29.57A2.81,2.81,0,0,0,457.82,48.2Z"/>
      </g>
    </g>
  </g>
</svg>
